<svg width="164" height="158" viewBox="0 0 164 158" fill="none" xmlns="http://www.w3.org/2000/svg">
<path opacity="0.03" d="M85.7168 157.246C126.293 157.246 159.186 150.869 159.186 143.002C159.186 135.136 126.293 128.758 85.7168 128.758C45.1407 128.758 12.2473 135.136 12.2473 143.002C12.2473 150.869 45.1407 157.246 85.7168 157.246Z" fill="#000001"/>
<path opacity="0.58" d="M142.875 131.755C142.875 131.755 135.783 129.85 134.216 123.265C134.216 123.265 145.182 121.001 145.541 132.325L142.875 131.755Z" fill="#14532D"/>
<path opacity="0.73" d="M143.742 131.047C143.742 131.047 138.759 123.244 143.083 115.912C143.083 115.912 151.45 121.177 147.784 131.047H143.742Z" fill="#14532D"/>
<path d="M145.016 131.047C145.016 131.047 147.598 122.776 155.492 121.177C155.492 121.177 156.996 126.536 150.415 131.047H145.013H145.016Z" fill="#14532D"/>
<path d="M139.879 130.882L141.358 140.699H150.401L151.693 130.882H139.879Z" fill="#24285B"/>
<path d="M129.649 0H51.197V140.699H129.649V0Z" fill="#E6E6E6"/>
<path d="M122.621 16.0398H57.6868V115.06H122.621V16.0398Z" fill="white"/>
<path d="M90.6573 135.417C94.8969 135.417 98.3338 131.98 98.3338 127.741C98.3338 123.501 94.8969 120.064 90.6573 120.064C86.4176 120.064 82.9807 123.501 82.9807 127.741C82.9807 131.98 86.4176 135.417 90.6573 135.417Z" fill="#A5A5A5"/>
<path opacity="0.08" d="M80.6214 53.8697L93.5201 55.7994L93.1222 56.6551C91.7806 59.5355 91.1538 62.6625 90.946 65.8317C90.8439 67.3741 89.9741 69.4728 87.0725 71.9518C82.125 76.1739 78.9382 89.7628 72.3709 95.073C68.3953 98.2845 66.1522 103.176 65.9514 108.282L64.6732 140.706H51.9576L54.7676 91.1362L58.0847 74.0153L66.3881 65.557L73.952 55.8029L77.3888 53.8732H80.6249L80.6214 53.8697Z" fill="#000001"/>
<path opacity="0.12" d="M105.781 5.50035H83.7836V8.7083H105.781V5.50035Z" fill="#000001"/>
<path d="M75.8182 11.0359C77.7961 11.0359 79.3994 9.43256 79.3994 7.45471C79.3994 5.47685 77.7961 3.87349 75.8182 3.87349C73.8404 3.87349 72.237 5.47685 72.237 7.45471C72.237 9.43256 73.8404 11.0359 75.8182 11.0359Z" fill="white"/>
<path d="M58.0812 72.3145L70.4341 56.9227L73.0998 59.2608L62.5745 76.8535L58.0812 72.3145Z" fill="#14532D"/>
<path d="M37.6327 46.9643L39.911 53.7992L34.5022 57.2361L32.5549 45.3867L37.6327 46.9643Z" fill="#F4A28C"/>
<path d="M30.6956 38.7807C31.8577 35.9389 35.6396 35.3614 37.7383 37.601C40.0413 40.0589 42.8161 43.9676 39.6751 46.0981C34.8684 49.3553 30.4562 43.2704 30.4562 43.2704C30.4562 43.2704 29.8118 40.9393 30.6921 38.7842L30.6956 38.7807Z" fill="#F4A28C"/>
<path d="M34.2099 42.9746C34.2099 42.9746 32.9775 41.9428 32.4211 43.4077C31.8647 44.8691 34.0374 45.5769 34.6888 44.8374C35.3403 44.0979 34.2099 42.9746 34.2099 42.9746Z" fill="#F4A28C"/>
<path d="M28.1849 60.5919C29.8188 56.9227 33.0127 54.176 36.858 53.0175C44.2071 50.8096 57.7431 53.2253 61.8702 60.1025C67.5184 69.515 59.2503 99.4184 59.2503 99.4184L34.548 101.338C34.548 101.338 20.9591 76.8289 28.1849 60.5919Z" fill="#14532D"/>
<path d="M59.2503 99.4184L56.0001 141.889H50.8624L46.2776 108.894L34.9213 101.338L59.2503 99.4184Z" fill="#24285B"/>
<path d="M34.9212 101.338L27.8328 141.889H33.3402L45.2353 108.201L34.9212 101.338Z" fill="#24285B"/>
<path opacity="0.08" d="M38.9954 52.3731C38.9954 52.3731 27.4384 89.5903 60.8067 92.0588L59.2503 99.4219L34.548 101.341C34.548 101.341 25.8432 87.6747 26.2129 68.4762C26.2129 68.4762 26.4242 58.9827 33.1042 54.7887C33.1042 54.7887 35.6537 52.9083 38.9954 52.3766V52.3731Z" fill="#000001"/>
<path d="M29.1251 141.801L25.808 144.245C25.2411 144.664 25.5369 145.562 26.2412 145.562H31.8014C32.2028 145.562 32.5303 145.235 32.5303 144.833V141.801H29.1287H29.1251Z" fill="#14532D"/>
<path d="M55.3592 141.801L58.4826 144.245C59.0355 144.678 58.7291 145.562 58.0284 145.562H54.0704C52.9048 145.562 51.9576 144.615 51.9576 143.449V141.801H55.3592Z" fill="#14532D"/>
<path d="M49.07 52.8203C49.07 52.8203 44.8303 58.8383 49.07 65.9972C51.7639 70.5433 59.6024 79.3995 64.9619 85.252C67.5712 88.1008 72.2018 87.562 74.0822 84.1885L85.5935 63.895L81.6883 61.3913L71.1384 76.8571C71.1384 76.8571 63.9196 53.1231 49.0736 52.8238L49.07 52.8203Z" fill="#14532D"/>
<path opacity="0.2" d="M49.07 52.8203C49.07 52.8203 44.8303 58.8383 49.07 65.9972C51.7639 70.5433 59.6024 79.3995 64.9619 85.252C67.5712 88.1008 72.2018 87.562 74.0822 84.1885L85.5935 63.895L81.6883 61.3913L71.1384 76.8571C71.1384 76.8571 63.9196 53.1231 49.0736 52.8238L49.07 52.8203Z" fill="white"/>
<path d="M84.2308 63.0181C84.2308 63.0181 90.7664 60.6166 88.1008 56.9192C85.4351 53.2217 81.6849 61.3842 81.6849 61.3842L84.2308 63.0146V63.0181Z" fill="#F4A28C"/>
<path d="M90.1744 52.2803L84.2838 49.6416L80.4358 58.2317L86.3264 60.8704L90.1744 52.2803Z" fill="#FFD200"/>
<path d="M32.9106 47.5629L29.2519 43.7739C28.4842 42.9781 28.0863 41.9041 28.1356 40.8019C28.2237 38.8757 28.6357 35.8016 30.2308 33.4951C32.7345 29.8752 36.0657 28.5089 36.8932 31.6358C37.7207 34.7663 37.8933 31.0478 39.9075 32.7134C41.9252 34.3755 41.5097 35.3509 39.9075 36.2312C38.3053 37.1151 34.9847 38.3863 34.6889 41.0238C34.3931 43.6648 36.8967 45.7917 32.9071 47.5629H32.9106Z" fill="#24285B"/>
<path d="M71.0539 57.4685C71.0539 57.4685 71.8708 51.8273 77.343 52.3731C82.8152 52.9189 80.8151 54.3134 78.6072 54.419H78.5896C77.667 54.5986 76.9592 55.2888 76.6669 56.1797C76.343 57.1692 75.4556 58.451 73.0998 59.2609L71.0574 57.4685H71.0539Z" fill="#F4A28C"/>
<path opacity="0.08" d="M129.646 27.9032H98.3338V55.3768H129.646V27.9032Z" fill="#000001"/>
<path d="M164 23.8396H98.3338V51.3132H164V23.8396Z" fill="#FFD200"/>
<path d="M127.568 29.7942H105.781V43.7564H127.568V29.7942Z" fill="white"/>
<path d="M105.781 29.7942L116.673 39.992L127.568 29.7942H105.781Z" fill="#24285B"/>
<path d="M155.633 31.2837H135.586V35.4072H155.633V31.2837Z" fill="white"/>
<path opacity="0.46" d="M155.633 37.9285H135.586V42.052H155.633V37.9285Z" fill="white"/>
<path opacity="0.08" d="M129.646 68.1734H93.5201V95.647H129.646V68.1734Z" fill="#000001"/>
<path d="M159.186 64.395H93.5201V91.8686H159.186V64.395Z" fill="#FFD200"/>
<path d="M149.696 71.9483H127.97V76.0718H149.696V71.9483Z" fill="white"/>
<path opacity="0.46" d="M149.696 78.5931H127.97V82.7166H149.696V78.5931Z" fill="white"/>
<path d="M111.68 88.0761C117.294 88.0761 121.846 83.5246 121.846 77.91C121.846 72.2953 117.294 67.7438 111.68 67.7438C106.065 67.7438 101.514 72.2953 101.514 77.91C101.514 83.5246 106.065 88.0761 111.68 88.0761Z" fill="#24285B"/>
<path d="M111.93 79.2621C114.087 79.2621 115.835 77.5137 115.835 75.357C115.835 73.2002 114.087 71.4518 111.93 71.4518C109.773 71.4518 108.025 73.2002 108.025 75.357C108.025 77.5137 109.773 79.2621 111.93 79.2621Z" fill="white"/>
<path opacity="0.24" d="M104.873 85.4597C104.873 85.4597 105.718 79.4946 111.683 79.1882C118.011 78.8642 118.494 85.4597 118.494 85.4597C118.494 85.4597 116.103 87.9916 111.585 88.0761C111.585 88.0761 107.803 88.2134 104.877 85.4597H104.873Z" fill="white"/>
<path d="M27.8081 51.947L22.1669 49.6405V44.2775H0V58.0883H22.1669V53.4366L27.8081 51.947Z" fill="#E6E6E6"/>
<path opacity="0.12" d="M6.12364 52.8661C7.05325 52.8661 7.80684 52.1125 7.80684 51.1829C7.80684 50.2533 7.05325 49.4997 6.12364 49.4997C5.19403 49.4997 4.44043 50.2533 4.44043 51.1829C4.44043 52.1125 5.19403 52.8661 6.12364 52.8661Z" fill="#000001"/>
<path opacity="0.12" d="M11.0394 52.8661C11.969 52.8661 12.7226 52.1125 12.7226 51.1829C12.7226 50.2533 11.969 49.4997 11.0394 49.4997C10.1098 49.4997 9.3562 50.2533 9.3562 51.1829C9.3562 52.1125 10.1098 52.8661 11.0394 52.8661Z" fill="#000001"/>
<path opacity="0.12" d="M15.846 52.8661C16.7757 52.8661 17.5293 52.1125 17.5293 51.1829C17.5293 50.2533 16.7757 49.4997 15.846 49.4997C14.9164 49.4997 14.1628 50.2533 14.1628 51.1829C14.1628 52.1125 14.9164 52.8661 15.846 52.8661Z" fill="#000001"/>
</svg>
