<svg width="319" height="212" viewBox="0 0 319 212" fill="none" xmlns="http://www.w3.org/2000/svg">
<path d="M318.986 167.409H318.148L318.045 148.507H318.353C318.818 148.507 319.228 147.994 319.228 147.387C319.228 146.781 318.818 146.267 318.353 146.267H318.045L317.971 130.932H318.343C318.781 130.932 319.125 130.477 319.125 129.941C319.125 129.475 318.874 129.091 318.52 128.974V125.953L318.529 125.813C318.529 125.767 318.52 125.685 318.52 125.603V124.379H318.846C319.079 124.379 319.256 124.157 319.256 123.883C319.256 123.592 319.079 123.382 318.846 123.382H318.408C318.623 122.56 318.893 120.962 318.324 119.365C318.073 118.624 317.533 117.896 316.937 117.283C316.341 116.689 315.698 116.158 315.176 115.785C315.186 115.691 315.214 115.545 315.223 115.418C315.242 115.236 315.214 115.044 315.139 114.817C315.074 114.607 314.916 114.414 314.748 114.251C314.59 114.111 314.413 113.977 314.301 113.884L314.282 113.563C314.31 113.511 314.347 113.481 314.357 113.417C314.385 113.382 314.413 113.301 314.413 113.237C314.413 113.155 314.385 113.109 314.357 113.045C314.338 112.981 314.31 112.945 314.254 112.917L314.245 112.607C314.282 112.578 314.31 112.561 314.31 112.514C314.338 112.479 314.338 112.414 314.338 112.368C314.338 112.304 314.338 112.24 314.31 112.205C314.282 112.159 314.254 112.123 314.236 112.111V111.774L314.134 109.353C314.134 109.301 314.115 109.289 314.087 109.289C314.077 109.289 314.05 109.301 314.05 109.353L313.966 111.774L313.948 112.111C313.919 112.123 313.901 112.159 313.873 112.205C313.845 112.24 313.835 112.304 313.835 112.368C313.835 112.414 313.845 112.479 313.873 112.514C313.873 112.561 313.901 112.578 313.919 112.607V112.917C313.873 112.945 313.845 112.981 313.817 113.045C313.798 113.109 313.78 113.156 313.78 113.237C313.78 113.302 313.798 113.382 313.817 113.417C313.836 113.482 313.854 113.511 313.901 113.563L313.873 113.884C313.761 113.977 313.593 114.111 313.435 114.251C313.268 114.414 313.128 114.607 313.035 114.817C312.97 115.027 312.942 115.236 312.96 115.418C312.97 115.546 312.998 115.691 313.026 115.785C312.477 116.158 311.834 116.688 311.247 117.283C310.652 117.896 310.111 118.624 309.851 119.365C309.283 120.963 309.571 122.56 309.776 123.382H309.385C309.18 123.382 309.003 123.592 309.003 123.883C309.003 124.157 309.18 124.379 309.385 124.379H309.73V128.997C309.366 129.09 309.133 129.475 309.133 129.941C309.133 130.478 309.468 130.932 309.906 130.932H310.279L310.214 146.267H309.906C309.413 146.267 309.031 146.781 309.031 147.387C309.031 147.994 309.413 148.507 309.906 148.507H310.205L310.111 167.409H309.273C308.706 167.409 308.258 167.981 308.258 168.657C308.258 169.368 308.705 169.928 309.273 169.928H310.102L310.056 185.007H307.691V175.876H307.755C307.923 175.876 308.054 175.713 308.054 175.514C308.054 175.316 307.923 175.141 307.755 175.141H307.598C307.895 174.266 308.64 171.538 307.663 168.752C307.281 167.666 306.508 166.64 305.661 165.731C304.795 164.868 303.836 164.122 303.081 163.538C303.119 163.41 303.147 163.223 303.156 162.99C303.174 162.757 303.128 162.465 303.025 162.15C302.923 161.871 302.718 161.591 302.457 161.334C302.243 161.125 302.001 160.949 301.815 160.833L301.787 160.32C301.843 160.273 301.899 160.203 301.917 160.121C301.945 160.04 301.973 159.959 301.973 159.865C301.973 159.748 301.945 159.655 301.908 159.573C301.871 159.492 301.815 159.445 301.768 159.376L301.74 158.944C301.787 158.909 301.815 158.862 301.842 158.816C301.871 158.746 301.88 158.675 301.88 158.606C301.88 158.49 301.871 158.431 301.842 158.362C301.805 158.303 301.768 158.257 301.73 158.21L301.712 157.743L301.581 154.221C301.581 154.151 301.545 154.14 301.507 154.14C301.479 154.14 301.461 154.151 301.461 154.221L301.33 157.743L301.303 158.21C301.266 158.257 301.228 158.303 301.2 158.362C301.163 158.431 301.145 158.49 301.145 158.606C301.145 158.676 301.163 158.746 301.182 158.816C301.209 158.862 301.238 158.909 301.274 158.944L301.266 159.376C301.2 159.445 301.145 159.492 301.126 159.573C301.079 159.655 301.042 159.749 301.042 159.865C301.042 159.958 301.07 160.04 301.107 160.121C301.145 160.203 301.172 160.273 301.228 160.32L301.209 160.833C301.032 160.949 300.79 161.124 300.557 161.334C300.325 161.591 300.092 161.871 299.989 162.15V162.185C299.887 162.477 299.86 162.757 299.868 162.99C299.868 163.223 299.915 163.41 299.953 163.538C299.18 164.122 298.239 164.868 297.392 165.731C296.517 166.64 295.734 167.666 295.352 168.752C294.375 171.538 295.148 174.267 295.427 175.141H295.278C295.11 175.141 294.989 175.316 294.989 175.514C294.989 175.713 295.11 175.876 295.278 175.876H295.427V180.611H292.083V176.891H292.363C292.549 176.891 292.717 176.704 292.717 176.459C292.717 176.202 292.549 176.04 292.363 176.04H292.028C292.214 175.316 292.456 173.94 291.962 172.552C291.73 171.911 291.283 171.294 290.752 170.745C290.249 170.22 289.681 169.8 289.234 169.463C289.253 169.369 289.271 169.264 289.271 169.124C289.271 168.972 289.271 168.798 289.197 168.623C289.141 168.448 289.002 168.272 288.862 168.121C288.732 168.005 288.583 167.899 288.48 167.818L288.462 167.527C288.489 167.48 288.526 167.445 288.536 167.409C288.554 167.363 288.582 167.304 288.582 167.247C288.582 167.188 288.554 167.118 288.526 167.072C288.498 167.025 288.48 166.99 288.452 166.954L288.433 166.697C288.452 166.687 288.48 166.651 288.489 166.616C288.498 166.593 288.517 166.546 288.517 166.476C288.517 166.441 288.498 166.384 288.48 166.348C288.48 166.313 288.452 166.278 288.424 166.266L288.396 165.998L288.331 163.876C288.322 163.852 288.312 163.817 288.294 163.817C288.266 163.817 288.256 163.852 288.256 163.876L288.182 165.998L288.163 166.266C288.135 166.278 288.117 166.313 288.117 166.348C288.089 166.384 288.079 166.441 288.079 166.476C288.079 166.546 288.089 166.593 288.098 166.616C288.117 166.651 288.136 166.687 288.154 166.697L288.136 166.954C288.117 166.99 288.079 167.025 288.061 167.072C288.042 167.118 288.024 167.187 288.024 167.247C288.024 167.305 288.042 167.363 288.052 167.409C288.061 167.445 288.089 167.48 288.117 167.527V167.818C288.015 167.899 287.856 168.005 287.726 168.121C287.577 168.272 287.446 168.448 287.381 168.623V168.634C287.335 168.797 287.307 168.972 287.316 169.124C287.316 169.264 287.344 169.368 287.353 169.463C286.906 169.8 286.338 170.221 285.826 170.745C285.305 171.294 284.849 171.911 284.625 172.552C284.122 173.94 284.364 175.316 284.559 176.04H284.178C283.983 176.04 283.815 176.202 283.815 176.459C283.815 176.704 283.982 176.891 284.178 176.891H284.457V180.611H281.105V175.876H281.189C281.338 175.876 281.468 175.713 281.468 175.514C281.468 175.316 281.338 175.141 281.189 175.141H281.031C281.319 174.266 282.064 171.538 281.087 168.752C280.705 167.666 279.941 166.64 279.075 165.731C278.228 164.868 277.269 164.122 276.496 163.538C276.533 163.41 276.57 163.223 276.57 162.99C276.598 162.757 276.57 162.465 276.468 162.15C276.356 161.871 276.142 161.591 275.881 161.334C275.657 161.125 275.415 160.949 275.239 160.833L275.22 160.32C275.276 160.273 275.313 160.203 275.341 160.121C275.368 160.04 275.388 159.959 275.388 159.865C275.388 159.748 275.368 159.655 275.341 159.573C275.285 159.492 275.248 159.445 275.183 159.376L275.173 158.944C275.21 158.909 275.239 158.862 275.266 158.816C275.285 158.746 275.313 158.675 275.313 158.606C275.313 158.49 275.285 158.431 275.266 158.362C275.22 158.303 275.183 158.257 275.145 158.21L275.136 157.743L275.006 154.221C275.006 154.151 274.969 154.14 274.931 154.14C274.904 154.14 274.876 154.151 274.876 154.221L274.745 157.743L274.717 158.21C274.698 158.257 274.643 158.303 274.615 158.362C274.596 158.431 274.569 158.49 274.569 158.606C274.569 158.676 274.597 158.746 274.615 158.816C274.643 158.862 274.671 158.909 274.699 158.944V159.376C274.634 159.445 274.578 159.492 274.54 159.573C274.513 159.655 274.485 159.749 274.485 159.865C274.485 159.958 274.485 160.04 274.54 160.121C274.568 160.203 274.606 160.273 274.653 160.32L274.643 160.833C274.448 160.949 274.224 161.124 274.001 161.334C273.74 161.591 273.526 161.871 273.405 162.15V162.185C273.302 162.477 273.274 162.757 273.302 162.99C273.302 163.223 273.331 163.41 273.386 163.538C272.614 164.122 271.654 164.868 270.807 165.731C270.239 166.314 269.727 166.955 269.327 167.62C269.503 165.369 269.373 162.687 268.423 159.993C267.669 157.802 266.095 155.725 264.344 153.929C262.64 152.157 260.741 150.653 259.204 149.545C259.27 149.265 259.344 148.88 259.363 148.449C259.381 147.924 259.316 147.352 259.13 146.769C258.906 146.151 258.469 145.591 257.966 145.09C257.519 144.671 257.025 144.297 256.671 144.04L256.625 143.026C256.717 142.933 256.791 142.805 256.867 142.676C256.923 142.489 256.978 142.314 256.978 142.128C256.978 141.918 256.923 141.708 256.848 141.545C256.774 141.382 256.68 141.266 256.559 141.172L256.541 140.285C256.606 140.204 256.671 140.111 256.718 140.005C256.774 139.866 256.792 139.714 256.792 139.574C256.792 139.388 256.774 139.224 256.69 139.096C256.643 138.98 256.559 138.886 256.476 138.805L256.448 137.883L256.187 130.758C256.178 130.676 256.122 130.629 256.066 130.595C255.992 130.595 255.935 130.676 255.917 130.758L255.675 137.883L255.638 138.805C255.544 138.886 255.479 138.98 255.433 139.096C255.349 139.224 255.312 139.388 255.312 139.574C255.312 139.714 255.349 139.866 255.405 140.005C255.442 140.111 255.507 140.204 255.582 140.285L255.563 141.172C255.433 141.266 255.33 141.381 255.265 141.545C255.191 141.708 255.144 141.918 255.144 142.128C255.144 142.314 255.172 142.489 255.246 142.676C255.302 142.804 255.376 142.933 255.479 143.026L255.451 144.04C255.097 144.297 254.594 144.671 254.138 145.09C253.654 145.591 253.198 146.151 252.983 146.769C252.787 147.352 252.723 147.924 252.75 148.449C252.779 148.88 252.843 149.265 252.908 149.545C251.406 150.621 249.571 152.075 247.897 153.782L247.584 141.349H248.208L251.471 135.261H247.431L246.6 102.251H247.302L250.043 96.1586H246.447L246.047 80.2501H246.107C247.208 79.0104 247.908 77.211 247.908 75.2066C247.908 72.0995 244.225 69.511 242.948 68.7051C243.228 68.4932 243.447 68.179 243.447 67.7388C243.447 67.2335 243.167 66.8885 242.816 66.709L242.756 62.9104C242.935 62.7825 243.074 62.5858 243.074 62.3095C243.074 62.0229 242.925 61.8214 242.735 61.6983L242.705 59.7794C243.68 59.7454 244.52 59.0522 244.946 58.0364C244.577 58.2942 244.15 58.4477 243.694 58.4477C242.288 58.4477 241.154 57.0222 241.154 55.2588C241.154 54.6339 241.303 54.0499 241.548 53.5613C240.652 54.077 240.029 55.2072 240.029 56.5256C240.029 58.1631 241.009 59.464 242.265 59.6978L242.233 61.7007C242.046 61.8254 241.898 62.0269 241.898 62.3103C241.898 62.5854 242.038 62.7817 242.214 62.9096L242.154 66.7118C241.805 66.8893 241.525 67.2343 241.525 67.7396C241.525 68.1802 241.744 68.4944 242.024 68.7059C240.747 69.5118 237.063 72.1003 237.063 75.2073C237.063 77.2118 237.76 79.0116 238.867 80.2509H238.926L238.525 96.1593H234.934L237.672 102.252H238.372L237.541 135.261H233.503L236.766 141.349H237.387L237.25 146.794C236.365 145.068 235.037 143.729 233.472 143.016C233.472 142.97 233.479 142.925 233.479 142.878C233.479 141.492 232.776 140.321 231.79 139.871L231.428 138.498C231.496 138.375 231.543 138.233 231.543 138.071C231.543 137.757 231.391 137.492 231.179 137.367L230.954 133.043C230.954 133.024 230.939 133.009 230.924 133.009C230.904 133.009 230.888 133.024 230.888 133.043L230.665 137.367C230.45 137.492 230.297 137.757 230.297 138.071C230.297 138.233 230.345 138.377 230.415 138.502L230.055 139.871C229.069 140.321 228.36 141.489 228.36 142.878C228.36 142.925 228.369 142.969 228.372 143.016C226.126 144.038 224.387 146.35 223.72 149.238V138.325H223.856C224.183 138.325 224.445 137.994 224.445 137.582V137.161C224.445 136.754 224.184 136.419 223.856 136.419H223.055C223.089 136.143 223.111 135.871 223.111 135.578C223.111 133.594 222.269 131.851 221.012 130.879C220.241 130.279 219.573 129.493 219.039 128.574C219.139 128.458 219.199 128.29 219.199 128.108C219.199 127.85 219.076 127.623 218.896 127.527L218.768 125.017H218.617L218.487 127.527C218.307 127.623 218.184 127.85 218.184 128.108C218.184 128.29 218.242 128.458 218.343 128.574C217.816 129.495 217.149 130.277 216.37 130.879C215.112 131.851 214.273 133.594 214.273 135.578C214.273 135.871 214.293 136.143 214.326 136.419H213.549C213.222 136.419 212.955 136.754 212.955 137.161V137.582C212.955 137.994 213.222 138.325 213.549 138.325H213.665V148.732H212.644H212.293L212.365 135.19L212.383 134.968C212.374 134.805 212.365 134.676 212.365 134.525V132.146H213.007C213.445 132.146 213.789 131.691 213.789 131.179C213.789 130.63 213.445 130.187 213.007 130.187H212.132C212.569 128.578 213.082 125.511 211.992 122.386C211.489 120.928 210.446 119.546 209.273 118.351C208.136 117.155 206.88 116.158 205.846 115.418C205.893 115.22 205.939 114.964 205.949 114.672C205.957 114.333 205.92 113.949 205.79 113.564C205.641 113.144 205.352 112.771 205.017 112.462C204.71 112.159 204.393 111.913 204.142 111.756L204.123 111.079C204.188 110.998 204.244 110.916 204.291 110.817C204.327 110.724 204.356 110.596 204.356 110.467C204.356 110.321 204.327 110.193 204.272 110.077C204.225 109.983 204.142 109.901 204.067 109.82V109.225C204.104 109.19 204.141 109.126 204.188 109.062C204.225 108.962 204.244 108.852 204.244 108.753C204.244 108.642 204.206 108.531 204.169 108.45C204.132 108.368 204.086 108.286 204.03 108.258L203.993 107.628L203.825 102.887C203.825 102.835 203.788 102.788 203.751 102.771C203.704 102.771 203.657 102.817 203.657 102.887L203.48 107.628V108.258C203.397 108.287 203.359 108.368 203.323 108.45C203.266 108.531 203.248 108.642 203.248 108.753C203.248 108.852 203.267 108.962 203.313 109.062C203.331 109.126 203.369 109.19 203.425 109.225L203.397 109.82C203.332 109.902 203.267 109.983 203.22 110.077C203.164 110.193 203.127 110.321 203.127 110.467C203.127 110.595 203.155 110.724 203.192 110.817C203.248 110.916 203.294 110.998 203.369 111.079L203.331 111.756C203.099 111.913 202.754 112.159 202.475 112.462C202.14 112.771 201.841 113.144 201.702 113.564C201.572 113.949 201.535 114.333 201.544 114.672C201.544 114.963 201.599 115.22 201.646 115.418C200.622 116.159 199.355 117.155 198.21 118.351C197.811 118.748 197.45 119.154 197.111 119.58C195.878 109.885 190.96 101.834 178.95 95.7904C170.68 91.6267 167.905 85.4899 167.023 82.5995C168.354 82.4136 169.357 81.6013 169.357 80.6258C169.357 79.7104 168.47 78.948 167.263 78.7021L167.069 72.1407C167.468 71.9872 167.742 71.6965 167.742 71.3591C167.742 71.0073 167.448 70.7071 167.022 70.5596L166.832 64.1337C168.685 64.6322 170.66 64.5466 172.584 63.7347C175.472 62.5138 177.672 59.9353 178.904 56.7579C177.875 57.8609 176.669 58.7372 175.309 59.3125C169.613 61.7167 163.432 57.8809 161.51 50.7497C160.558 47.2158 160.823 43.5443 162.026 40.4452C158.749 43.9604 157.318 49.7343 158.785 55.1724C160.001 59.6902 162.931 62.8788 166.363 64.0018L166.051 70.508C165.527 70.6224 165.142 70.9578 165.142 71.3595C165.142 71.7397 165.487 72.0623 165.97 72.1935L165.658 78.6945C164.432 78.932 163.527 79.7016 163.527 80.6258C163.527 81.6345 164.603 82.4616 166.003 82.6091C165.118 85.5035 162.341 91.6315 154.079 95.79C145.398 100.159 140.423 105.578 137.867 111.908L137.555 99.5362H138.263L141.963 92.633H137.383L136.44 55.206H137.236L140.344 48.298H136.266L135.814 30.2603H135.881C137.131 28.8547 137.924 26.8146 137.924 24.5419C137.924 21.0188 133.747 18.084 132.3 17.1702C132.617 16.9299 132.866 16.5737 132.866 16.0744C132.866 15.5015 132.547 15.1105 132.15 14.9071L132.082 10.6003C132.285 10.4548 132.442 10.2325 132.442 9.91872C132.442 9.59371 132.274 9.36504 132.059 9.22592L132.025 7.04996C133.13 7.01158 134.082 6.22524 134.565 5.0739C134.147 5.36613 133.662 5.54043 133.145 5.54043C131.552 5.54043 130.265 3.92415 130.265 1.9245C130.265 1.2161 130.435 0.554083 130.712 0C129.697 0.584465 128.99 1.86613 128.99 3.36087C128.99 5.21741 130.102 6.69217 131.525 6.95722L131.489 9.22791C131.276 9.36943 131.109 9.5977 131.109 9.91912C131.109 10.2309 131.267 10.4532 131.468 10.5987L131.4 14.9099C131.004 15.111 130.686 15.5023 130.686 16.0752C130.686 16.5749 130.934 16.9311 131.253 17.171C129.804 18.0848 125.628 21.0196 125.628 24.5427C125.628 26.8154 126.418 28.8559 127.673 30.2611H127.74L127.285 48.2987H123.214L126.319 55.2068H127.113L126.17 92.6338H121.593L125.291 99.537H125.996L125.043 138.703C121.178 131.577 114.813 126.767 107.516 126.255V125.24C107.516 124.874 107.278 124.574 106.983 124.574H106.571L106.232 113.895C107.178 114.298 108.204 114.452 109.258 114.22C110.956 113.847 112.366 112.641 113.273 110.995C112.621 111.5 111.888 111.862 111.085 112.037C107.739 112.773 104.538 109.965 103.953 105.771C103.664 103.692 104.061 101.668 104.945 100.064C102.876 101.679 101.68 104.756 102.127 107.953C102.504 110.647 103.963 112.751 105.842 113.732L105.512 124.574H105.086C104.947 124.574 104.816 124.641 104.719 124.763C104.623 124.884 104.569 125.05 104.569 125.221V126.277C96.2218 127.032 89.1392 133.411 85.7021 142.41V137.911H86.0092V136.135H86.5356V133.861H85.7021V116.003H86.0092V114.436H86.0769C86.661 114.436 87.1344 113.843 87.1344 113.111C87.1344 112.38 86.661 111.787 86.0769 111.787H85.6609C85.6191 109.874 85.5217 107.969 85.3251 106.101C85.3251 106.101 83.4193 90.4018 83.0512 90.397C82.6816 90.3926 80.7033 105.918 80.7033 105.918C80.4904 107.843 80.3832 109.81 80.3346 111.787H79.8717C79.2876 111.787 78.8142 112.38 78.8142 113.111C78.8142 113.843 79.2876 114.436 79.8717 114.436H79.9793V116.003H80.2851V133.861H79.4532V136.135H79.9793V137.911H80.2851V143.992V156.035L75.8083 158.175C74.9981 156.193 73.5597 154.315 71.9626 152.671C70.2634 150.933 68.3637 149.417 66.8269 148.298C66.8968 148.029 66.9668 147.645 66.9856 147.202C67.0041 146.7 66.9527 146.106 66.7529 145.522H66.7481C66.5387 144.916 66.0918 144.356 65.5979 143.878C65.1462 143.423 64.6619 143.073 64.3038 142.829L64.262 141.814C64.3644 141.709 64.4433 141.593 64.4991 141.464C64.5646 141.301 64.6109 141.102 64.6109 140.916C64.6109 140.694 64.5595 140.496 64.4806 140.322C64.4107 140.193 64.3082 140.042 64.1965 139.949L64.1687 139.097C64.2386 139.015 64.3038 138.91 64.3459 138.806C64.4018 138.677 64.4296 138.526 64.4296 138.362C64.4296 138.21 64.3922 138.024 64.3319 137.895C64.276 137.779 64.1968 137.686 64.118 137.604L64.0762 136.683L63.8246 129.593C63.8198 129.523 63.7688 129.453 63.6988 129.453C63.6337 129.453 63.5686 129.499 63.5641 129.593L63.3078 136.683L63.2797 137.604C63.1961 137.686 63.1124 137.779 63.061 137.895C62.9956 138.024 62.9538 138.21 62.9538 138.362C62.9538 138.526 62.9819 138.677 63.047 138.806C63.0888 138.91 63.1542 139.015 63.2194 139.097L63.1961 139.949C63.0751 140.042 62.9822 140.193 62.9075 140.322C62.8283 140.496 62.7772 140.695 62.7772 140.916C62.7772 141.102 62.8146 141.301 62.8842 141.464C62.9493 141.593 63.0285 141.709 63.1309 141.814L63.0888 142.829C62.7303 143.073 62.2416 143.423 61.7902 143.878C61.3011 144.356 60.8498 144.916 60.64 145.522C60.4306 146.106 60.3885 146.7 60.3981 147.202C60.4214 147.645 60.4913 148.029 60.5609 148.298C59.02 149.417 57.1295 150.933 55.43 152.671C53.6838 154.478 52.1381 156.531 51.3793 158.723C50.1688 162.14 50.2757 165.522 50.6808 168.064C50.2665 167.201 49.6379 166.443 48.9628 165.732C48.1152 164.868 47.1655 164.123 46.4019 163.539C46.4348 163.411 46.4718 163.224 46.4763 162.991C46.4904 162.758 46.4623 162.478 46.3553 162.186V162.151C46.2529 161.871 46.0246 161.592 45.7826 161.335C45.5544 161.125 45.3172 160.95 45.14 160.834L45.1167 160.321C45.1678 160.273 45.21 160.203 45.2425 160.122C45.2658 160.041 45.2936 159.96 45.2936 159.866C45.2936 159.749 45.2658 159.656 45.2237 159.574C45.1911 159.493 45.1445 159.446 45.0794 159.376L45.0653 158.945C45.1072 158.909 45.1397 158.863 45.1586 158.817C45.1819 158.746 45.1959 158.676 45.1959 158.606C45.1959 158.49 45.1819 158.432 45.1493 158.363C45.1167 158.304 45.0794 158.257 45.0424 158.211L45.0283 157.744L44.8933 154.222C44.8933 154.151 44.87 154.141 44.8419 154.141C44.8045 154.141 44.772 154.151 44.772 154.222L44.6417 157.744L44.6232 158.211C44.5859 158.257 44.5441 158.303 44.5115 158.363C44.4882 158.432 44.4601 158.49 44.4601 158.606C44.4601 158.676 44.4786 158.747 44.5019 158.817C44.5252 158.863 44.5578 158.909 44.5996 158.945L44.5859 159.376C44.5255 159.446 44.4741 159.493 44.4416 159.574C44.4042 159.656 44.3765 159.749 44.3765 159.866C44.3765 159.959 44.3902 160.041 44.4231 160.122C44.4556 160.203 44.493 160.273 44.5536 160.321L44.5259 160.834C44.3442 160.95 44.1067 161.125 43.874 161.335C43.6365 161.592 43.413 161.871 43.3106 162.151C43.2081 162.466 43.1755 162.758 43.1944 162.991C43.1988 163.224 43.241 163.411 43.2687 163.539C42.4959 164.123 41.5507 164.868 40.7035 165.732C39.8326 166.641 39.0598 167.667 38.6732 168.753C37.7002 171.539 38.4545 174.267 38.7431 175.142H38.5895C38.436 175.142 38.301 175.317 38.301 175.515C38.301 175.714 38.436 175.877 38.5895 175.877H38.6687V180.612H35.321V178.245L35.3258 178.152C35.321 178.093 35.321 178.011 35.321 177.942V176.892H35.5955C35.7957 176.892 35.9492 176.706 35.9492 176.46C35.9492 176.204 35.7957 176.041 35.5955 176.041H35.2093C35.4002 175.317 35.6329 173.942 35.1489 172.554C34.9255 171.912 34.4642 171.295 33.9384 170.746C33.4309 170.221 32.8722 169.802 32.4065 169.464C32.4346 169.37 32.4579 169.265 32.4579 169.126C32.4671 168.974 32.4486 168.799 32.388 168.635V168.624C32.3228 168.449 32.1878 168.274 32.0387 168.122C31.9126 168.006 31.7639 167.901 31.6614 167.819L31.6429 167.528C31.6754 167.481 31.6987 167.446 31.7128 167.41C31.7406 167.364 31.7501 167.305 31.7501 167.248C31.7501 167.189 31.7406 167.12 31.7128 167.073C31.6943 167.026 31.6614 166.991 31.6288 166.956L31.6244 166.699C31.6384 166.688 31.6617 166.652 31.6758 166.617C31.6946 166.594 31.6991 166.547 31.6991 166.477C31.6991 166.442 31.6802 166.385 31.6662 166.349C31.6521 166.314 31.6288 166.279 31.6011 166.267L31.5918 165.999L31.5171 163.877C31.5126 163.853 31.4941 163.819 31.4801 163.819C31.4523 163.819 31.4427 163.853 31.4427 163.877L31.3636 165.999L31.3588 166.267C31.3259 166.279 31.3029 166.314 31.2889 166.349C31.2656 166.385 31.2611 166.442 31.2611 166.477C31.2611 166.547 31.2656 166.594 31.2889 166.617C31.2937 166.652 31.3122 166.688 31.3403 166.699L31.331 166.956C31.2937 166.991 31.2614 167.026 31.2474 167.073C31.2145 167.119 31.2055 167.189 31.2055 167.248C31.2055 167.306 31.2148 167.364 31.2381 167.41C31.2566 167.446 31.2751 167.481 31.308 167.528L31.3035 167.819C31.1915 167.901 31.0427 168.006 30.9077 168.122C30.7634 168.274 30.6329 168.449 30.5681 168.624C30.5167 168.799 30.4889 168.974 30.4981 169.126C30.5026 169.265 30.5211 169.369 30.54 169.464C30.0835 169.802 29.5156 170.222 29.0128 170.746C28.5008 171.295 28.035 171.912 27.8115 172.554C27.3132 173.942 27.5511 175.317 27.7461 176.041H27.4109C27.2248 176.041 27.0617 176.204 27.0617 176.46C27.0617 176.706 27.2248 176.892 27.4109 176.892H27.695V180.613H24.3515V175.877H24.4957C24.6633 175.877 24.7891 175.714 24.7891 175.516C24.7891 175.318 24.6633 175.142 24.4957 175.142H24.3374C24.6353 174.267 25.3896 171.539 24.4121 168.753C24.0348 167.667 23.2619 166.641 22.3866 165.732C21.5346 164.869 20.5939 164.123 19.8261 163.54C19.8587 163.411 19.8957 163.225 19.9005 162.992C19.9098 162.758 19.8868 162.479 19.784 162.186V162.152C19.677 161.872 19.4581 161.592 19.2068 161.336C18.9834 161.126 18.7366 160.951 18.555 160.834L18.5457 160.321C18.5875 160.274 18.6293 160.204 18.6574 160.122C18.6993 160.042 18.7133 159.96 18.7133 159.866C18.7133 159.749 18.69 159.657 18.6527 159.575C18.6201 159.493 18.5645 159.446 18.5039 159.377L18.4851 158.945C18.5361 158.91 18.555 158.863 18.5827 158.817C18.6153 158.747 18.6293 158.676 18.6293 158.607C18.6293 158.491 18.6108 158.432 18.578 158.363C18.5502 158.304 18.5128 158.258 18.4662 158.211L18.4477 157.744L18.3267 154.223C18.3267 154.152 18.2938 154.141 18.2616 154.141C18.229 154.141 18.1962 154.152 18.1872 154.223L18.0662 157.744L18.0477 158.211C18.0011 158.258 17.9638 158.304 17.9408 158.363C17.9127 158.433 17.8894 158.491 17.8894 158.607C17.8894 158.677 17.9127 158.747 17.9312 158.817C17.959 158.863 17.9915 158.91 18.0244 158.945L18.0104 159.377C17.9545 159.446 17.9034 159.493 17.8616 159.575C17.8246 159.657 17.8057 159.75 17.8057 159.866C17.8057 159.96 17.8246 160.041 17.8568 160.122C17.8897 160.204 17.9271 160.274 17.9686 160.321L17.9593 160.834C17.7777 160.951 17.5309 161.125 17.3074 161.336C17.0559 161.592 16.8372 161.872 16.7303 162.152C16.6323 162.466 16.6045 162.758 16.6138 162.992C16.6185 163.225 16.6556 163.411 16.6881 163.54C15.9246 164.123 14.9841 164.869 14.1276 165.732C13.252 166.641 12.4932 167.667 12.1021 168.753C11.1244 171.539 11.8787 174.268 12.1765 175.142H12.023C11.8554 175.142 11.7251 175.317 11.7251 175.516C11.7251 175.714 11.8554 175.877 12.023 175.877H12.0929V185.008H9.91386L9.89056 169.93H10.7148C11.2734 169.93 11.7299 169.37 11.7299 168.659C11.7299 167.983 11.2734 167.411 10.7148 167.411H9.87204L9.7884 148.508H10.0815C10.5657 148.508 10.966 147.995 10.966 147.388C10.966 146.782 10.5657 146.269 10.0815 146.269H9.77883L9.70892 130.933H10.0815C10.5143 130.933 10.8636 130.479 10.8636 129.942C10.8636 129.476 10.6075 129.092 10.2583 128.975V125.954L10.2676 125.814C10.2631 125.768 10.2631 125.686 10.2583 125.604V124.38H10.5935C10.8125 124.38 10.9941 124.159 10.9941 123.884C10.9941 123.593 10.8125 123.383 10.5935 123.383H10.1325C10.3652 122.561 10.6305 120.964 10.0626 119.366C9.8066 118.625 9.27126 117.897 8.67527 117.284C8.08885 116.69 7.43667 116.159 6.90133 115.786C6.93389 115.692 6.96166 115.547 6.96645 115.419C6.96645 115.237 6.94794 115.045 6.87324 114.818C6.81291 114.608 6.64978 114.415 6.48698 114.253C6.32385 114.112 6.16105 113.978 6.03527 113.886L6.0257 113.565C6.05858 113.512 6.08603 113.483 6.10518 113.419C6.12849 113.383 6.13774 113.302 6.13774 113.238C6.13774 113.156 6.12849 113.11 6.09624 113.046C6.07294 112.982 6.04964 112.947 6.0075 112.918L5.98899 112.608C6.02155 112.58 6.03559 112.562 6.04932 112.515C6.07262 112.48 6.08635 112.416 6.08635 112.369C6.08635 112.305 6.06336 112.241 6.04932 112.207C6.02602 112.16 6.0075 112.125 5.97494 112.113L5.96089 111.775L5.87247 109.355C5.87247 109.303 5.85363 109.291 5.83065 109.291C5.80735 109.291 5.78883 109.303 5.78883 109.355L5.69562 111.775L5.68604 112.113C5.65348 112.125 5.62571 112.16 5.60687 112.207C5.58357 112.241 5.57399 112.305 5.57399 112.369C5.57399 112.416 5.58357 112.48 5.60687 112.515C5.6206 112.562 5.64869 112.58 5.66721 112.608L5.65348 112.918C5.61134 112.947 5.58357 112.982 5.55548 113.046C5.53217 113.11 5.50887 113.157 5.50887 113.238C5.50887 113.303 5.53217 113.383 5.55069 113.419C5.57399 113.483 5.5973 113.512 5.62507 113.565L5.62028 113.886C5.49929 113.978 5.32244 114.113 5.16858 114.253C5.00098 114.415 4.84744 114.608 4.77721 114.818C4.7073 115.028 4.69357 115.237 4.69804 115.419C4.69804 115.547 4.72581 115.693 4.74465 115.786C4.22335 116.159 3.5667 116.69 2.98029 117.284C2.37951 117.897 1.84895 118.625 1.58815 119.366C1.0295 120.964 1.28999 122.561 1.51824 123.383H1.13644C0.917773 123.383 0.731345 123.593 0.731345 123.884C0.731345 124.159 0.917773 124.38 1.13644 124.38H1.45311V128.997C1.11346 129.09 0.852331 129.475 0.852331 129.941C0.852331 130.478 1.21114 130.932 1.64848 130.932H2.02102L1.9511 146.267H1.63443C1.15017 146.267 0.759118 146.781 0.759118 147.387C0.759118 147.994 1.15049 148.507 1.63443 148.507H1.92748L1.84831 167.409H1.00109C0.446915 167.409 0 167.981 0 168.657C0 169.368 0.446915 169.928 1.00109 169.928H1.83906L1.74137 211C22.9916 211 73.8376 211.5 107.5 211.5C207.824 211.5 219.629 211 277 211C302.887 211 310.302 211.5 318.147 211.5V183.8V169.929H318.985C319.535 169.929 320 169.369 320 168.658C320.001 167.981 319.536 167.409 318.986 167.409ZM215.942 148.731H214.314V143.069C214.314 141.601 214.657 140.37 215.128 139.999C215.598 140.369 215.942 141.601 215.942 143.069V148.731ZM220.752 148.828H217.626V148.731H216.629V142.458C216.629 140.837 217.501 139.476 218.692 139.06C219.879 139.476 220.752 140.837 220.752 142.458V148.828ZM223.083 148.828H221.453V143.069C221.453 141.601 221.799 140.37 222.27 139.999C222.74 140.369 223.083 141.601 223.083 143.069L223.083 148.828Z" fill="#1B4332"/>
</svg>
