<svg width="141" height="143" viewBox="0 0 141 143" fill="none" xmlns="http://www.w3.org/2000/svg">
<path d="M45.1721 115.392C35.4042 110.594 26.4932 106.344 15.8342 102.951C21.3522 99.2835 21.6607 89.8927 22.586 83.3465C25.5678 62.2685 46.4745 48.8334 62.72 37.7288C64.0909 36.7692 65.4961 35.8781 66.9699 35.0555C68.6835 34.1301 73.4818 31.2512 74.7499 33.9245C75.9494 36.4607 72.9677 41.1219 71.4597 42.9726C72.4536 41.4989 73.5503 40.0937 74.7499 38.7913C75.1611 38.3458 75.6067 37.8659 76.2236 37.7288C77.3204 37.4889 78.3486 38.5171 78.5199 39.6139C78.6913 40.7106 78.2115 41.8073 77.7316 42.8013C76.5321 45.2004 74.9898 47.4282 73.2419 49.4503C74.4414 48.1136 78.8627 43.0412 78.7598 48.1479C78.6913 51.3696 77.3204 54.4542 75.0241 56.6819C76.0523 55.7908 77.149 54.9683 78.3143 54.2828C78.657 54.0086 79.0683 53.9058 79.4796 53.9743C79.9251 54.1114 80.165 54.6255 80.2679 55.1053C80.9876 58.3956 79.1711 60.7262 77.9373 63.5366C76.9776 65.73 76.395 67.7864 75.1612 69.9114C70.6714 77.5543 65.9074 85.0259 60.7664 92.2575C59.3955 94.1083 45.2406 115.426 45.1721 115.392Z" fill="white"/>
<path d="M45.2064 115.666C45.1721 115.666 45.1035 115.632 45.0693 115.632C34.8216 110.628 26.1505 106.515 15.7657 103.191L15.2516 103.019L15.6971 102.711C20.3583 99.6263 21.2494 92.1547 21.9691 86.1912C22.1062 85.163 22.209 84.2033 22.3461 83.2779C25.2251 62.9196 44.8979 49.5188 60.6979 38.7913L62.5829 37.4889C63.9538 36.5293 65.3933 35.6382 66.867 34.8156L67.244 34.61C68.8549 33.7189 71.8709 32.0738 73.756 32.6907C74.3043 32.862 74.7499 33.2733 74.9898 33.7874C75.641 35.1926 75.1612 37.0777 74.3729 38.7913L74.5442 38.5857C74.9898 38.1058 75.4696 37.5917 76.1208 37.4547C76.6349 37.3518 77.1833 37.4547 77.6288 37.7631C78.2115 38.1744 78.6227 38.8256 78.7598 39.5453C78.9312 40.7106 78.4514 41.8416 77.9373 42.9041C77.3204 44.1379 76.6006 45.3375 75.8466 46.4685C76.7034 45.8173 77.4917 45.4746 78.0744 45.7145C78.657 45.9544 78.9998 46.777 78.9655 48.1479C78.8969 50.5813 78.1429 52.9119 76.772 54.934C77.1833 54.6255 77.6288 54.3513 78.0744 54.0772C78.5199 53.803 78.9655 53.5973 79.4453 53.7344C79.9251 53.8715 80.2336 54.3171 80.405 55.0711C81.0219 57.7787 79.9594 59.8008 78.8627 61.96C78.5885 62.5084 78.28 63.091 78.0401 63.6737C77.6974 64.4277 77.3889 65.1817 77.1147 65.9357C76.6006 67.3409 75.9837 68.7461 75.2297 70.0485C70.3629 78.3426 65.6332 85.6428 60.835 92.4289C60.1838 93.32 56.4823 98.9065 52.8493 104.322C50.9643 107.166 49.0792 109.977 47.674 112.067L45.9604 114.604C45.4463 115.495 45.3092 115.666 45.2064 115.666ZM16.3826 102.848C26.5275 106.138 35.0615 110.148 45.1036 115.049C45.789 114.09 49.1821 108.983 52.5066 104.013C56.1052 98.5981 59.841 93.0115 60.4922 92.1204C65.2905 85.3686 69.9859 78.0684 74.8527 69.8086C75.5724 68.5062 76.1894 67.1695 76.7034 65.7643C76.9776 65.0103 77.2861 64.2563 77.6288 63.468C77.903 62.8854 78.1772 62.3027 78.4857 61.7201C79.5481 59.6294 80.542 57.6758 79.9594 55.1739C79.8909 54.7969 79.6852 54.3513 79.3425 54.2143C78.9998 54.18 78.657 54.2828 78.3828 54.4884C77.2175 55.1739 76.1551 55.9622 75.1269 56.8533L74.7841 56.4763C77.0805 54.2828 78.3828 51.2668 78.4514 48.1136C78.4857 46.9826 78.28 46.3314 77.8687 46.16C77.149 45.8859 75.641 47.0169 73.4132 49.5188L73.3789 49.5531V49.5874L73.0019 49.2446V49.2104C74.7499 47.2225 76.2579 45.029 77.4575 42.6642C77.9373 41.6703 78.3828 40.6421 78.2457 39.6139C78.1429 39.0312 77.8345 38.5171 77.3546 38.1744C77.0462 37.9345 76.6349 37.8659 76.2579 37.9345C75.7438 38.0373 75.3325 38.4828 74.9212 38.8941C74.2358 39.6481 73.5503 40.4707 72.9334 41.2933C72.2822 42.3214 71.7338 43.0069 71.6653 43.0755L71.254 42.767C71.6996 42.1158 72.1451 41.4989 72.6249 40.9162C74.0301 38.7228 75.4011 35.7753 74.5442 33.9931C74.3729 33.5818 74.0301 33.2733 73.5846 33.1362C71.9395 32.5879 68.9234 34.233 67.484 35.0213L67.1069 35.2269C65.6675 36.0495 64.228 36.9406 62.8913 37.9002L60.972 39.2026C45.2406 49.8958 25.7049 63.1938 22.8602 83.3465C22.7231 84.2719 22.6203 85.2315 22.4832 86.2254C21.7635 92.189 20.8724 99.4892 16.3826 102.848Z" fill="#231F20"/>
<path d="M0 116.386L16.4169 96.4731L50.2788 111.416L40.3053 133.42L0 116.386Z" fill="#231F20"/>
<path d="M42.4988 118.751C42.4645 118.751 42.4302 118.751 42.396 118.716L13.7436 105.316C13.6065 105.247 13.5722 105.11 13.6065 104.973C13.675 104.836 13.8121 104.801 13.9492 104.836L42.6016 118.202C42.7387 118.271 42.773 118.408 42.7387 118.545C42.6702 118.716 42.6016 118.751 42.4988 118.751Z" fill="white"/>
<path d="M119.888 13.3949H86.677V37.9002H119.888V13.3949Z" fill="white"/>
<path d="M120.162 38.1401H86.437V13.1207H120.162V38.1401ZM86.9511 37.6603H119.648V13.669H86.9511V37.6603Z" fill="#D1D3D4"/>
<path d="M114.678 21.1749C114.575 21.3462 114.473 21.4833 114.37 21.6204C110.565 25.4248 106.727 29.2634 102.888 33.0677C102.511 33.4447 102.203 33.4447 101.791 33.0677C99.6323 30.8399 97.4731 28.6464 95.3481 26.4187C95.0739 26.213 95.0054 25.8018 95.2453 25.5276C95.2796 25.459 95.3481 25.4248 95.4167 25.3905L97.0275 23.951C97.2331 23.6768 97.6444 23.6426 97.8843 23.8825C97.9186 23.9167 97.9529 23.951 97.9872 23.9853L101.791 27.8582C102.203 28.2694 102.477 28.2694 102.888 27.8582L111.799 18.9814C112.176 18.6044 112.485 18.6044 112.862 18.9814C113.376 19.4955 113.856 19.9753 114.37 20.4894C114.473 20.6265 114.575 20.7636 114.678 20.9007V21.1749Z" fill="#14532D"/>
<path d="M86.3686 51.6095C86.2315 51.6095 86.0944 51.5067 86.0944 51.3353C86.0944 51.1639 86.1972 51.0611 86.3686 51.0611C89.2818 50.7869 91.5438 49.6216 93.1546 47.5652C96.8219 42.8698 95.6909 35.3297 95.6566 34.987C95.6223 34.8499 95.7251 34.7128 95.8622 34.7128C95.9993 34.6785 96.1364 34.7813 96.1707 34.9184C96.205 35.2612 97.3703 43.0069 93.5659 47.8737C91.8865 50.0329 89.4874 51.2668 86.4371 51.5752L86.3686 51.6095Z" fill="#D1D3D4"/>
<path d="M23.8885 9.96754L62.9599 0.336773C63.8853 0.0968602 64.845 0.679504 65.0849 1.60488L85.1004 82.8667C85.3403 83.792 84.7577 84.7517 83.8323 84.9916L44.7609 94.6224C43.8355 94.8623 42.8758 94.2796 42.6359 93.3542L22.6204 12.0582C22.3804 11.1328 22.9631 10.1732 23.8885 9.96754Z" fill="white"/>
<path d="M44.3153 94.9308C43.3899 94.9308 42.6017 94.3139 42.3617 93.4228L22.3805 12.1268C22.1063 11.0643 22.7575 9.96754 23.8542 9.69336L62.9257 0.0625877C63.9881 -0.211598 65.0849 0.439594 65.3591 1.53634L85.3746 82.7981C85.5117 83.3122 85.4089 83.8606 85.1347 84.3061C84.8605 84.7517 84.415 85.0944 83.9009 85.1972L44.8294 94.828C44.6238 94.8966 44.4867 94.9308 44.3153 94.9308ZM63.4055 0.542413C63.3027 0.542413 63.1656 0.542413 63.0628 0.576686L23.9913 10.2075C23.203 10.4131 22.6889 11.2014 22.8946 11.9897L42.8758 93.2514C43.0815 94.0397 43.8698 94.5195 44.6923 94.3482L83.7638 84.7174C84.5521 84.5118 85.0661 83.7235 84.8605 82.9352L64.845 1.67343C64.6736 1.02224 64.091 0.542413 63.4055 0.542413Z" fill="#231F20"/>
<path d="M64.3087 8.11971L26.3037 17.4742L42.3423 82.635L80.3472 73.2805L64.3087 8.11971Z" fill="#14532D"/>
<path d="M51.9582 40.2993H51.8897L51.6497 40.2308C47.16 39.4082 43.4585 37.4547 40.6481 34.4729C39.2429 32.9991 38.1118 31.2855 37.2893 29.4005C36.8437 28.4065 36.501 27.3441 36.2611 26.2473L36.2268 26.213V26.076C36.2268 25.9731 36.3296 25.8703 36.4324 25.836C36.7066 25.7332 36.9465 25.5961 37.2207 25.459C38.5574 24.705 39.4485 23.7454 39.8598 22.5115C40.2025 21.5519 40.2025 20.5237 39.894 19.564L39.8255 19.3241L40.0311 19.2213L41.642 18.5359C42.3274 18.2274 43.0129 17.9532 43.6641 17.6447C45.0693 17.0278 46.543 16.6166 48.0511 16.4452C49.1478 16.3424 50.2788 16.2395 51.307 16.171H51.3756C51.9239 16.1367 52.4723 16.1025 53.055 16.0339H53.2606L53.3634 16.4452C53.432 16.7194 53.5348 17.0278 53.6376 17.2677C54.1517 18.433 55.1113 19.3584 56.3109 19.804C57.2363 20.1467 58.2302 20.2838 59.2241 20.2152H59.2584C59.327 20.2152 59.4298 20.2152 59.4983 20.2495L59.704 20.3523L59.6697 20.4551C59.6697 20.4894 59.6697 20.5237 59.704 20.5237C60.1838 22.2716 60.3551 24.0538 60.2523 25.8703C59.9781 30.7714 57.9217 35.0555 54.1174 38.6542C53.7061 39.0312 53.2949 39.4082 52.8836 39.751L52.4723 40.0937L52.3009 40.2308L51.9582 40.2993ZM36.7409 26.2473C36.9808 27.2755 37.2893 28.2694 37.7348 29.2291C38.5574 31.0456 39.6541 32.6907 41.0251 34.1302C43.7669 37.0434 47.3999 38.9284 51.7526 39.751C51.8211 39.751 51.8897 39.7852 51.9582 39.7852L52.061 39.7167L52.4723 39.374C52.8836 39.0312 53.2949 38.6885 53.7061 38.3115C57.4076 34.8156 59.3955 30.6343 59.6697 25.8703C59.7725 24.1567 59.6011 22.4087 59.1556 20.7636C58.9499 20.7636 58.7786 20.7636 58.6072 20.7636C57.7504 20.7636 56.8936 20.6265 56.071 20.3181C54.7686 19.804 53.7061 18.81 53.1235 17.5077C52.9864 17.1992 52.8836 16.925 52.815 16.5823C52.3352 16.6166 51.8554 16.6508 51.3756 16.6851H51.3413C50.3131 16.7536 49.1821 16.8565 48.1196 16.9593C46.6459 17.1306 45.2407 17.5419 43.8697 18.1246C43.1843 18.3988 42.5331 18.7072 41.8819 18.9814L40.4424 19.5983C40.7166 20.5922 40.6823 21.6547 40.3053 22.6486C39.8255 24.0196 38.9001 25.0478 37.4264 25.8703C37.1865 26.0074 36.9465 26.1445 36.7409 26.2473Z" fill="white"/>
<path d="M57.8875 82.1469L66.353 80.0562C66.9356 79.9191 67.5183 80.2619 67.6554 80.8445L68.6493 84.8545C68.7864 85.4371 68.4436 86.0198 67.861 86.1569L59.3955 88.2475C58.8129 88.3846 58.2302 88.0419 58.0931 87.4593L57.0992 83.4493C56.9621 82.9009 57.3391 82.3183 57.8875 82.1469Z" fill="white"/>
<path d="M59.1555 88.556C58.5386 88.556 57.9902 88.1447 57.8531 87.5278L56.8592 83.5178C56.6878 82.7981 57.1334 82.0784 57.8188 81.907L66.2843 79.8163C67.004 79.645 67.7238 80.0905 67.8951 80.776L68.8891 84.7859C69.0604 85.5057 68.6491 86.2254 67.9294 86.3968L59.4639 88.4874C59.3611 88.5217 59.2583 88.556 59.1555 88.556ZM66.627 80.2962C66.5585 80.2962 66.4899 80.2961 66.4214 80.3304L57.9559 82.4211C57.7503 82.4554 57.5789 82.5925 57.4418 82.7981C57.339 82.9695 57.3047 83.2094 57.339 83.415L58.3329 87.425C58.4357 87.8705 58.8813 88.1447 59.3268 88.0419L67.7923 85.9512C68.2379 85.8484 68.5121 85.4029 68.4092 84.9573L67.4153 80.9473C67.3468 80.5703 67.004 80.2962 66.627 80.2962Z" fill="#D1D3D4"/>
<path d="M44.9664 65.1817L70.1915 58.9782C71.4254 58.6698 72.6935 59.4238 73.0019 60.6919L74.0644 65.0103C74.3728 66.2442 73.6188 67.5123 72.3507 67.8207L47.1257 74.0242C45.8918 74.3326 44.6237 73.5786 44.3153 72.3105L43.2528 67.9921C42.9443 66.7582 43.6983 65.4901 44.9664 65.1817Z" fill="white"/>
<path d="M67.9577 40.2797L38.2061 47.6027L39.5249 52.9607L69.2765 45.6376L67.9577 40.2797Z" fill="white"/>
<path d="M42.2932 50.547C42.8042 50.547 43.2186 50.1327 43.2186 49.6216C43.2186 49.1106 42.8042 48.6963 42.2932 48.6963C41.7821 48.6963 41.3678 49.1106 41.3678 49.6216C41.3678 50.1327 41.7821 50.547 42.2932 50.547Z" fill="#14532D"/>
<path d="M45.6519 49.6902C46.163 49.6902 46.5773 49.2759 46.5773 48.7648C46.5773 48.2538 46.163 47.8394 45.6519 47.8394C45.1409 47.8394 44.7266 48.2538 44.7266 48.7648C44.7266 49.2759 45.1409 49.6902 45.6519 49.6902Z" fill="#14532D"/>
<path d="M49.0793 48.8676C49.5904 48.8676 50.0047 48.4533 50.0047 47.9423C50.0047 47.4312 49.5904 47.0169 49.0793 47.0169C48.5682 47.0169 48.1539 47.4312 48.1539 47.9423C48.1539 48.4533 48.5682 48.8676 49.0793 48.8676Z" fill="#14532D"/>
<path d="M52.4381 48.0451C52.9491 48.0451 53.3634 47.6308 53.3634 47.1197C53.3634 46.6086 52.9491 46.1943 52.4381 46.1943C51.927 46.1943 51.5127 46.6086 51.5127 47.1197C51.5127 47.6308 51.927 48.0451 52.4381 48.0451Z" fill="#14532D"/>
<path d="M70.0814 48.9898L40.3297 56.3128L41.6485 61.6708L71.4002 54.3478L70.0814 48.9898Z" fill="white"/>
<path d="M44.4181 59.2524C44.9291 59.2524 45.3434 58.8381 45.3434 58.327C45.3434 57.816 44.9291 57.4017 44.4181 57.4017C43.907 57.4017 43.4927 57.816 43.4927 58.327C43.4927 58.8381 43.907 59.2524 44.4181 59.2524Z" fill="#14532D"/>
<path d="M47.8111 58.4299C48.3222 58.4299 48.7365 58.0155 48.7365 57.5045C48.7365 56.9934 48.3222 56.5791 47.8111 56.5791C47.3 56.5791 46.8857 56.9934 46.8857 57.5045C46.8857 58.0155 47.3 58.4299 47.8111 58.4299Z" fill="#14532D"/>
<path d="M51.2042 57.573C51.7153 57.573 52.1296 57.1587 52.1296 56.6476C52.1296 56.1366 51.7153 55.7223 51.2042 55.7223C50.6931 55.7223 50.2788 56.1366 50.2788 56.6476C50.2788 57.1587 50.6931 57.573 51.2042 57.573Z" fill="#14532D"/>
<path d="M54.5971 56.7505C55.1082 56.7505 55.5225 56.3362 55.5225 55.8251C55.5225 55.314 55.1082 54.8997 54.5971 54.8997C54.0861 54.8997 53.6718 55.314 53.6718 55.8251C53.6718 56.3362 54.0861 56.7505 54.5971 56.7505Z" fill="#14532D"/>
<path d="M55.0688 23.89L41.8236 27.1501L43.9042 35.603L57.1494 32.3429L55.0688 23.89Z" fill="white"/>
<path d="M44.8979 26.6586C44.795 26.6586 44.6922 26.59 44.658 26.453L44.1781 24.4994C43.664 22.4087 44.9321 20.2838 47.0228 19.7697C49.1135 19.2556 51.2384 20.5237 51.7525 22.6144L52.2323 24.5679C52.2666 24.705 52.1981 24.8421 52.0267 24.8764C51.8553 24.9107 51.7525 24.8421 51.7182 24.6707L51.2384 22.7172C50.7929 20.9007 48.9421 19.7697 47.1256 20.2495C45.3091 20.6951 44.1781 22.5115 44.6237 24.328C44.6237 24.328 44.6237 24.328 44.6237 24.3623L45.1035 26.3159C45.1378 26.453 45.0692 26.59 44.9321 26.6243L44.8979 26.6586Z" fill="white"/>
<path d="M49.1821 29.7775C49.9203 29.7775 50.5188 29.179 50.5188 28.4408C50.5188 27.7026 49.9203 27.1041 49.1821 27.1041C48.4439 27.1041 47.8455 27.7026 47.8455 28.4408C47.8455 29.179 48.4439 29.7775 49.1821 29.7775Z" fill="#14532D"/>
<path d="M49.9703 31.8681C49.8675 31.8681 49.7647 31.7996 49.7304 31.6625L49.0106 28.715C48.9764 28.5779 49.0449 28.4408 49.2163 28.4065C49.3877 28.3723 49.4905 28.4408 49.5247 28.6122L50.2445 31.5597C50.2788 31.6968 50.2102 31.8339 50.0388 31.8681H49.9703Z" fill="#14532D"/>
<path d="M37.0836 10.8586C36.9465 10.8586 36.8094 10.7558 36.8094 10.6187C36.8094 10.4816 36.878 10.3788 37.0151 10.3788L48.3595 7.60269C48.4966 7.56842 48.6337 7.63696 48.668 7.80833C48.7022 7.94542 48.6337 8.08252 48.4623 8.11679L37.1179 10.9272C37.1179 10.8586 37.1179 10.8586 37.0836 10.8586Z" fill="#D1D3D4"/>
<path d="M49.422 7.80833C49.2849 7.80833 49.1478 7.70551 49.1478 7.56842C49.1478 7.43133 49.2164 7.32851 49.3535 7.32851L51.3413 6.84868C51.4784 6.81441 51.6155 6.88296 51.684 7.02005C51.7183 7.15714 51.6498 7.29424 51.5127 7.36278H51.4784L49.4906 7.84261L49.422 7.80833Z" fill="#D1D3D4"/>
<path d="M21.2494 92.4632C21.2494 92.4632 25.5335 56.6819 29.7491 52.7748C34.7188 48.1136 39.2771 44.9605 40.0997 47.6338C40.9222 50.3071 41.7105 54.7284 34.8901 59.698L35.884 68.5747C35.884 68.5747 42.6016 73.2016 39.1057 87.802" fill="white"/>
<path d="M21.2494 92.7373C21.078 92.7373 20.9752 92.6003 20.9752 92.4632C21.1466 90.9894 25.3279 56.5448 29.5092 52.6377C34.3418 48.1479 37.5977 46.0915 39.2428 46.5028C39.7569 46.6399 40.1682 47.0512 40.3053 47.5995C40.9222 49.3132 40.9908 51.1639 40.5795 52.9119C39.9283 55.3453 38.1118 57.6759 35.1301 59.8693L36.0897 68.4719C36.9465 69.1231 42.6016 74.0927 39.3114 87.9048C39.2771 88.0419 39.14 88.1447 39.0029 88.1105C38.8658 88.0762 38.763 87.9391 38.7973 87.802C40.5795 80.3304 39.6198 75.6007 38.5231 72.8932C37.3235 70.0142 35.7127 68.8489 35.6784 68.8146L35.5756 68.7461V68.6433L34.5474 59.6294L34.6845 59.5266C41.025 54.8997 40.7509 50.7869 39.7912 47.7366C39.7227 47.3939 39.4485 47.0854 39.1057 46.9826C37.7005 46.6056 34.4103 48.7305 29.8863 52.9804C25.8077 56.7847 21.5579 92.1547 21.4893 92.4974C21.5236 92.6345 21.3865 92.7373 21.2494 92.7373Z" fill="#231F20"/>
<path d="M126.023 109.36C126.023 109.36 113.273 84.2719 103.676 72.9617C102.374 71.4194 100.695 71.1452 99.5294 71.9678C98.1242 72.9274 98.0899 76.0806 98.0899 76.0806C98.0899 76.0806 94.4569 73.9556 92.709 74.4012C90.9611 74.8467 90.7554 77.6229 90.7554 77.6229C90.7554 77.6229 86.8483 76.3548 85.2717 77.7257C83.6951 79.0966 83.558 81.5985 83.558 81.5985C83.558 81.5985 63.0627 65.1131 60.8006 63.7079C58.5386 62.3027 54.4944 64.8047 56.4822 67.7179C57.716 69.5344 68.1008 79.8506 71.4253 83.1408C74.7498 86.4311 82.5641 95.3078 83.4552 97.9469C84.3463 100.586 85.0661 103.568 79.7537 103.91C74.4414 104.253 69.6774 105.213 67.3468 107.201C65.0162 109.188 63.4739 112.17 64.6392 112.753C65.8045 113.336 84.6205 111.176 91.7493 114.09C98.8782 117.003 108.2 127.662 108.2 127.662L126.023 109.36Z" fill="white"/>
<path d="M108.2 128.039L108.029 127.833C107.926 127.73 98.6725 117.208 91.6807 114.329C86.7797 112.342 76.2235 112.753 69.883 112.993C66.4556 113.13 64.9476 113.164 64.5363 112.993C64.2279 112.821 64.0222 112.547 63.988 112.17C63.8509 110.936 65.2561 108.606 67.1754 106.995C69.3003 105.213 73.5159 104.082 79.7194 103.67C81.6387 103.533 82.8382 103.054 83.4209 102.231C84.1406 101.169 83.6951 99.5577 83.2152 98.0497C82.3584 95.5135 74.7498 86.7738 71.2539 83.3465C67.6895 79.8506 57.5103 69.7057 56.2765 67.8893C55.4197 66.6554 55.5225 65.3188 56.4821 64.2906C57.4418 63.2624 59.4982 62.6455 60.9377 63.5366C63.0283 64.8389 80.4734 78.8224 83.3523 81.1187C83.4552 80.2962 83.7979 78.5825 85.066 77.52C86.5055 76.2862 89.5558 77.0059 90.5154 77.2801C90.6183 76.4918 91.0638 74.5382 92.6061 74.1612C94.1484 73.7842 96.856 75.1209 97.8156 75.6693C97.8842 74.7439 98.1584 72.5847 99.3579 71.7621C100.729 70.8367 102.545 71.248 103.848 72.8246C113.376 84.0319 126.091 109.017 126.228 109.257L126.297 109.428L126.16 109.565L108.2 128.039ZM78.3827 112.273C83.4894 112.273 88.7675 112.582 91.8864 113.85C98.4325 116.523 106.898 125.777 108.235 127.285L125.68 109.326C124.549 107.132 112.519 83.8263 103.436 73.1673C102.305 71.8307 100.763 71.4537 99.5978 72.2077C98.3297 73.0645 98.2612 76.0463 98.2612 76.0805V76.5261L97.8842 76.3205C97.8499 76.2862 94.3198 74.2641 92.6747 74.6753C91.1324 75.0523 90.9267 77.6228 90.9267 77.6571L90.8924 77.9998L90.584 77.897C90.5497 77.897 86.8139 76.6632 85.3402 77.9656C83.8664 79.268 83.7979 81.6671 83.7979 81.6671V82.1812L83.3866 81.8384C83.181 81.6671 62.857 65.353 60.6292 63.9821C59.3954 63.2281 57.6817 63.7422 56.8249 64.6676C56.0023 65.5244 55.968 66.5869 56.6535 67.6151C57.8873 69.3973 68.1693 79.645 71.5624 83.0037C74.6812 86.0883 82.7354 95.1022 83.6608 97.9126C84.2092 99.5577 84.689 101.271 83.8322 102.539C83.181 103.533 81.8443 104.082 79.7194 104.219C73.6187 104.63 69.506 105.727 67.4838 107.441C65.5645 109.051 64.365 111.211 64.4678 112.136C64.4678 112.307 64.5706 112.479 64.7077 112.547C65.0162 112.684 67.3467 112.616 69.8144 112.513C72.2821 112.376 75.2981 112.239 78.3827 112.273Z" fill="#231F20"/>
<path d="M124.172 102.094L98.2614 123.24L111.114 142.228L141 117.414L124.172 102.094Z" fill="#231F20"/>
<path d="M103.471 126.839C103.334 126.839 103.231 126.736 103.231 126.565C103.231 126.496 103.265 126.428 103.334 126.359L126.057 108.949C126.16 108.846 126.331 108.88 126.434 108.983C126.537 109.086 126.502 109.257 126.4 109.36L103.677 126.736C103.608 126.805 103.539 126.839 103.471 126.839Z" fill="white"/>
</svg>
