<svg width="30" height="28" viewBox="0 0 30 28" fill="none" xmlns="http://www.w3.org/2000/svg">
<path d="M4.55012 15.38C4.65105 15.3859 4.72824 15.3147 4.75199 15.2197C4.90043 14.6675 5.35168 14.2875 5.83262 14.2756C6.1948 14.2637 6.5748 14.4656 6.77074 14.7744C6.93699 15.0356 6.93699 15.2969 6.93699 15.4216C6.93699 15.7659 6.80637 16.0272 6.74105 16.14C6.14137 17.1553 5.50605 17.8025 5.04293 18.2003C4.40168 18.7525 3.80199 19.0791 3.38637 19.8806C3.2023 20.2369 3.11324 20.5753 3.06574 20.8484C3.04199 20.9731 3.14293 21.0859 3.26762 21.0859H8.36793C8.48074 21.0859 8.5698 20.9969 8.5698 20.8841V19.9875C8.5698 19.8747 8.4748 19.7797 8.36199 19.7856C7.55449 19.8034 6.74699 19.8212 5.93949 19.8391C5.75543 19.845 5.66043 19.6253 5.79105 19.4947C6.10574 19.18 6.48574 18.7703 6.89543 18.2834C7.87512 17.1256 8.36199 16.5259 8.46293 15.7244C8.4748 15.6353 8.62918 14.2162 7.73855 13.4859C7.4298 13.2306 7.07949 13.1356 6.86574 13.0762C6.17699 12.8862 5.5773 12.9931 5.26855 13.0762C5.26855 13.0762 3.58824 13.2187 3.33293 15.1009C3.31512 15.2197 3.41012 15.3266 3.52887 15.3325L4.55012 15.38Z" fill="#1E3A34"/>
<path d="M14.341 13.0109H10.6538C10.5113 13.0109 10.3866 13.1119 10.3569 13.2544L9.68004 16.7694C9.64442 16.9534 9.78692 17.1316 9.97692 17.1316H10.9566C11.0397 17.1316 11.1169 17.0959 11.1763 17.0366C11.3247 16.8703 11.675 16.5556 12.1857 16.5734C12.6666 16.5912 12.9694 16.8941 13.0288 16.9594C13.3732 17.3216 13.3732 17.7847 13.3791 18.1172C13.3791 18.3844 13.3791 18.7287 13.1535 19.0731C13.0882 19.1681 12.7616 19.6728 12.2154 19.6787C11.8175 19.6847 11.4257 19.4234 11.2179 19.0137C11.1288 18.9544 11.0338 18.8891 10.9447 18.8297L9.98879 18.8119C9.78692 18.8059 9.63848 18.9959 9.69192 19.1859C9.74535 19.3819 9.82848 19.6075 9.96504 19.8331C10.4222 20.605 11.1644 20.89 11.4138 20.9791C11.4257 20.985 11.4375 20.985 11.4494 20.9909C11.6572 21.0384 11.9185 21.08 12.2272 21.0859C12.5241 21.0919 12.7794 21.0562 12.9872 21.0206C13.005 21.0147 13.0229 21.0147 13.0407 21.0028C13.2544 20.9197 13.5572 20.7831 13.866 20.5337C14.5547 19.9756 14.7863 19.2691 14.8575 19.0375C14.9466 18.7466 15.2494 17.66 14.6675 16.5972C14.4716 16.2409 14.2341 15.9916 14.0619 15.8372C14.056 15.8312 14.05 15.8253 14.0441 15.8194C13.8897 15.7006 13.2841 15.2612 12.4766 15.3622C12.0669 15.4097 11.7641 15.5819 11.5919 15.7006L11.7463 14.6437C11.77 14.4953 11.8947 14.3825 12.0432 14.3825H14.2341C14.3825 14.3825 14.5072 14.2756 14.531 14.1272L14.6557 13.3672C14.6675 13.1772 14.531 13.0109 14.341 13.0109Z" fill="#1E3A34"/>
<path d="M28.5673 2.6975H22.8138V1.23094C22.8138 0.779685 22.4457 0.41156 21.9944 0.41156H20.5813C20.1301 0.41156 19.7619 0.779685 19.7619 1.23094V2.6975H16.5082V1.24281C16.5082 0.79156 16.1401 0.423435 15.6888 0.423435H14.2757C13.8244 0.423435 13.4563 0.79156 13.4563 1.24281V2.6975H9.94132V1.24281C9.94132 0.79156 9.57319 0.423435 9.12194 0.423435H7.70882C7.25757 0.423435 6.88944 0.79156 6.88944 1.24281V2.6975H1.43288C0.714443 2.6975 0.132568 3.27937 0.132568 3.99781V26.0081C0.132568 26.7266 0.714443 27.3084 1.43288 27.3084H28.5732C29.2916 27.3084 29.8735 26.7266 29.8735 26.0081V3.99781C29.8676 3.27937 29.2857 2.6975 28.5673 2.6975ZM20.3676 1.23094C20.3676 1.10625 20.4685 1.00531 20.5932 1.00531H22.0063C22.131 1.00531 22.2319 1.10625 22.2319 1.23094V4.98937C22.2319 5.11406 22.131 5.215 22.0063 5.215H20.5932C20.4685 5.215 20.3676 5.11406 20.3676 4.98937V1.23094ZM14.0738 1.24281C14.0738 1.11812 14.1748 1.01719 14.2994 1.01719H15.7126C15.8373 1.01719 15.9382 1.11812 15.9382 1.24281V5.00125C15.9382 5.12594 15.8373 5.22687 15.7126 5.22687H14.2994C14.1748 5.22687 14.0738 5.12594 14.0738 5.00125V1.24281ZM7.51288 1.24281C7.51288 1.11812 7.61382 1.01719 7.73851 1.01719H9.15163C9.27632 1.01719 9.37726 1.11812 9.37726 1.24281V5.00125C9.37726 5.12594 9.27632 5.22687 9.15163 5.22687H7.73851C7.61382 5.22687 7.51288 5.12594 7.51288 5.00125V1.24281ZM1.43288 3.29125H6.92507V5.00718C6.92507 5.45844 7.29319 5.82656 7.74444 5.82656H9.15757C9.60882 5.82656 9.97694 5.45844 9.97694 5.00718V3.29125H13.4919V5.00718C13.4919 5.45844 13.8601 5.82656 14.3113 5.82656H15.7244C16.1757 5.82656 16.5438 5.45844 16.5438 5.00718V3.29125H19.7976V4.98937C19.7976 5.44062 20.1657 5.80875 20.6169 5.80875H22.0301C22.4813 5.80875 22.8494 5.44062 22.8494 4.98937V3.29125H28.6029C28.9948 3.29125 29.3094 3.60594 29.3094 3.99781V8.22531H0.726318V3.99781C0.726318 3.60594 1.04101 3.29125 1.43288 3.29125ZM28.5673 26.7087H1.43288C1.04101 26.7087 0.726318 26.3941 0.726318 26.0022V8.81312H29.2738V26.0022C29.2738 26.3941 28.9591 26.7087 28.5673 26.7087Z" fill="#1E3A34"/>
<path d="M25.7325 18.3854C25.8175 18.1829 25.5746 18.0104 25.3708 18.1004C24.9635 18.279 24.5235 18.3709 24.0788 18.3704C22.335 18.3704 20.9217 16.9854 20.9217 15.2767C20.9215 14.6998 21.0854 14.1348 21.3942 13.6475C21.5125 13.4608 21.3704 13.2025 21.1537 13.2575C19.4833 13.6837 18.25 15.1721 18.25 16.9425C18.25 19.0454 19.9896 20.75 22.1358 20.75C23.7608 20.75 25.1525 19.7729 25.7325 18.3854Z" fill="#1E3A34"/>
<path d="M23.5046 13.2929C23.2838 13.1454 23.0204 13.4088 23.1675 13.6296L23.43 14.0233C23.5366 14.183 23.5935 14.3706 23.5935 14.5625C23.5935 14.7544 23.5366 14.9421 23.43 15.1017L23.1675 15.4954C23.0204 15.7163 23.2842 15.9796 23.505 15.8321L23.8983 15.5696C24.0579 15.463 24.2456 15.4061 24.4375 15.4061C24.6294 15.4061 24.8171 15.463 24.9767 15.5696L25.3704 15.8321C25.5913 15.9796 25.8546 15.7163 25.7071 15.4954L25.4446 15.1017C25.338 14.9421 25.2811 14.7544 25.2811 14.5625C25.2811 14.3706 25.338 14.183 25.4446 14.0233L25.7071 13.6296C25.8546 13.4088 25.5913 13.1454 25.37 13.2929L24.9767 13.5554C24.8171 13.662 24.6294 13.7189 24.4375 13.7189C24.2456 13.7189 24.0579 13.662 23.8983 13.5554L23.5046 13.2929Z" fill="#1E3A34"/>
</svg>
