<svg width="24" height="24" viewBox="0 0 24 24" fill="none" xmlns="http://www.w3.org/2000/svg">
<path d="M9.00302 12.0143L3.5779 10.464C3.38027 10.4093 3.1714 10.5221 3.1144 10.722C3.05777 10.9208 3.1729 11.1285 3.3724 11.1855L8.79752 12.7358C8.83164 12.7451 8.86614 12.75 8.90027 12.75C9.06339 12.75 9.2134 12.6428 9.26064 12.4778C9.31765 12.279 9.20214 12.0713 9.00302 12.0143Z" fill="#1E3A34"/>
<path d="M9.00302 14.6393L3.5779 13.0894C3.38027 13.0346 3.1714 13.1475 3.1144 13.3474C3.05777 13.5465 3.1729 13.7539 3.3724 13.8109L8.79752 15.3608C8.83164 15.3701 8.86614 15.375 8.90027 15.375C9.06339 15.375 9.2134 15.2678 9.26064 15.1028C9.31765 14.9036 9.20214 14.6963 9.00302 14.6393Z" fill="#1E3A34"/>
<path d="M9.00302 9.38925L3.5779 7.839C3.38027 7.78425 3.1714 7.89712 3.1144 8.097C3.05777 8.29575 3.1729 8.5035 3.3724 8.5605L8.79752 10.1107C8.83164 10.1201 8.86614 10.125 8.90027 10.125C9.06339 10.125 9.2134 10.0177 9.26064 9.85275C9.31765 9.654 9.20214 9.44625 9.00302 9.38925Z" fill="#1E3A34"/>
<path d="M9.00302 6.76426L3.5779 5.21401C3.38027 5.15926 3.1714 5.27214 3.1144 5.47201C3.05777 5.67076 3.1729 5.87851 3.3724 5.93551L8.79752 7.48576C8.83164 7.49514 8.86614 7.50001 8.90027 7.50001C9.06339 7.50001 9.2134 7.39276 9.26064 7.22776C9.31765 7.02901 9.20214 6.82126 9.00302 6.76426Z" fill="#1E3A34"/>
<path d="M14.9861 12.7357C15.0206 12.7357 15.0551 12.7309 15.0892 12.7215L20.5144 11.1712C20.7135 11.1142 20.829 10.9065 20.7724 10.7077C20.7154 10.5082 20.5069 10.3957 20.3089 10.4497L14.8834 12C14.6842 12.057 14.5687 12.2647 14.6254 12.4635C14.673 12.6285 14.823 12.7357 14.9861 12.7357Z" fill="#1E3A34"/>
<path d="M20.4221 13.0894L14.997 14.6393C14.7979 14.6963 14.6824 14.9036 14.739 15.1028C14.7866 15.2678 14.9366 15.375 15.0998 15.375C15.1343 15.375 15.1688 15.3701 15.2029 15.3608L20.628 13.8109C20.8271 13.7539 20.9426 13.5465 20.886 13.3474C20.8286 13.1479 20.6201 13.0354 20.4221 13.0894Z" fill="#1E3A34"/>
<path d="M20.4221 7.839L14.997 9.38925C14.7979 9.44625 14.6824 9.654 14.739 9.85275C14.7866 10.0177 14.9366 10.125 15.0998 10.125C15.1343 10.125 15.1688 10.1201 15.2029 10.1107L20.628 8.5605C20.8271 8.5035 20.9426 8.29575 20.886 8.097C20.8286 7.8975 20.6201 7.78425 20.4221 7.839Z" fill="#1E3A34"/>
<path d="M20.4221 5.21401L14.997 6.76426C14.7979 6.82126 14.6824 7.02901 14.739 7.22776C14.7866 7.39276 14.9366 7.50001 15.0998 7.50001C15.1343 7.50001 15.1688 7.49514 15.2029 7.48576L20.628 5.93551C20.8271 5.87851 20.9426 5.67076 20.886 5.47201C20.8286 5.27251 20.6201 5.16001 20.4221 5.21401Z" fill="#1E3A34"/>
<path d="M23.7071 0.155501C23.5744 0.0538756 23.4131 0.00062561 23.2493 0.00062561C23.1847 0.00062561 23.1199 0.00887561 23.0565 0.0253756L12 2.974L0.9435 0.0253756C0.87975 0.00850061 0.814875 0.00062561 0.750375 0.00062561C0.5865 0.00062561 0.425625 0.0538756 0.292875 0.155501C0.108375 0.297626 0 0.517376 0 0.75025V19.4999C0 19.8396 0.228375 20.137 0.5565 20.2247L10.2589 22.8119C10.5334 23.5071 11.2076 24.0002 12 24.0002C12.7924 24.0002 13.4666 23.5071 13.7411 22.8119L23.4435 20.2247C23.7716 20.137 24 19.8396 24 19.4999V0.75025C24 0.517376 23.8916 0.297626 23.7071 0.155501ZM12 20.2502C12.0649 20.2502 12.1301 20.242 12.1935 20.2251L23.25 17.2765V18.0092L12 20.9871L0.75 18.0092V17.2765L11.8065 20.2247C11.8699 20.242 11.9351 20.2502 12 20.2502ZM0.74925 0.750625C0.74925 0.750625 0.749625 0.750625 0.750375 0.750625L11.625 3.65012V19.4001L0.75 16.5002L0.74925 0.750625ZM13.1171 22.2021C13.0875 22.6307 12.8228 22.9937 12.4466 23.1569L12.1931 23.2247C12.1297 23.2416 12.0645 23.2499 11.9996 23.2499C11.9348 23.2499 11.8695 23.2416 11.8061 23.2247L11.5526 23.1569C11.1765 22.9937 10.9117 22.6307 10.8821 22.2021L0.75 19.4999V18.7851L11.904 21.7379C11.9355 21.7461 11.9677 21.7502 12 21.7502C12.0323 21.7502 12.0645 21.7461 12.096 21.7379L23.25 18.7851V19.4999L13.1171 22.2021ZM12.375 19.4001V3.65012L23.25 0.75025V16.5002L12.375 19.4001Z" fill="#1E3A34"/>
</svg>
