<svg width="28" height="28" viewBox="0 0 28 28" fill="none" xmlns="http://www.w3.org/2000/svg">
<path d="M3.49996 6.6213V3.49999C3.49996 2.85566 2.97762 2.33332 2.33329 2.33332C1.68897 2.33332 1.16663 2.85566 1.16663 3.49999V8.16665C1.16663 9.45532 2.21129 10.5 3.49996 10.5H8.16663C8.81097 10.5 9.33329 9.97766 9.33329 9.33332C9.33329 8.68899 8.81097 8.16665 8.16663 8.16665H5.27546C5.29917 8.13755 5.32179 8.10732 5.34323 8.07599C6.55779 6.30108 8.29506 4.93395 10.3272 4.17436C12.7253 3.27795 15.3685 3.28952 17.7586 4.20687C20.1488 5.12422 22.1209 6.88403 23.3035 9.1547C24.4861 11.4254 24.7973 14.0502 24.1788 16.5345C23.5602 19.0188 22.0545 21.1911 19.9452 22.6421C17.836 24.0932 15.2688 24.7227 12.7276 24.4121C10.1863 24.1017 7.84639 22.8725 6.14862 20.9562C4.70994 19.3324 3.81658 17.3103 3.57611 15.1731C3.50407 14.5327 2.98282 14.0092 2.3385 14.0098C1.69416 14.0103 1.16157 14.5342 1.2206 15.1758C1.46989 17.886 2.57619 20.4582 4.3944 22.5104C6.47149 24.8548 9.33427 26.3586 12.4433 26.7386C15.5523 27.1185 18.693 26.3482 21.2735 24.573C23.8541 22.7978 25.6963 20.1402 26.4531 17.1008C27.2099 14.0614 26.829 10.8501 25.3822 8.07212C23.9354 5.29411 21.5226 3.14111 18.5984 2.0188C15.6742 0.896478 12.4405 0.882328 9.50658 1.97902C7.07068 2.88954 4.98108 4.5136 3.49996 6.6213Z" fill="#1E3A34"/>
<path d="M14 5.83334C13.3557 5.83334 12.8334 6.35567 12.8334 7.00001V14.5445C12.8334 14.5445 12.8334 14.8486 12.9812 15.0774C13.0801 15.2714 13.2344 15.4401 13.437 15.557L18.8268 18.6689C19.3848 18.991 20.0983 18.7998 20.4204 18.2418C20.7426 17.6838 20.5515 16.9703 19.9934 16.6481L15.1667 13.8614V7.00001C15.1667 6.35568 14.6444 5.83334 14 5.83334Z" fill="#1E3A34"/>
</svg>
