<svg width="117" height="65" viewBox="0 0 117 65" fill="none" xmlns="http://www.w3.org/2000/svg">
<path d="M88.5046 35.7074H89.5254V28.8911H88.5046V35.7074Z" fill="#14532D"/>
<path d="M85.1564 36.4976H86.1771V31.2881H85.1564V36.4976Z" fill="#14532D"/>
<path d="M81.1503 60.6791H89.5254V35.4505H81.1503V60.6791Z" fill="#14532D"/>
<path opacity="0.26" d="M81.1503 60.6791H89.5254V35.4505H81.1503V60.6791Z" fill="white"/>
<path d="M70.575 60.6791H81.1478V35.4505H70.575V60.6791Z" fill="#14532D"/>
<path opacity="0.05" d="M75.3738 39.8218C75.4987 39.6729 75.6812 39.5864 75.8758 39.5864H76.2577C76.4522 39.5864 76.6348 39.6729 76.7597 39.8218L79.1567 42.6967V48.5764H72.9768V42.6967L75.3738 39.8218Z" fill="#000001"/>
<path opacity="0.05" d="M75.3738 51.1079C75.4987 50.959 75.6812 50.8725 75.8758 50.8725H76.2577C76.4522 50.8725 76.6348 50.959 76.7597 51.1079L79.1567 53.9829V59.8625H72.9768V53.9829L75.3738 51.1079Z" fill="#000001"/>
<path opacity="0.05" d="M84.9763 39.8218C85.0627 39.6729 85.1924 39.5864 85.3293 39.5864H85.5983C85.7353 39.5864 85.865 39.6729 85.9514 39.8218L87.6351 42.6967V48.5764H83.2926V42.6967L84.9763 39.8218Z" fill="#000001"/>
<path opacity="0.05" d="M84.9763 51.1079C85.0627 50.959 85.1924 50.8725 85.3293 50.8725H85.5983C85.7353 50.8725 85.865 50.959 85.9514 51.1079L87.6351 53.9829V59.8625H83.2926V53.9829L84.9763 51.1079Z" fill="#000001"/>
<path d="M73.181 28.8911V35.4504H82.6322V28.8911C82.6322 26.2803 79.7452 23.6023 77.9078 23.6023C76.068 23.6023 73.181 26.2803 73.181 28.8911Z" fill="#14532D"/>
<path d="M77.7156 24.3853H78.0975V21.2869H77.7156V24.3853Z" fill="#14532D"/>
<path d="M72.9792 30.5147H83.0332V29.5276H72.9792V30.5147Z" fill="#14532D"/>
<path opacity="0.26" d="M72.9792 30.5147H83.0332V29.5276H72.9792V30.5147Z" fill="white"/>
<path opacity="0.05" d="M79.0967 35.4505H76.7141V32.4698C76.7141 31.9918 77.1032 31.6027 77.5812 31.6027H78.2321C78.71 31.6027 79.0991 31.9918 79.0991 32.4698V35.4505H79.0967Z" fill="#000001"/>
<path opacity="0.05" d="M81.436 32.794V35.4504H82.6297V31.6051C82.3007 31.6051 82.0029 31.7396 81.7843 31.9534C81.5705 32.1672 81.436 32.465 81.436 32.794Z" fill="#000001"/>
<path opacity="0.05" d="M73.181 31.6051V35.4504H74.3747V32.794C74.3747 32.1383 73.8415 31.6051 73.181 31.6051Z" fill="#000001"/>
<path d="M27.6906 28.8887H26.6698V35.705H27.6906V28.8887Z" fill="#14532D"/>
<path d="M31.0363 31.2905H30.0155V36.5H31.0363V31.2905Z" fill="#14532D"/>
<path d="M35.0449 35.4529H26.6698V60.6815H35.0449V35.4529Z" fill="#14532D"/>
<path opacity="0.26" d="M35.0449 35.4529H26.6698V60.6815H35.0449V35.4529Z" fill="white"/>
<path d="M45.6202 35.4529H35.0474V60.6815H45.6202V35.4529Z" fill="#14532D"/>
<path opacity="0.05" d="M40.8213 39.8218C40.6964 39.6729 40.5139 39.5864 40.3193 39.5864H39.9374C39.7429 39.5864 39.5604 39.6729 39.4355 39.8218L37.0385 42.6967V48.5764H43.2183V42.6967L40.8213 39.8218Z" fill="#000001"/>
<path opacity="0.05" d="M40.8213 51.1079C40.6964 50.959 40.5139 50.8725 40.3193 50.8725H39.9374C39.7429 50.8725 39.5604 50.959 39.4355 51.1079L37.0385 53.9829V59.8625H43.2183V53.9829L40.8213 51.1079Z" fill="#000001"/>
<path opacity="0.05" d="M31.2187 39.8218C31.1323 39.6729 31.0026 39.5864 30.8657 39.5864H30.5967C30.4598 39.5864 30.3301 39.6729 30.2436 39.8218L28.5599 42.6967V48.5764H32.9024V42.6967L31.2187 39.8218Z" fill="#000001"/>
<path opacity="0.05" d="M31.2187 51.1079C31.1323 50.959 31.0026 50.8725 30.8657 50.8725H30.5967C30.4598 50.8725 30.3301 50.959 30.2436 51.1079L28.5599 53.9829V59.8625H32.9024V53.9829L31.2187 51.1079Z" fill="#000001"/>
<path d="M43.0141 28.8911V35.4504H33.563V28.8911C33.563 26.2803 36.45 23.6023 38.2874 23.6023C40.1248 23.6023 43.0141 26.2803 43.0141 28.8911Z" fill="#14532D"/>
<path d="M38.4795 21.2893H38.0977V24.3877H38.4795V21.2893Z" fill="#14532D"/>
<path d="M43.2159 29.5276H33.1619V30.5147H43.2159V29.5276Z" fill="#14532D"/>
<path opacity="0.26" d="M43.2159 29.5276H33.1619V30.5147H43.2159V29.5276Z" fill="white"/>
<path opacity="0.05" d="M37.9632 31.6051H38.6141C39.092 31.6051 39.4811 31.9942 39.4811 32.4722V35.4528H37.0985V32.4722C37.0985 31.9942 37.4876 31.6051 37.9656 31.6051H37.9632Z" fill="#000001"/>
<path opacity="0.05" d="M34.759 32.794V35.4504H33.5653V31.6051C33.8944 31.6051 34.1922 31.7396 34.4107 31.9534C34.6245 32.1672 34.759 32.465 34.759 32.794Z" fill="#000001"/>
<path opacity="0.05" d="M43.0141 31.6051V35.4504H41.8204V32.794C41.8204 32.1383 42.3536 31.6051 43.0141 31.6051Z" fill="#000001"/>
<path d="M70.575 27.1113H45.6201V60.6815H70.575V27.1113Z" fill="#14532D"/>
<path d="M71.2067 24.3877H44.9908V27.1113H71.2067V24.3877Z" fill="#14532D"/>
<path opacity="0.26" d="M71.2067 24.3877H44.9908V27.1113H71.2067V24.3877Z" fill="white"/>
<path opacity="0.26" d="M49.1219 60.6791V33.8941H67.0731V60.6791" stroke="white" stroke-miterlimit="10"/>
<path opacity="0.26" d="M47.3757 60.6791V31.6051H68.8192V60.6791" stroke="white" stroke-miterlimit="10"/>
<path opacity="0.2" d="M58.0976 38.1069C60.3192 38.1069 65.7834 43.8208 65.7834 48.0648V60.6791H50.4117V48.0648C50.4117 43.8208 55.8759 38.1069 58.0976 38.1069Z" fill="#000001"/>
<path d="M57.7998 8.58852C61.2968 8.58852 69.9794 14.0406 69.9794 20.7681V24.3877H45.6226V20.7681C45.6226 14.043 54.3051 8.58852 57.8022 8.58852H57.7998Z" fill="#14532D"/>
<path d="M57.6917 0.520821H57.9055C58.064 0.520821 58.1913 0.648117 58.1913 0.806637V10.5316H57.4059V0.806637C57.4059 0.648117 57.5332 0.520821 57.6917 0.520821Z" fill="#14532D"/>
<path d="M58.0135 2.56236H57.586C57.2716 2.56236 57.0167 2.81721 57.0167 3.13159V6.96489C57.0167 7.27927 57.2716 7.53412 57.586 7.53412H58.0135C58.3279 7.53412 58.5827 7.27927 58.5827 6.96489V3.13159C58.5827 2.81721 58.3279 2.56236 58.0135 2.56236Z" fill="#14532D"/>
<path d="M58.2537 1.27019H57.3434C57.2001 1.27019 57.084 1.38632 57.084 1.52958V1.72653C57.084 1.8698 57.2001 1.98593 57.3434 1.98593H58.2537C58.3969 1.98593 58.5131 1.8698 58.5131 1.72653V1.52958C58.5131 1.38632 58.3969 1.27019 58.2537 1.27019Z" fill="#14532D"/>
<path d="M21.8469 60.6791H17.5068L17.9392 35.4505H21.4122L21.8469 60.6791Z" fill="#14532D"/>
<path d="M21.5995 34.6963H17.7542C17.6029 34.6963 17.4803 34.8189 17.4803 34.9701V35.1791C17.4803 35.3303 17.6029 35.4529 17.7542 35.4529H21.5995C21.7507 35.4529 21.8733 35.3303 21.8733 35.1791V34.9701C21.8733 34.8189 21.7507 34.6963 21.5995 34.6963Z" fill="#14532D"/>
<path d="M22.0127 44.7455H17.3387C17.1875 44.7455 17.0649 44.868 17.0649 45.0193V45.2282C17.0649 45.3794 17.1875 45.502 17.3387 45.502H22.0127C22.1639 45.502 22.2865 45.3794 22.2865 45.2282V45.0193C22.2865 44.868 22.1639 44.7455 22.0127 44.7455Z" fill="#14532D"/>
<path d="M22.0127 51.8717H17.3387C17.1875 51.8717 17.0649 51.9943 17.0649 52.1455V52.3544C17.0649 52.5057 17.1875 52.6282 17.3387 52.6282H22.0127C22.1639 52.6282 22.2865 52.5057 22.2865 52.3544V52.1455C22.2865 51.9943 22.1639 51.8717 22.0127 51.8717Z" fill="#14532D"/>
<path opacity="0.26" d="M21.5995 34.6963H17.7542C17.6029 34.6963 17.4803 34.8189 17.4803 34.9701V35.1791C17.4803 35.3303 17.6029 35.4529 17.7542 35.4529H21.5995C21.7507 35.4529 21.8733 35.3303 21.8733 35.1791V34.9701C21.8733 34.8189 21.7507 34.6963 21.5995 34.6963Z" fill="white"/>
<path opacity="0.26" d="M22.0127 44.7455H17.3387C17.1875 44.7455 17.0649 44.868 17.0649 45.0193V45.2282C17.0649 45.3794 17.1875 45.502 17.3387 45.502H22.0127C22.1639 45.502 22.2865 45.3794 22.2865 45.2282V45.0193C22.2865 44.868 22.1639 44.7455 22.0127 44.7455Z" fill="white"/>
<path opacity="0.26" d="M22.0127 51.8717H17.3387C17.1875 51.8717 17.0649 51.9943 17.0649 52.1455V52.3544C17.0649 52.5057 17.1875 52.6282 17.3387 52.6282H22.0127C22.1639 52.6282 22.2865 52.5057 22.2865 52.3544V52.1455C22.2865 51.9943 22.1639 51.8717 22.0127 51.8717Z" fill="white"/>
<path d="M21.5995 32.2993H17.7542C17.6029 32.2993 17.4803 32.4218 17.4803 32.5731V32.782C17.4803 32.9332 17.6029 33.0558 17.7542 33.0558H21.5995C21.7507 33.0558 21.8733 32.9332 21.8733 32.782V32.5731C21.8733 32.4218 21.7507 32.2993 21.5995 32.2993Z" fill="#14532D"/>
<path opacity="0.26" d="M21.5995 32.2993H17.7542C17.6029 32.2993 17.4803 32.4218 17.4803 32.5731V32.782C17.4803 32.9332 17.6029 33.0558 17.7542 33.0558H21.5995C21.7507 33.0558 21.8733 32.9332 21.8733 32.782V32.5731C21.8733 32.4218 21.7507 32.2993 21.5995 32.2993Z" fill="white"/>
<path d="M21.2464 33.0534H18.1049V34.6939H21.2464V33.0534Z" fill="#14532D"/>
<path opacity="0.05" d="M21.2464 33.0534H18.1049V34.6939H21.2464V33.0534Z" fill="#000001"/>
<path d="M19.6756 30.6756C20.4418 30.6756 21.2464 31.3794 21.2464 32.2464V32.2969H18.1049V32.2464C18.1049 31.3794 18.9095 30.6756 19.6756 30.6756Z" fill="#14532D"/>
<path d="M20.0071 31.4874H19.3442L19.5532 28.9223H19.8006L20.0071 31.4874Z" fill="#14532D"/>
<path opacity="0.1" d="M18.8086 33.2624H18.6861C18.5932 33.2624 18.5179 33.3377 18.5179 33.4305V34.3192C18.5179 34.412 18.5932 34.4873 18.6861 34.4873H18.8086C18.9014 34.4873 18.9767 34.412 18.9767 34.3192V33.4305C18.9767 33.3377 18.9014 33.2624 18.8086 33.2624Z" fill="#000001"/>
<path opacity="0.1" d="M19.7381 33.2624H19.6156C19.5228 33.2624 19.4475 33.3377 19.4475 33.4305V34.3192C19.4475 34.412 19.5228 34.4873 19.6156 34.4873H19.7381C19.831 34.4873 19.9063 34.412 19.9063 34.3192V33.4305C19.9063 33.3377 19.831 33.2624 19.7381 33.2624Z" fill="#000001"/>
<path opacity="0.1" d="M20.6653 33.2624H20.5428C20.4499 33.2624 20.3746 33.3377 20.3746 33.4305V34.3192C20.3746 34.412 20.4499 34.4873 20.5428 34.4873H20.6653C20.7581 34.4873 20.8334 34.412 20.8334 34.3192V33.4305C20.8334 33.3377 20.7581 33.2624 20.6653 33.2624Z" fill="#000001"/>
<path d="M13.8657 60.6791H6.60022L7.32797 18.4576H13.138L13.8657 60.6791Z" fill="#14532D"/>
<path d="M13.4453 17.1942H7.01803C6.76335 17.1942 6.55688 17.4007 6.55688 17.6554V17.9988C6.55688 18.2535 6.76335 18.46 7.01803 18.46H13.4453C13.7 18.46 13.9064 18.2535 13.9064 17.9988V17.6554C13.9064 17.4007 13.7 17.1942 13.4453 17.1942Z" fill="#14532D"/>
<path d="M14.1419 34.0142H6.32638C6.0717 34.0142 5.86523 34.2206 5.86523 34.4753V34.8188C5.86523 35.0735 6.0717 35.2799 6.32638 35.2799H14.1419C14.3966 35.2799 14.603 35.0735 14.603 34.8188V34.4753C14.603 34.2206 14.3966 34.0142 14.1419 34.0142Z" fill="#14532D"/>
<path d="M14.1419 45.9368H6.32638C6.0717 45.9368 5.86523 46.1432 5.86523 46.3979V46.7414C5.86523 46.9961 6.0717 47.2025 6.32638 47.2025H14.1419C14.3966 47.2025 14.603 46.9961 14.603 46.7414V46.3979C14.603 46.1432 14.3966 45.9368 14.1419 45.9368Z" fill="#14532D"/>
<path opacity="0.26" d="M13.4453 17.1942H7.01803C6.76335 17.1942 6.55688 17.4007 6.55688 17.6554V17.9988C6.55688 18.2535 6.76335 18.46 7.01803 18.46H13.4453C13.7 18.46 13.9064 18.2535 13.9064 17.9988V17.6554C13.9064 17.4007 13.7 17.1942 13.4453 17.1942Z" fill="white"/>
<path opacity="0.26" d="M14.1419 34.0142H6.32638C6.0717 34.0142 5.86523 34.2206 5.86523 34.4753V34.8188C5.86523 35.0735 6.0717 35.2799 6.32638 35.2799H14.1419C14.3966 35.2799 14.603 35.0735 14.603 34.8188V34.4753C14.603 34.2206 14.3966 34.0142 14.1419 34.0142Z" fill="white"/>
<path opacity="0.26" d="M14.1419 45.9368H6.32638C6.0717 45.9368 5.86523 46.1432 5.86523 46.3979V46.7414C5.86523 46.9961 6.0717 47.2025 6.32638 47.2025H14.1419C14.3966 47.2025 14.603 46.9961 14.603 46.7414V46.3979C14.603 46.1432 14.3966 45.9368 14.1419 45.9368Z" fill="white"/>
<path d="M13.4453 13.1808H7.01803C6.76335 13.1808 6.55688 13.3873 6.55688 13.6419V13.9854C6.55688 14.2401 6.76335 14.4466 7.01803 14.4466H13.4453C13.7 14.4466 13.9064 14.2401 13.9064 13.9854V13.6419C13.9064 13.3873 13.7 13.1808 13.4453 13.1808Z" fill="#14532D"/>
<path opacity="0.26" d="M13.4453 13.1808H7.01803C6.76335 13.1808 6.55688 13.3873 6.55688 13.6419V13.9854C6.55688 14.2401 6.76335 14.4466 7.01803 14.4466H13.4453C13.7 14.4466 13.9064 14.2401 13.9064 13.9854V13.6419C13.9064 13.3873 13.7 13.1808 13.4453 13.1808Z" fill="white"/>
<path d="M12.8593 14.4465H7.60413V17.1942H12.8593V14.4465Z" fill="#14532D"/>
<path opacity="0.05" d="M12.8593 14.4465H7.60413V17.1942H12.8593V14.4465Z" fill="#000001"/>
<path d="M10.2317 10.4691C11.5143 10.4691 12.8593 11.646 12.8593 13.0967V13.1832H7.60413V13.0967C7.60413 11.646 8.94914 10.4691 10.2317 10.4691Z" fill="#14532D"/>
<path d="M10.789 11.8262H9.677L10.0253 7.53413H10.4408L10.789 11.8262Z" fill="#14532D"/>
<path opacity="0.1" d="M8.78587 14.7948H8.57451C8.42064 14.7948 8.2959 14.9196 8.2959 15.0734V16.5674C8.2959 16.7212 8.42064 16.846 8.57451 16.846H8.78587C8.93974 16.846 9.06448 16.7212 9.06448 16.5674V15.0734C9.06448 14.9196 8.93974 14.7948 8.78587 14.7948Z" fill="#000001"/>
<path opacity="0.1" d="M10.3374 14.7948H10.126C9.97215 14.7948 9.84741 14.9196 9.84741 15.0734V16.5674C9.84741 16.7212 9.97215 16.846 10.126 16.846H10.3374C10.4913 16.846 10.616 16.7212 10.616 16.5674V15.0734C10.616 14.9196 10.4913 14.7948 10.3374 14.7948Z" fill="#000001"/>
<path opacity="0.1" d="M11.8913 14.7948H11.68C11.5261 14.7948 11.4014 14.9196 11.4014 15.0734V16.5674C11.4014 16.7212 11.5261 16.846 11.68 16.846H11.8913C12.0452 16.846 12.1699 16.7212 12.1699 16.5674V15.0734C12.1699 14.9196 12.0452 14.7948 11.8913 14.7948Z" fill="#000001"/>
<path d="M94.3481 60.6791H98.6882L98.2559 35.4505H94.7829L94.3481 60.6791Z" fill="#14532D"/>
<path d="M94.5956 35.4505H98.4409C98.5921 35.4505 98.7147 35.3279 98.7147 35.1766V34.9677C98.7147 34.8165 98.5921 34.6939 98.4409 34.6939H94.5956C94.4444 34.6939 94.3218 34.8165 94.3218 34.9677V35.1766C94.3218 35.3279 94.4444 35.4505 94.5956 35.4505Z" fill="#14532D"/>
<path d="M94.1801 45.502H98.854C99.0052 45.502 99.1278 45.3795 99.1278 45.2282V45.0193C99.1278 44.8681 99.0052 44.7455 98.854 44.7455H94.1801C94.0288 44.7455 93.9063 44.8681 93.9063 45.0193V45.2282C93.9063 45.3795 94.0288 45.502 94.1801 45.502Z" fill="#14532D"/>
<path d="M94.1801 52.6258H98.854C99.0052 52.6258 99.1278 52.5033 99.1278 52.352V52.1431C99.1278 51.9919 99.0052 51.8693 98.854 51.8693H94.1801C94.0288 51.8693 93.9063 51.9919 93.9063 52.1431V52.352C93.9063 52.5033 94.0288 52.6258 94.1801 52.6258Z" fill="#14532D"/>
<path opacity="0.26" d="M94.5956 35.4505H98.4409C98.5921 35.4505 98.7147 35.3279 98.7147 35.1766V34.9677C98.7147 34.8165 98.5921 34.6939 98.4409 34.6939H94.5956C94.4444 34.6939 94.3218 34.8165 94.3218 34.9677V35.1766C94.3218 35.3279 94.4444 35.4505 94.5956 35.4505Z" fill="white"/>
<path opacity="0.26" d="M94.1801 45.502H98.854C99.0052 45.502 99.1278 45.3795 99.1278 45.2282V45.0193C99.1278 44.8681 99.0052 44.7455 98.854 44.7455H94.1801C94.0288 44.7455 93.9063 44.8681 93.9063 45.0193V45.2282C93.9063 45.3795 94.0288 45.502 94.1801 45.502Z" fill="white"/>
<path opacity="0.26" d="M94.1801 52.6258H98.854C99.0052 52.6258 99.1278 52.5033 99.1278 52.352V52.1431C99.1278 51.9919 99.0052 51.8693 98.854 51.8693H94.1801C94.0288 51.8693 93.9063 51.9919 93.9063 52.1431V52.352C93.9063 52.5033 94.0288 52.6258 94.1801 52.6258Z" fill="white"/>
<path d="M94.5956 33.0534H98.4409C98.5921 33.0534 98.7147 32.9308 98.7147 32.7796V32.5707C98.7147 32.4194 98.5921 32.2969 98.4409 32.2969H94.5956C94.4444 32.2969 94.3218 32.4194 94.3218 32.5707V32.7796C94.3218 32.9308 94.4444 33.0534 94.5956 33.0534Z" fill="#14532D"/>
<path opacity="0.26" d="M94.5956 33.0534H98.4409C98.5921 33.0534 98.7147 32.9308 98.7147 32.7796V32.5707C98.7147 32.4194 98.5921 32.2969 98.4409 32.2969H94.5956C94.4444 32.2969 94.3218 32.4194 94.3218 32.5707V32.7796C94.3218 32.9308 94.4444 33.0534 94.5956 33.0534Z" fill="white"/>
<path d="M94.9463 34.6963H98.0879V33.0559H94.9463V34.6963Z" fill="#14532D"/>
<path opacity="0.05" d="M94.9463 34.6963H98.0879V33.0559H94.9463V34.6963Z" fill="#000001"/>
<path d="M96.5194 30.6756C95.7532 30.6756 94.9486 31.3794 94.9486 32.2464V32.2969H98.0902V32.2464C98.0902 31.3794 97.2856 30.6756 96.5194 30.6756Z" fill="#14532D"/>
<path d="M96.188 31.4874H96.8509L96.6419 28.9223H96.3945L96.188 31.4874Z" fill="#14532D"/>
<path opacity="0.1" d="M97.3865 34.4873H97.509C97.6018 34.4873 97.6771 34.412 97.6771 34.3192V33.4305C97.6771 33.3377 97.6018 33.2624 97.509 33.2624H97.3865C97.2937 33.2624 97.2184 33.3377 97.2184 33.4305V34.3192C97.2184 34.412 97.2937 34.4873 97.3865 34.4873Z" fill="#000001"/>
<path opacity="0.1" d="M96.4569 34.4873H96.5794C96.6723 34.4873 96.7476 34.412 96.7476 34.3192V33.4305C96.7476 33.3377 96.6723 33.2624 96.5794 33.2624H96.4569C96.3641 33.2624 96.2888 33.3377 96.2888 33.4305V34.3192C96.2888 34.412 96.3641 34.4873 96.4569 34.4873Z" fill="#000001"/>
<path opacity="0.1" d="M95.5299 34.4873H95.6524C95.7453 34.4873 95.8206 34.412 95.8206 34.3192V33.4305C95.8206 33.3377 95.7453 33.2624 95.6524 33.2624H95.5299C95.4371 33.2624 95.3618 33.3377 95.3618 33.4305V34.3192C95.3618 34.412 95.4371 34.4873 95.5299 34.4873Z" fill="#000001"/>
<path d="M102.329 60.6791H109.595L108.867 18.4576H103.057L102.329 60.6791Z" fill="#14532D"/>
<path d="M102.75 18.46H109.177C109.432 18.46 109.638 18.2535 109.638 17.9988V17.6554C109.638 17.4007 109.432 17.1942 109.177 17.1942H102.75C102.495 17.1942 102.289 17.4007 102.289 17.6554V17.9988C102.289 18.2535 102.495 18.46 102.75 18.46Z" fill="#14532D"/>
<path d="M102.053 35.2799H109.869C110.123 35.2799 110.33 35.0734 110.33 34.8188V34.4753C110.33 34.2206 110.123 34.0142 109.869 34.0142H102.053C101.798 34.0142 101.592 34.2206 101.592 34.4753V34.8188C101.592 35.0734 101.798 35.2799 102.053 35.2799Z" fill="#14532D"/>
<path d="M102.053 47.2025H109.869C110.123 47.2025 110.33 46.9961 110.33 46.7414V46.3979C110.33 46.1432 110.123 45.9368 109.869 45.9368H102.053C101.798 45.9368 101.592 46.1432 101.592 46.3979V46.7414C101.592 46.9961 101.798 47.2025 102.053 47.2025Z" fill="#14532D"/>
<path opacity="0.26" d="M102.75 18.46H109.177C109.432 18.46 109.638 18.2535 109.638 17.9988V17.6554C109.638 17.4007 109.432 17.1942 109.177 17.1942H102.75C102.495 17.1942 102.289 17.4007 102.289 17.6554V17.9988C102.289 18.2535 102.495 18.46 102.75 18.46Z" fill="white"/>
<path opacity="0.26" d="M102.053 35.2799H109.869C110.123 35.2799 110.33 35.0734 110.33 34.8188V34.4753C110.33 34.2206 110.123 34.0142 109.869 34.0142H102.053C101.798 34.0142 101.592 34.2206 101.592 34.4753V34.8188C101.592 35.0734 101.798 35.2799 102.053 35.2799Z" fill="white"/>
<path opacity="0.26" d="M102.053 47.2025H109.869C110.123 47.2025 110.33 46.9961 110.33 46.7414V46.3979C110.33 46.1432 110.123 45.9368 109.869 45.9368H102.053C101.798 45.9368 101.592 46.1432 101.592 46.3979V46.7414C101.592 46.9961 101.798 47.2025 102.053 47.2025Z" fill="white"/>
<path d="M102.75 14.449H109.177C109.432 14.449 109.638 14.2425 109.638 13.9878V13.6443C109.638 13.3897 109.432 13.1832 109.177 13.1832H102.75C102.495 13.1832 102.289 13.3897 102.289 13.6443V13.9878C102.289 14.2425 102.495 14.449 102.75 14.449Z" fill="#14532D"/>
<path opacity="0.26" d="M102.75 14.449H109.177C109.432 14.449 109.638 14.2425 109.638 13.9878V13.6443C109.638 13.3897 109.432 13.1832 109.177 13.1832H102.75C102.495 13.1832 102.289 13.3897 102.289 13.6443V13.9878C102.289 14.2425 102.495 14.449 102.75 14.449Z" fill="white"/>
<path d="M103.336 17.1942H108.591V14.4466H103.336V17.1942Z" fill="#14532D"/>
<path opacity="0.05" d="M103.336 17.1942H108.591V14.4466H103.336V17.1942Z" fill="#000001"/>
<path d="M105.963 10.4691C104.681 10.4691 103.336 11.646 103.336 13.0967V13.1832H108.591V13.0967C108.591 11.646 107.246 10.4691 105.963 10.4691Z" fill="#14532D"/>
<path d="M105.406 11.8262H106.518L106.17 7.53413H105.754L105.406 11.8262Z" fill="#14532D"/>
<path opacity="0.1" d="M107.409 16.846H107.621C107.774 16.846 107.899 16.7212 107.899 16.5674V15.0734C107.899 14.9196 107.774 14.7948 107.621 14.7948H107.409C107.255 14.7948 107.131 14.9196 107.131 15.0734V16.5674C107.131 16.7212 107.255 16.846 107.409 16.846Z" fill="#000001"/>
<path opacity="0.1" d="M105.858 16.846H106.069C106.223 16.846 106.348 16.7212 106.348 16.5674V15.0734C106.348 14.9196 106.223 14.7948 106.069 14.7948H105.858C105.704 14.7948 105.579 14.9196 105.579 15.0734V16.5674C105.579 16.7212 105.704 16.846 105.858 16.846Z" fill="#000001"/>
<path opacity="0.1" d="M104.304 16.846H104.515C104.669 16.846 104.794 16.7212 104.794 16.5674V15.0734C104.794 14.9196 104.669 14.7948 104.515 14.7948H104.304C104.15 14.7948 104.025 14.9196 104.025 15.0734V16.5674C104.025 16.7212 104.15 16.846 104.304 16.846Z" fill="#000001"/>
<path d="M114.622 60.6791H1.57079C0.703266 60.6791 0 61.3824 0 62.2499V63.4292C0 64.2967 0.703266 65 1.57079 65H114.622C115.489 65 116.193 64.2967 116.193 63.4292V62.2499C116.193 61.3824 115.489 60.6791 114.622 60.6791Z" fill="#24285B"/>
<path d="M25.9348 56.6201C25.9348 58.383 25.1926 59.0363 24.2751 59.0363C23.3576 59.0363 22.6155 58.383 22.6155 56.6201C22.6155 54.8571 23.3576 52.1887 24.2751 52.1887C25.1926 52.1887 25.9348 54.8571 25.9348 56.6201Z" fill="#A5A5A5"/>
<path d="M24.537 58.2629H24.011V60.6791H24.537V58.2629Z" fill="#E6E6E6"/>
<path d="M21.6548 56.6201C21.6548 58.383 20.9126 59.0363 19.9951 59.0363C19.0776 59.0363 18.3354 58.383 18.3354 56.6201C18.3354 54.8571 19.0776 52.1887 19.9951 52.1887C20.9126 52.1887 21.6548 54.8571 21.6548 56.6201Z" fill="#A5A5A5"/>
<path d="M20.257 58.2629H19.731V60.6791H20.257V58.2629Z" fill="#E6E6E6"/>
<path d="M17.3772 56.6201C17.3772 58.383 16.635 59.0363 15.7175 59.0363C14.8 59.0363 14.0579 58.383 14.0579 56.6201C14.0579 54.8571 14.8 52.1887 15.7175 52.1887C16.635 52.1887 17.3772 54.8571 17.3772 56.6201Z" fill="#A5A5A5"/>
<path d="M15.9794 58.2629H15.4534V60.6791H15.9794V58.2629Z" fill="#E6E6E6"/>
<path d="M102.137 56.6201C102.137 58.383 101.395 59.0363 100.478 59.0363C99.5602 59.0363 98.818 58.383 98.818 56.6201C98.818 54.8571 99.5602 52.1887 100.478 52.1887C101.395 52.1887 102.137 54.8571 102.137 56.6201Z" fill="#A5A5A5"/>
<path d="M100.742 58.2629H100.216V60.6791H100.742V58.2629Z" fill="#E6E6E6"/>
<path d="M97.8596 56.6201C97.8596 58.383 97.1174 59.0363 96.1999 59.0363C95.2824 59.0363 94.5403 58.383 94.5403 56.6201C94.5403 54.8571 95.2824 52.1887 96.1999 52.1887C97.1174 52.1887 97.8596 54.8571 97.8596 56.6201Z" fill="#A5A5A5"/>
<path d="M96.4618 58.2629H95.9358V60.6791H96.4618V58.2629Z" fill="#E6E6E6"/>
<path d="M93.5796 56.6201C93.5796 58.383 92.8374 59.0363 91.9199 59.0363C91.0024 59.0363 90.2603 58.383 90.2603 56.6201C90.2603 54.8571 91.0024 52.1887 91.9199 52.1887C92.8374 52.1887 93.5796 54.8571 93.5796 56.6201Z" fill="#A5A5A5"/>
<path d="M92.1842 58.2629H91.6582V60.6791H92.1842V58.2629Z" fill="#E6E6E6"/>
</svg>
