<svg width="28" height="27" viewBox="0 0 28 27" fill="none" xmlns="http://www.w3.org/2000/svg">
<path d="M12.1683 27C18.8887 27 24.3367 21.552 24.3367 14.8317C24.3367 8.11128 18.8887 2.66333 12.1683 2.66333C5.44795 2.66333 0 8.11128 0 14.8317C0 21.552 5.44795 27 12.1683 27Z" fill="#3498DA"/>
<path fill-rule="evenodd" clip-rule="evenodd" d="M3.77486 23.6376C1.45071 21.421 0 18.297 0 14.8321C0 8.11158 5.448 2.66333 12.1686 2.66333C15.6718 2.66333 18.8268 4.14568 21.0471 6.51485L3.77486 23.6376Z" fill="#27AE60"/>
<path fill-rule="evenodd" clip-rule="evenodd" d="M20.5618 6.0257C22.886 8.24228 24.3367 11.3664 24.3367 14.8312C24.3367 18.1575 23.0021 21.1721 20.839 23.3685C17.4054 19.9348 18.611 21.1431 11.9802 14.5333L20.5618 6.0257Z" fill="#95A5A6"/>
<path d="M21.4314 22.7177L13.5039 14.7908L21.3934 6.90155C21.0134 6.4601 20.6025 6.0463 20.1637 5.6633L2.99976 22.8272C3.38284 23.266 3.79672 23.677 4.23825 24.0569L12.1275 16.1677L20.0546 24.0947C20.5494 23.673 21.0098 23.2126 21.4314 22.7177Z" fill="#F1C40F"/>
<path opacity="0.05" fill-rule="evenodd" clip-rule="evenodd" d="M25.38 8.82099C23.8037 10.397 21.3981 10.628 19.5723 9.52481L18.549 10.5482C20.9885 13.8803 20.713 18.5797 17.702 21.5907C14.3757 24.917 8.98246 24.917 5.65613 21.5907C2.32979 18.2643 2.32979 12.8711 5.65613 9.54477C8.71257 6.48808 13.5127 6.24252 16.8525 8.80298L17.8802 7.77525C16.8712 5.96801 17.1301 3.64313 18.6663 2.10675C20.5202 0.25303 23.526 0.25303 25.3803 2.10675C27.2337 3.96072 27.2337 6.96678 25.38 8.82099ZM24.5144 2.97509C23.1371 1.59641 20.904 1.59641 19.5268 2.97509C18.1496 4.35351 18.1496 6.58883 19.5268 7.96751C20.904 9.34593 23.1371 9.34593 24.5144 7.96751C25.8918 6.58883 25.8918 4.35351 24.5144 2.97509Z" fill="black"/>
<path fill-rule="evenodd" clip-rule="evenodd" d="M25.8667 8.10404C24.2904 9.68009 21.8847 9.91104 20.059 8.80786L19.0357 9.83146C21.4752 13.1636 21.1997 17.8628 18.1887 20.874C14.8624 24.2003 9.46916 24.2003 6.14282 20.874C2.81649 17.5476 2.81649 12.1544 6.14282 8.82806C9.19926 5.77138 13.9994 5.52582 17.3391 8.08628L18.3669 7.05879C17.3579 5.25155 17.6168 2.92642 19.153 1.39029C21.0069 -0.463431 24.0127 -0.463431 25.867 1.39029C27.7204 3.24402 27.7204 6.25008 25.8667 8.10404ZM25.0011 2.25838C23.6238 0.879709 21.3907 0.879709 20.0135 2.25838C18.6363 3.63681 18.6363 5.87213 20.0135 7.2508C21.3907 8.62923 23.6238 8.62923 25.0011 7.2508C26.3785 5.87213 26.3785 3.63681 25.0011 2.25838Z" fill="#E74C3C"/>
<path d="M12.1683 21.4026C15.7973 21.4026 18.7392 18.4607 18.7392 14.8317C18.7392 11.2027 15.7973 8.26077 12.1683 8.26077C8.5393 8.26077 5.59741 11.2027 5.59741 14.8317C5.59741 18.4607 8.5393 21.4026 12.1683 21.4026Z" fill="white"/>
<path d="M12.2899 11.242C12.626 11.242 12.8984 10.9696 12.8984 10.6336C12.8984 10.2976 12.626 10.0252 12.2899 10.0252C11.9539 10.0252 11.6815 10.2976 11.6815 10.6336C11.6815 10.9696 11.9539 11.242 12.2899 11.242Z" fill="#ECF0F1"/>
<path d="M12.2899 19.7598C12.626 19.7598 12.8984 19.4874 12.8984 19.1514C12.8984 18.8154 12.626 18.543 12.2899 18.543C11.9539 18.543 11.6815 18.8154 11.6815 19.1514C11.6815 19.4874 11.9539 19.7598 12.2899 19.7598Z" fill="#ECF0F1"/>
<path d="M7.90944 15.3792C8.24546 15.3792 8.51786 15.1069 8.51786 14.7708C8.51786 14.4348 8.24546 14.1624 7.90944 14.1624C7.57342 14.1624 7.30103 14.4348 7.30103 14.7708C7.30103 15.1069 7.57342 15.3792 7.90944 15.3792Z" fill="#ECF0F1"/>
<path d="M16.6706 15.3792C17.0066 15.3792 17.279 15.1069 17.279 14.7708C17.279 14.4348 17.0066 14.1624 16.6706 14.1624C16.3345 14.1624 16.0621 14.4348 16.0621 14.7708C16.0621 15.1069 16.3345 15.3792 16.6706 15.3792Z" fill="#ECF0F1"/>
<path opacity="0.15" fill-rule="evenodd" clip-rule="evenodd" d="M12.1683 8.26077C10.2299 8.26077 8.48812 9.10039 7.2854 10.4355C8.49062 9.3469 10.0575 8.74526 11.6816 8.74751C15.3107 8.74751 18.2525 11.6893 18.2525 15.3184C18.2547 16.9425 17.653 18.5093 16.5645 19.7146C17.8996 18.5119 18.7392 16.7701 18.7392 14.8317C18.7392 11.2026 15.7974 8.26077 12.1683 8.26077Z" fill="black"/>
<path d="M15.8532 10.8242L12.9739 15.7312L8.10706 18.5703L15.8532 10.8242Z" fill="#34495E"/>
<path d="M8.10706 18.5703L10.9863 13.6633L15.8532 10.8239L8.10706 18.5703Z" fill="#306DAB"/>
<path fill-rule="evenodd" clip-rule="evenodd" d="M19.1789 5.96363L21.131 7.91567C21.606 8.39121 21.4724 8.95047 21.0448 9.37831C20.6172 9.80614 20.0572 9.93975 19.5822 9.46446L17.6301 7.51241C17.1548 7.03736 17.2884 6.47738 17.7163 6.04978C18.1441 5.62194 18.7036 5.48833 19.1789 5.96363Z" fill="#C0392B"/>
</svg>
