<svg width="39" height="28" viewBox="0 0 39 28" fill="none" xmlns="http://www.w3.org/2000/svg">
<path d="M29.6026 13.8295C29.9479 13.8295 30.2278 13.5497 30.2278 13.2045C30.2278 12.8593 29.9479 12.5795 29.6026 12.5795C29.2572 12.5795 28.9773 12.8593 28.9773 13.2045C28.9773 13.5497 29.2572 13.8295 29.6026 13.8295Z" fill="#6B3D44"/>
<path d="M29.7599 13.2147C29.9146 13.2147 30.0401 13.0894 30.0401 12.9347C30.0401 12.78 29.9146 12.6546 29.7599 12.6546C29.6052 12.6546 29.4797 12.78 29.4797 12.9347C29.4797 13.0894 29.6052 13.2147 29.7599 13.2147Z" fill="#9B616C"/>
<path d="M23.4662 1.7322C23.8115 1.7322 24.0915 1.45237 24.0915 1.10718C24.0915 0.761992 23.8115 0.482162 23.4662 0.482162C23.1209 0.482162 22.8409 0.761992 22.8409 1.10718C22.8409 1.45237 23.1209 1.7322 23.4662 1.7322Z" fill="#6B3D44"/>
<path d="M23.6233 1.12086C23.7781 1.12086 23.9035 0.995467 23.9035 0.840793C23.9035 0.686119 23.7781 0.56073 23.6233 0.56073C23.4686 0.56073 23.3431 0.686119 23.3431 0.840793C23.3431 0.995467 23.4686 1.12086 23.6233 1.12086Z" fill="#9B616C"/>
<path d="M8.89362 19.1849C8.60661 19.4035 3.05776 20.0831 0.457592 20.3905C-0.010506 20.4452 -0.167677 21.0497 0.215002 21.3229L9.47447 28L37.6595 22.5969C38.1754 22.4978 38.3052 21.8216 37.8645 21.5381L27.8499 15.1376L8.89362 19.1849Z" fill="#255C63"/>
<path d="M20.7772 16.4935L33.7917 22.6959C33.9557 22.7881 34.1642 22.7403 34.2701 22.5866C34.3794 22.4261 34.3452 22.2109 34.1915 22.0914L32.3977 20.7115C32.3533 20.6774 32.3088 20.6501 32.261 20.6227L28.0071 17.5899C28.0071 17.5899 27.908 17.5284 28.0071 17.4293C28.1062 17.3303 30.8533 18.6111 30.8533 18.6111V18.2866L28.137 15.4518C28.137 15.4518 22.923 12.6341 22.9435 12.4634C22.9674 12.2926 20.7772 16.4935 20.7772 16.4935Z" fill="#6B3D44"/>
<path d="M34.1915 22.0948C34.1915 22.0948 26.0151 18.4642 21.2522 16.3228C20.9651 16.4286 20.7772 16.5004 20.7772 16.5004L33.7917 22.6993C33.9557 22.7915 34.1642 22.7437 34.2701 22.59C34.3521 22.4705 34.3555 22.3134 34.2803 22.1972L34.1915 22.0948Z" fill="#44272E"/>
<path d="M35.2848 8.01653L27.4911 3.84975L13.2739 12.3985C13.2739 12.3985 10.0929 14.5229 9.18401 15.083C8.27515 15.6431 5.55539 18.7306 4.07935 19.2361V20.0763L6.59068 22.3202C6.59068 22.3202 12.0917 17.3884 12.5974 17.3576C13.1031 17.3269 14.0563 17.5079 13.6087 18.4267C13.2329 19.1951 9.71361 22.2621 8.56899 23.2458C8.34007 23.4405 8.21023 23.7273 8.21023 24.0279C8.21023 24.2977 8.3264 24.5539 8.52457 24.7349L10.3901 26.4153H11.3673C11.3673 26.4153 16.7863 21.7567 17.1314 21.422C17.4765 21.0838 24.8397 16.7087 24.8397 16.7087L26.2816 15.667L35.3941 8.6757L35.2848 8.01653Z" fill="#6B3D44"/>
<path d="M17.0733 19.0038C17.2783 19.0141 17.4799 18.9355 17.6712 18.8604C20.572 17.7162 23.4729 16.5721 26.3737 15.4313L16.3045 10.5746L13.2738 12.3985C13.2738 12.3985 11.7397 13.4231 10.496 14.2359C12.505 15.4689 14.4765 16.7702 16.1405 18.4301C16.4036 18.6965 16.6974 18.9868 17.0733 19.0038Z" fill="#44272E"/>
<path d="M14.2169 17.665C14.2374 17.0844 13.2739 16.7087 12.7306 16.678C12.1839 16.6438 6.41984 21.5859 6.41984 21.5859L4.07935 19.2361V20.0763L6.59068 22.3202C6.59068 22.3202 12.0917 17.3884 12.5974 17.3576C13.1031 17.3269 14.0563 17.5079 13.6087 18.4267C13.5302 18.5872 13.3149 18.8467 13.0142 19.1678C13.0142 19.1712 14.1964 18.2456 14.2169 17.665Z" fill="#935460"/>
<path d="M17.2306 20.4725L10.4995 26.4221H11.3742C11.3742 26.4221 16.7932 21.7635 17.1383 21.4288C17.4834 21.0907 24.8466 16.7155 24.8466 16.7155L26.2884 15.6738L35.3942 8.6757L35.2848 8.01994L24.727 16.0837L17.2306 20.4725Z" fill="#935460"/>
<path d="M4.80029 8.01653V9.32121L14.8422 15.1376L23.3124 16.9136L24.0914 16.456L4.80029 8.01653Z" fill="#6B3D44"/>
<path d="M5.17271 7.10462H4.07935V7.57253L15.1531 14.4306L23.1074 16.497L24.7304 16.0837L34.7757 7.10462V6.69818L21.7338 2.14546C21.7338 2.14546 12.1224 8.01653 11.9584 7.97554C11.791 7.93456 5.17271 7.10462 5.17271 7.10462Z" fill="#8681BD"/>
<path d="M15.9116 13.5973C15.8638 13.6246 23.0595 15.6704 23.0595 15.6704L22.7828 14.9224L20.1655 13.2113C20.1689 13.2079 17.0528 12.9962 15.9116 13.5973Z" fill="#C6A46D"/>
<path d="M24.6039 15.6704L23.0459 16.0837L15.5495 14.0584L4.07935 7.10461V7.57252L15.1531 14.4306L23.1074 16.4969L24.7269 16.0837L34.7723 7.10461V6.69818L24.6039 15.6704Z" fill="#A3A1E2"/>
<path d="M4.25708 6.82797L15.5495 14.0584C15.5495 14.0584 20.1109 11.7769 23.0596 15.6704L24.4502 15.2811C24.4502 15.2811 28.9023 6.77332 34.4648 6.82797V5.82726L22.9503 1.21306C22.9503 1.21306 15.7306 2.18303 14.3947 6.52058C14.3947 6.52058 8.70572 3.04713 4.25708 6.82797Z" fill="#FCE0AD"/>
<path d="M5.92105 6.76991C5.93472 6.7665 7.27068 6.29176 9.08157 6.10733C10.5064 5.96046 12.4847 5.97413 14.3127 6.72551C12.8879 6.40105 11.4767 6.41813 10.3868 6.53084C8.5588 6.71868 7.20234 7.19684 7.18868 7.20025C7.14767 7.21391 7.12717 7.25831 7.14084 7.2993C7.15451 7.34028 7.19893 7.36078 7.23993 7.34711C7.25359 7.3437 8.59297 6.86896 10.4039 6.68453C11.692 6.55474 13.4311 6.55133 15.1053 7.10804C15.1464 7.13194 15.1874 7.15244 15.2249 7.17634C15.2386 7.18318 15.2489 7.18659 15.2625 7.18659C15.2728 7.18659 15.283 7.18318 15.2933 7.17976C15.0268 6.98167 14.8081 6.82456 14.6543 6.71185C12.7204 5.82726 10.585 5.80677 9.06449 5.96046C7.23651 6.14831 5.88005 6.62647 5.86638 6.62988C5.82538 6.64354 5.80488 6.68794 5.81855 6.72893C5.83905 6.76308 5.88347 6.78357 5.92105 6.76991Z" fill="#AD8F64"/>
<path d="M11.4596 7.10461C9.63165 7.29246 8.27519 7.77061 8.26152 7.77403C8.22052 7.78769 8.20002 7.83209 8.21369 7.87307C8.22736 7.91406 8.27177 7.93455 8.31278 7.92089C8.32644 7.91747 9.6624 7.44273 11.4733 7.2583C12.6726 7.13535 14.2614 7.1251 15.8229 7.57252C15.7101 7.48713 15.6008 7.40516 15.4983 7.33003C14.0359 6.97482 12.5803 6.9919 11.4596 7.10461Z" fill="#AD8F64"/>
<path d="M9.28653 8.67912C9.3002 8.67571 10.6396 8.20097 12.4505 8.01654C13.66 7.89358 15.2693 7.88334 16.8444 8.34441C16.7351 8.26244 16.6292 8.18048 16.5267 8.10192C15.0438 7.73306 13.5643 7.75014 12.43 7.86626C10.602 8.05411 9.24553 8.53226 9.23186 8.53568C9.19086 8.54934 9.17036 8.59374 9.18403 8.63472C9.20111 8.67229 9.24553 8.69278 9.28653 8.67912Z" fill="#AD8F64"/>
<path d="M10.4961 9.33146C10.5098 9.32804 11.8458 8.8533 13.6566 8.66887C14.7261 8.55958 16.1031 8.53909 17.4971 8.8533C17.4048 8.78158 17.316 8.70986 17.2238 8.64155C15.9185 8.39222 14.6441 8.41613 13.6396 8.51859C11.8116 8.70644 10.4551 9.1846 10.4415 9.18801C10.4005 9.20167 10.38 9.24607 10.3936 9.28706C10.4141 9.32463 10.4585 9.34512 10.4961 9.33146Z" fill="#AD8F64"/>
<path d="M11.4767 10.0145C11.4904 10.0111 12.8263 9.53636 14.6372 9.35193C15.6623 9.24605 16.9743 9.22556 18.3103 9.49879C18.2249 9.43048 18.1394 9.36217 18.0574 9.29387C16.8035 9.07187 15.5905 9.09919 14.6236 9.19823C12.7956 9.38608 11.4391 9.86424 11.4255 9.86765C11.3845 9.88131 11.364 9.92571 11.3776 9.9667C11.3913 10.0077 11.4357 10.0282 11.4767 10.0145Z" fill="#AD8F64"/>
<path d="M12.4028 10.6464C12.4164 10.643 13.7285 10.2639 15.5154 10.1716C16.6498 10.1136 18.1361 10.1648 19.6258 10.5917C19.5336 10.5132 19.4447 10.438 19.3525 10.3595C17.9482 10.0043 16.5712 9.96331 15.5018 10.018C13.7011 10.1102 12.372 10.4961 12.3583 10.4995C12.3173 10.5098 12.2934 10.5542 12.3071 10.5952C12.3173 10.6361 12.3618 10.6566 12.4028 10.6464Z" fill="#AD8F64"/>
<path d="M17.2373 11.104C15.5734 11.1211 14.4082 11.4968 14.3946 11.5002C14.3536 11.5139 14.3331 11.5549 14.3467 11.5959C14.3604 11.6368 14.4014 11.6573 14.4424 11.6437C14.4527 11.6403 15.5973 11.2714 17.2373 11.2577C18.2795 11.2475 19.6769 11.3841 21.1495 11.9476C21.0539 11.8588 20.9582 11.77 20.8591 11.6778C19.4958 11.2133 18.2145 11.0972 17.2373 11.104Z" fill="#AD8F64"/>
<path d="M22.4548 13.2626C22.3455 13.143 22.2328 13.0201 22.1132 12.8971C20.4663 12.033 18.9219 11.8144 17.8149 11.8042C16.2636 11.7939 15.2113 12.1799 15.201 12.1833C15.16 12.197 15.1429 12.2414 15.1566 12.2823C15.1703 12.3233 15.2147 12.3404 15.2557 12.3267C15.2659 12.3233 16.2944 11.9442 17.8149 11.9579C18.9971 11.9681 20.6815 12.2174 22.4548 13.2626Z" fill="#AD8F64"/>
<path d="M22.9503 1.21306C22.9503 1.21306 15.7306 2.18303 14.3947 6.52058C14.3947 6.52058 23.3842 12.8971 23.825 15.3835C23.8284 15.4074 23.8318 15.4313 23.8352 15.4553L24.4502 15.2845C24.4502 15.2845 28.9023 6.77674 34.4648 6.83138V5.83067L22.9503 1.21306Z" fill="#DDBD8A"/>
<path d="M24.4502 14.6595L23.0596 15.0488C20.1109 11.1553 15.5495 13.4367 15.5495 13.4367L4.69101 6.48642C4.54409 6.59571 4.39717 6.70842 4.25366 6.83137L15.5461 14.0618C15.5461 14.0618 20.1075 11.7803 23.0562 15.6738L24.4468 15.2845C24.4468 15.2845 28.8989 6.77672 34.4614 6.83137V6.20977C28.9023 6.15171 24.4502 14.6595 24.4502 14.6595Z" fill="#FFEBCA"/>
<path d="M14.4425 6.3669C14.3434 6.45911 14.1384 6.37031 14.2443 6.45228C17.0392 8.55275 19.6701 10.8752 22.1063 13.3855C22.3147 13.6007 22.5266 13.8193 22.6974 14.0686C23.4799 15.1923 23.3842 16.6882 23.1928 18.0441C23.3159 17.8699 23.4969 17.8119 23.5653 17.6104C23.6541 17.8734 23.6814 18.1568 23.6439 18.4335C23.9138 17.3098 23.9958 16.1247 23.7088 15.0044C23.7224 15.0215 22.3728 13.1123 21.4025 11.9647C19.8171 10.0828 14.4425 6.3669 14.4425 6.3669Z" fill="#EC5946"/>
<path d="M15.9117 6.77673C15.9015 6.77673 15.8878 6.77332 15.8775 6.7699C15.8399 6.75283 15.8229 6.70501 15.8434 6.66744C15.857 6.6367 16.2055 5.92972 17.316 5.00756C18.3342 4.16054 20.2168 2.96174 23.4013 2.07715C23.4423 2.0669 23.4833 2.09081 23.4969 2.1318C23.5072 2.17278 23.4833 2.21377 23.4423 2.22743C21.7031 2.71241 19.2465 3.60725 17.4253 5.12027C16.3354 6.02535 15.9869 6.73233 15.9835 6.73916C15.9698 6.75966 15.9425 6.77673 15.9117 6.77673Z" fill="#AD8F64"/>
<path d="M17.1383 7.54521C17.1246 7.54521 17.1144 7.54179 17.1007 7.53496C17.0631 7.51447 17.0494 7.47007 17.0699 7.4325C17.087 7.40176 17.4868 6.6777 18.6451 5.73163C19.7111 4.86412 21.6518 3.64483 24.8363 2.76024C24.8773 2.74999 24.9183 2.7739 24.932 2.81489C24.9422 2.85587 24.9183 2.89686 24.8773 2.91052C21.7236 3.78827 19.8068 4.99049 18.751 5.84776C17.6098 6.77333 17.2066 7.50081 17.2032 7.51105C17.193 7.53155 17.1656 7.54521 17.1383 7.54521Z" fill="#AD8F64"/>
<path d="M18.628 8.6757C18.6177 8.6757 18.6109 8.6757 18.6006 8.67229C18.5596 8.65863 18.5391 8.61423 18.5562 8.57324C18.5699 8.53909 18.8774 7.71939 19.9844 6.66745C21.0026 5.70431 22.916 4.35864 26.2679 3.42624C26.3089 3.41599 26.3499 3.4399 26.3635 3.48089C26.3738 3.52187 26.3499 3.56286 26.3089 3.57652C24.4775 4.08541 21.9115 5.05538 20.0903 6.78016C19.0072 7.80478 18.7031 8.61764 18.6997 8.62789C18.6895 8.65521 18.6587 8.6757 18.628 8.6757Z" fill="#AD8F64"/>
<path d="M19.9401 9.63885C19.9366 9.63885 19.9332 9.63885 19.9298 9.63885C19.8888 9.63543 19.858 9.59445 19.8615 9.55346C19.8649 9.51589 19.9879 8.58349 20.989 7.39835C21.9081 6.31225 23.7771 4.80265 27.4672 3.77803C27.5082 3.76779 27.5492 3.79169 27.5629 3.83268C27.5731 3.87366 27.5492 3.91465 27.5082 3.92831C25.4923 4.48843 22.7452 5.56428 21.1052 7.50081C20.1314 8.6518 20.0152 9.56712 20.0118 9.57396C20.0084 9.61153 19.9776 9.63885 19.9401 9.63885Z" fill="#AD8F64"/>
<path d="M21.1052 10.5951C21.1018 10.5951 21.1018 10.5951 21.0984 10.5951C21.0574 10.5917 21.0266 10.5542 21.03 10.5132C21.0335 10.4688 21.136 9.39292 22.1234 8.06092C23.7601 5.84433 26.5345 4.70358 28.5709 4.13663C28.6119 4.12638 28.6529 4.15029 28.6665 4.19128C28.6768 4.23226 28.6529 4.27324 28.6119 4.28691C26.5994 4.84703 23.866 5.9707 22.2533 8.1463C21.2897 9.44415 21.1838 10.52 21.1838 10.5302C21.177 10.5644 21.1428 10.5951 21.1052 10.5951Z" fill="#AD8F64"/>
<path d="M22.342 11.5719C22.3249 11.5719 22.3113 11.5685 22.2976 11.5583C22.2703 11.5412 22.1985 11.4934 22.3181 10.9435C22.5095 10.0726 23.7737 5.68039 30.0469 4.76165C30.0879 4.75482 30.1289 4.78556 30.1323 4.82654C30.1357 4.86753 30.1084 4.90851 30.0674 4.91193C26.3362 5.45839 24.4228 7.26172 23.4764 8.68252C22.5778 10.0248 22.3864 11.2407 22.4001 11.4422C22.4035 11.4456 22.4035 11.4456 22.4035 11.449C22.4274 11.4831 22.4206 11.531 22.3864 11.5549C22.3762 11.5685 22.3591 11.5719 22.342 11.5719Z" fill="#AD8F64"/>
<path d="M23.4148 12.6819C23.4012 12.6819 23.3841 12.6785 23.3704 12.6683C23.3362 12.6478 23.2884 12.6136 23.3841 12.1765C23.5139 11.5788 24.8465 6.31565 31.4716 5.34568C31.5126 5.33885 31.5536 5.36959 31.557 5.41057C31.5638 5.45156 31.5331 5.49254 31.4921 5.49596C27.9011 6.02193 25.9159 7.85599 24.884 9.30071C23.7838 10.8376 23.4729 12.3267 23.4798 12.5556C23.5037 12.5897 23.4968 12.6375 23.4627 12.6615C23.449 12.6785 23.4319 12.6819 23.4148 12.6819Z" fill="#AD8F64"/>
<path d="M24.1769 13.4265C24.1632 13.4265 24.1461 13.4231 24.1324 13.4128C24.0846 13.3821 24.0812 13.324 24.1188 13.1533C24.2555 12.5282 24.8431 10.9538 26.1005 9.45781C27.7747 7.46322 30.0196 6.24734 32.7666 5.84432C32.8076 5.83749 32.8486 5.86823 32.8521 5.90921C32.8589 5.9502 32.8281 5.99118 32.7871 5.9946C29.1893 6.52057 27.064 8.42295 25.916 9.92913C24.6996 11.5207 24.2589 13.0679 24.2452 13.307C24.2657 13.3411 24.2555 13.3855 24.2247 13.406C24.211 13.4231 24.1939 13.4265 24.1769 13.4265Z" fill="#AD8F64"/>
<path d="M21.6245 3.26229C21.9699 3.26229 22.2498 2.98246 22.2498 2.63727C22.2498 2.29208 21.9699 2.01225 21.6245 2.01225C21.2792 2.01225 20.9993 2.29208 20.9993 2.63727C20.9993 2.98246 21.2792 3.26229 21.6245 3.26229Z" fill="#6B3D44"/>
<path d="M21.7816 2.65093C21.9364 2.65093 22.0618 2.52554 22.0618 2.37087C22.0618 2.21619 21.9364 2.09081 21.7816 2.09081C21.6269 2.09081 21.5015 2.21619 21.5015 2.37087C21.5015 2.52554 21.6269 2.65093 21.7816 2.65093Z" fill="#9B616C"/>
<path d="M22.4104 1.51702C22.7558 1.51702 23.0357 1.23719 23.0357 0.892C23.0357 0.546813 22.7558 0.266983 22.4104 0.266983C22.0651 0.266983 21.7852 0.546813 21.7852 0.892C21.7852 1.23719 22.0651 1.51702 22.4104 1.51702Z" fill="#6B3D44"/>
<path d="M22.5677 0.905675C22.7224 0.905675 22.8478 0.780287 22.8478 0.625613C22.8478 0.470939 22.7224 0.345551 22.5677 0.345551C22.4129 0.345551 22.2875 0.470939 22.2875 0.625613C22.2875 0.780287 22.4129 0.905675 22.5677 0.905675Z" fill="#9B616C"/>
<path d="M21.5015 2.14545C21.8468 2.14545 22.1268 1.86562 22.1268 1.52043C22.1268 1.17525 21.8468 0.895416 21.5015 0.895416C21.1562 0.895416 20.8762 1.17525 20.8762 1.52043C20.8762 1.86562 21.1562 2.14545 21.5015 2.14545Z" fill="#6B3D44"/>
<path d="M21.6587 1.53069C21.8135 1.53069 21.9389 1.4053 21.9389 1.25063C21.9389 1.09595 21.8135 0.970566 21.6587 0.970566C21.504 0.970566 21.3785 1.09595 21.3785 1.25063C21.3785 1.4053 21.504 1.53069 21.6587 1.53069Z" fill="#9B616C"/>
<path d="M22.4104 4.18444C22.7558 4.18444 23.0357 3.90461 23.0357 3.55942C23.0357 3.21423 22.7558 2.9344 22.4104 2.9344C22.0651 2.9344 21.7852 3.21423 21.7852 3.55942C21.7852 3.90461 22.0651 4.18444 22.4104 4.18444Z" fill="#6B3D44"/>
<path d="M22.5677 3.56969C22.7224 3.56969 22.8478 3.4443 22.8478 3.28963C22.8478 3.13496 22.7224 3.00957 22.5677 3.00957C22.4129 3.00957 22.2875 3.13496 22.2875 3.28963C22.2875 3.4443 22.4129 3.56969 22.5677 3.56969Z" fill="#9B616C"/>
<path d="M23.1929 5.09295C23.5382 5.09295 23.8182 4.81312 23.8182 4.46793C23.8182 4.12274 23.5382 3.84291 23.1929 3.84291C22.8476 3.84291 22.5676 4.12274 22.5676 4.46793C22.5676 4.81312 22.8476 5.09295 23.1929 5.09295Z" fill="#6B3D44"/>
<path d="M23.35 4.47815C23.5047 4.47815 23.6302 4.35277 23.6302 4.19809C23.6302 4.04342 23.5047 3.91803 23.35 3.91803C23.1953 3.91803 23.0698 4.04342 23.0698 4.19809C23.0698 4.35277 23.1953 4.47815 23.35 4.47815Z" fill="#9B616C"/>
<path d="M23.7157 6.1483C24.0611 6.1483 24.341 5.86847 24.341 5.52329C24.341 5.1781 24.0611 4.89827 23.7157 4.89827C23.3704 4.89827 23.0905 5.1781 23.0905 5.52329C23.0905 5.86847 23.3704 6.1483 23.7157 6.1483Z" fill="#6B3D44"/>
<path d="M23.8727 5.53353C24.0274 5.53353 24.1529 5.40814 24.1529 5.25347C24.1529 5.09879 24.0274 4.9734 23.8727 4.9734C23.718 4.9734 23.5925 5.09879 23.5925 5.25347C23.5925 5.40814 23.718 5.53353 23.8727 5.53353Z" fill="#9B616C"/>
<path d="M24.0915 7.26513C24.4368 7.26513 24.7167 6.9853 24.7167 6.64011C24.7167 6.29492 24.4368 6.01509 24.0915 6.01509C23.7461 6.01509 23.4662 6.29492 23.4662 6.64011C23.4662 6.9853 23.7461 7.26513 24.0915 7.26513Z" fill="#6B3D44"/>
<path d="M24.252 6.65377C24.4067 6.65377 24.5322 6.52838 24.5322 6.37371C24.5322 6.21903 24.4067 6.09364 24.252 6.09364C24.0972 6.09364 23.9718 6.21903 23.9718 6.37371C23.9718 6.52838 24.0972 6.65377 24.252 6.65377Z" fill="#9B616C"/>
<path d="M24.2521 8.45368C24.5974 8.45368 24.8774 8.17385 24.8774 7.82866C24.8774 7.48347 24.5974 7.20364 24.2521 7.20364C23.9068 7.20364 23.6268 7.48347 23.6268 7.82866C23.6268 8.17385 23.9068 8.45368 24.2521 8.45368Z" fill="#6B3D44"/>
<path d="M24.4092 7.8389C24.5639 7.8389 24.6894 7.71351 24.6894 7.55884C24.6894 7.40417 24.5639 7.27878 24.4092 7.27878C24.2545 7.27878 24.129 7.40417 24.129 7.55884C24.129 7.71351 24.2545 7.8389 24.4092 7.8389Z" fill="#9B616C"/>
<path d="M24.3408 9.69347C24.6862 9.69347 24.9661 9.41364 24.9661 9.06845C24.9661 8.72326 24.6862 8.44344 24.3408 8.44344C23.9955 8.44344 23.7156 8.72326 23.7156 9.06845C23.7156 9.41364 23.9955 9.69347 24.3408 9.69347Z" fill="#6B3D44"/>
<path d="M24.4979 9.08213C24.6527 9.08213 24.7781 8.95674 24.7781 8.80207C24.7781 8.64739 24.6527 8.522 24.4979 8.522C24.3432 8.522 24.2178 8.64739 24.2178 8.80207C24.2178 8.95674 24.3432 9.08213 24.4979 9.08213Z" fill="#9B616C"/>
<path d="M24.4297 10.9367C24.775 10.9367 25.055 10.6568 25.055 10.3117C25.055 9.96647 24.775 9.68665 24.4297 9.68665C24.0844 9.68665 23.8044 9.96647 23.8044 10.3117C23.8044 10.6568 24.0844 10.9367 24.4297 10.9367Z" fill="#6B3D44"/>
<path d="M24.5869 10.3219C24.7417 10.3219 24.8671 10.1965 24.8671 10.0418C24.8671 9.88717 24.7417 9.76178 24.5869 9.76178C24.4322 9.76178 24.3068 9.88717 24.3068 10.0418C24.3068 10.1965 24.4322 10.3219 24.5869 10.3219Z" fill="#9B616C"/>
<path d="M24.5186 12.1765C24.8639 12.1765 25.1439 11.8966 25.1439 11.5515C25.1439 11.2063 24.8639 10.9264 24.5186 10.9264C24.1733 10.9264 23.8933 11.2063 23.8933 11.5515C23.8933 11.8966 24.1733 12.1765 24.5186 12.1765Z" fill="#6B3D44"/>
<path d="M24.6757 11.5651C24.8304 11.5651 24.9559 11.4397 24.9559 11.2851C24.9559 11.1304 24.8304 11.005 24.6757 11.005C24.5209 11.005 24.3955 11.1304 24.3955 11.2851C24.3955 11.4397 24.5209 11.5651 24.6757 11.5651Z" fill="#9B616C"/>
<path d="M24.7201 13.2489C25.0654 13.2489 25.3454 12.9691 25.3454 12.6239C25.3454 12.2787 25.0654 11.9989 24.7201 11.9989C24.3748 11.9989 24.0948 12.2787 24.0948 12.6239C24.0948 12.9691 24.3748 13.2489 24.7201 13.2489Z" fill="#6B3D44"/>
<path d="M24.8773 12.6375C25.0321 12.6375 25.1575 12.5122 25.1575 12.3575C25.1575 12.2028 25.0321 12.0774 24.8773 12.0774C24.7226 12.0774 24.5972 12.2028 24.5972 12.3575C24.5972 12.5122 24.7226 12.6375 24.8773 12.6375Z" fill="#9B616C"/>
<path d="M24.7782 14.4545C25.1236 14.4545 25.4035 14.1747 25.4035 13.8295C25.4035 13.4843 25.1236 13.2045 24.7782 13.2045C24.4329 13.2045 24.153 13.4843 24.153 13.8295C24.153 14.1747 24.4329 14.4545 24.7782 14.4545Z" fill="#6B3D44"/>
<path d="M24.9387 13.8431C25.0935 13.8431 25.2189 13.7178 25.2189 13.5631C25.2189 13.4084 25.0935 13.283 24.9387 13.283C24.784 13.283 24.6586 13.4084 24.6586 13.5631C24.6586 13.7178 24.784 13.8431 24.9387 13.8431Z" fill="#9B616C"/>
<path d="M24.9661 15.7046C25.3114 15.7046 25.5914 15.4248 25.5914 15.0796C25.5914 14.7344 25.3114 14.4546 24.9661 14.4546C24.6208 14.4546 24.3408 14.7344 24.3408 15.0796C24.3408 15.4248 24.6208 15.7046 24.9661 15.7046Z" fill="#6B3D44"/>
<path d="M25.1267 15.0898C25.2815 15.0898 25.4069 14.9644 25.4069 14.8098C25.4069 14.6551 25.2815 14.5297 25.1267 14.5297C24.972 14.5297 24.8466 14.6551 24.8466 14.8098C24.8466 14.9644 24.972 15.0898 25.1267 15.0898Z" fill="#9B616C"/>
<path d="M29.4148 15.0761C29.7602 15.0761 30.0401 14.7963 30.0401 14.4511C30.0401 14.1059 29.7602 13.8261 29.4148 13.8261C29.0695 13.8261 28.7896 14.1059 28.7896 14.4511C28.7896 14.7963 29.0695 15.0761 29.4148 15.0761Z" fill="#6B3D44"/>
<path d="M29.5753 14.4648C29.7301 14.4648 29.8555 14.3394 29.8555 14.1847C29.8555 14.0301 29.7301 13.9047 29.5753 13.9047C29.4206 13.9047 29.2952 14.0301 29.2952 14.1847C29.2952 14.3394 29.4206 14.4648 29.5753 14.4648Z" fill="#9B616C"/>
<path d="M25.4718 16.8863C25.8172 16.8863 26.0971 16.6065 26.0971 16.2613C26.0971 15.9161 25.8172 15.6363 25.4718 15.6363C25.1265 15.6363 24.8466 15.9161 24.8466 16.2613C24.8466 16.6065 25.1265 16.8863 25.4718 16.8863Z" fill="#44272E"/>
<path d="M25.6291 16.2749C25.7838 16.2749 25.9092 16.1496 25.9092 15.9949C25.9092 15.8402 25.7838 15.7148 25.6291 15.7148C25.4743 15.7148 25.3489 15.8402 25.3489 15.9949C25.3489 16.1496 25.4743 16.2749 25.6291 16.2749Z" fill="#6B3D44"/>
<path d="M26.0698 18.0407C26.4152 18.0407 26.6951 17.7609 26.6951 17.4157C26.6951 17.0705 26.4152 16.7906 26.0698 16.7906C25.7245 16.7906 25.4446 17.0705 25.4446 17.4157C25.4446 17.7609 25.7245 18.0407 26.0698 18.0407Z" fill="#44272E"/>
<path d="M26.227 17.4259C26.3817 17.4259 26.5071 17.3006 26.5071 17.1459C26.5071 16.9912 26.3817 16.8658 26.227 16.8658C26.0722 16.8658 25.9468 16.9912 25.9468 17.1459C25.9468 17.3006 26.0722 17.4259 26.227 17.4259Z" fill="#6B3D44"/>
<path d="M27.3238 18.0407C27.6691 18.0407 27.949 17.7609 27.949 17.4157C27.949 17.0705 27.6691 16.7906 27.3238 16.7906C26.9784 16.7906 26.6985 17.0705 26.6985 17.4157C26.6985 17.7609 26.9784 18.0407 27.3238 18.0407Z" fill="#44272E"/>
<path d="M27.4809 17.4259C27.6356 17.4259 27.761 17.3006 27.761 17.1459C27.761 16.9912 27.6356 16.8658 27.4809 16.8658C27.3261 16.8658 27.2007 16.9912 27.2007 17.1459C27.2007 17.3006 27.3261 17.4259 27.4809 17.4259Z" fill="#6B3D44"/>
<path d="M28.4752 17.4157C28.8206 17.4157 29.1005 17.1359 29.1005 16.7907C29.1005 16.4455 28.8206 16.1656 28.4752 16.1656C28.1299 16.1656 27.85 16.4455 27.85 16.7907C27.85 17.1359 28.1299 17.4157 28.4752 17.4157Z" fill="#44272E"/>
<path d="M28.6323 16.8009C28.7871 16.8009 28.9125 16.6756 28.9125 16.5209C28.9125 16.3662 28.7871 16.2408 28.6323 16.2408C28.4776 16.2408 28.3522 16.3662 28.3522 16.5209C28.3522 16.6756 28.4776 16.8009 28.6323 16.8009Z" fill="#6B3D44"/>
<path d="M28.9774 16.2613C29.3228 16.2613 29.6027 15.9815 29.6027 15.6363C29.6027 15.2911 29.3228 15.0113 28.9774 15.0113C28.6321 15.0113 28.3522 15.2911 28.3522 15.6363C28.3522 15.9815 28.6321 16.2613 28.9774 16.2613Z" fill="#44272E"/>
<path d="M29.1345 15.6465C29.2893 15.6465 29.4147 15.5211 29.4147 15.3665C29.4147 15.2118 29.2893 15.0864 29.1345 15.0864C28.9798 15.0864 28.8544 15.2118 28.8544 15.3665C28.8544 15.5211 28.9798 15.6465 29.1345 15.6465Z" fill="#6B3D44"/>
</svg>
