<svg width="29" height="30" viewBox="0 0 29 30" fill="none" xmlns="http://www.w3.org/2000/svg">
<path fill-rule="evenodd" clip-rule="evenodd" d="M27.9961 17.6712L18.0848 13.398L0.076416 24.8874L10.6604 29.4495L27.9961 17.6712Z" fill="#697C8D"/>
<path fill-rule="evenodd" clip-rule="evenodd" d="M28.0174 17.7072C28.0289 17.6983 28.0353 17.6829 28.0341 17.6671C28.0326 17.6514 28.0239 17.6376 28.0111 17.6312H28.0132L18.109 13.3415C18.0903 13.3334 18.0688 13.3352 18.0516 13.3461C18.0516 13.3461 14.6727 15.494 10.8428 17.9333C5.82624 21.1285 0.0352836 24.8231 0.0352836 24.8231C0.011457 24.8383 -0.00201016 24.8654 0.000244524 24.8936C0.00256014 24.9218 0.0201711 24.9464 0.0461305 24.9576L10.6307 29.5182C10.6543 29.5284 10.6812 29.5257 10.7024 29.5114C10.7024 29.5114 13.9508 27.3026 17.6317 24.7928C22.4532 21.5055 28.0174 17.7028 28.0174 17.7028V17.7072ZM27.9113 17.6822C27.2835 18.1063 22.0895 21.6151 17.5574 24.6835C14.088 27.0325 11.007 29.1238 10.6523 29.3646L0.238876 24.8743C1.09602 24.3274 6.33421 20.985 10.9199 18.0542C14.5454 15.7371 17.7629 13.6771 18.0905 13.4674L27.9113 17.6822Z" fill="#474A4C"/>
<path fill-rule="evenodd" clip-rule="evenodd" d="M26.451 17.8701C26.4674 17.8574 26.4763 17.8356 26.4743 17.8131C26.4721 17.7908 26.4595 17.7716 26.441 17.7631H26.4439L17.801 14.2331C17.7751 14.2226 17.7456 14.2254 17.7222 14.2406C17.7222 14.2406 14.7244 16.1676 11.3276 18.358C6.87828 21.227 1.74387 24.5468 1.74387 24.5468C1.71072 24.5682 1.69208 24.6061 1.69531 24.6455C1.6986 24.6848 1.72322 24.7191 1.75941 24.7348L10.6267 28.5754C10.6597 28.5897 10.6977 28.5862 10.7275 28.566C10.7275 28.566 13.679 26.5668 17.0219 24.2925C21.4004 21.3136 26.451 17.864 26.451 17.864V17.8701ZM26.2996 17.8364C25.5966 18.3077 20.9653 21.4132 16.9171 24.1378C13.8121 26.2275 11.0506 28.0938 10.6574 28.3594L2.0279 24.618C2.94629 24.024 7.46773 21.0997 11.4365 18.5265C14.6072 16.4708 17.425 14.6385 17.7782 14.4089C18.4211 14.6675 26.2996 17.8364 26.2996 17.8364Z" fill="#474A4C"/>
<path fill-rule="evenodd" clip-rule="evenodd" d="M27.2093 17.7799C27.2257 17.7673 27.2346 17.7454 27.2325 17.723C27.2304 17.7007 27.2176 17.6813 27.1992 17.6729H27.202L17.6872 13.8222C17.6612 13.8117 17.6317 13.8145 17.6081 13.8298C17.6081 13.8298 14.4672 15.8438 10.908 18.1325C6.24604 21.1304 0.865809 24.5989 0.865809 24.5989C0.832659 24.6202 0.813951 24.6581 0.81712 24.6974C0.820288 24.7367 0.844846 24.7711 0.880982 24.7869L10.5904 29.0221C10.6234 29.0366 10.6615 29.0331 10.6912 29.0129C10.6912 29.0129 13.7916 26.9129 17.3033 24.5244C21.903 21.3959 27.2093 17.7738 27.2093 17.7738V17.7799ZM27.0577 17.7465C26.3343 18.2318 21.4595 21.5023 17.1989 24.3703C13.9314 26.5699 11.0257 28.5334 10.6215 28.8065L1.14947 24.6706C2.09297 24.0623 6.84603 20.9972 11.017 18.3016C14.3446 16.1508 17.3016 14.2346 17.6644 13.9994L27.0577 17.7465Z" fill="#FDA381"/>
<path fill-rule="evenodd" clip-rule="evenodd" d="M25.7798 18.01C25.7962 17.9975 25.8051 17.9755 25.8027 17.9532C25.8004 17.9309 25.7873 17.912 25.7687 17.9042C25.7712 17.9042 18.042 15.0317 18.042 15.0317C18.0183 15.0229 17.9918 15.0256 17.9701 15.0387C17.9701 15.0387 14.0987 17.3852 10.2303 19.7372C6.36197 22.089 2.49695 24.4462 2.49695 24.4462C2.46344 24.4666 2.44412 24.5041 2.44692 24.5433C2.44973 24.5824 2.47416 24.6168 2.51024 24.6322L10.6435 28.1136C10.6756 28.1273 10.7125 28.1239 10.7416 28.1045C10.7416 28.1045 13.5648 26.2183 16.7619 24.0719C20.9497 21.2605 25.7798 18.0041 25.7798 18.0041V18.01ZM25.6272 17.9788C24.9322 18.4384 20.5187 21.3566 16.6596 23.9186C13.692 25.8886 11.0526 27.6485 10.6734 27.9015L2.77989 24.5195C3.5728 24.0362 6.95496 21.9742 10.3346 19.9083C13.9859 17.6762 17.6342 15.4394 18.0225 15.2014L25.6272 17.9788Z" fill="#F98E66"/>
<path fill-rule="evenodd" clip-rule="evenodd" d="M13.269 16.2485C12.8476 16.6714 12.2681 17.2033 11.9098 17.9521C11.2293 19.3743 11.1513 20.3657 11.4875 21.0859C11.8696 21.9045 12.7869 22.3728 13.9631 22.7249C16.3437 23.4375 19.1718 22.7125 21.258 21.6785C21.5069 21.5551 22.4462 21.1759 22.8058 20.8222C23.2463 20.3888 22.7111 19.3668 22.9297 19.3291" fill="#57636D"/>
<path fill-rule="evenodd" clip-rule="evenodd" d="M13.2597 15.7577C12.8384 16.1807 12.2588 16.7127 11.9006 17.4615C11.2201 18.8836 11.142 19.875 11.4782 20.5952C11.8603 21.4138 12.7777 21.8821 13.9537 22.2342C16.3345 22.9468 19.1624 22.2218 21.2488 21.1877C21.4976 21.0644 22.4369 20.6852 22.7964 20.3315C23.2371 19.898 22.7019 18.8761 22.9203 18.8384" fill="#A80000"/>
<mask id="mask0_38_151" style="mask-type:luminance" maskUnits="userSpaceOnUse" x="17" y="19" width="5" height="3">
<path d="M17.2834 19.67H21.2614V21.7292H17.2834V19.67Z" fill="white"/>
</mask>
<g mask="url(#mask0_38_151)">
<mask id="mask1_38_151" style="mask-type:luminance" maskUnits="userSpaceOnUse" x="11" y="15" width="12" height="8">
<path fill-rule="evenodd" clip-rule="evenodd" d="M13.2597 15.7577C12.8384 16.1807 12.2588 16.7127 11.9006 17.4615C11.2201 18.8836 11.142 19.875 11.4782 20.5952C11.8603 21.4138 12.7777 21.8821 13.9537 22.2342C16.3345 22.9468 19.1624 22.2218 21.2488 21.1877C21.4976 21.0644 22.4369 20.6852 22.7964 20.3315C23.2371 19.898 22.7019 18.8761 22.9203 18.8384" fill="white"/>
</mask>
<g mask="url(#mask1_38_151)">
<path fill-rule="evenodd" clip-rule="evenodd" d="M21.198 19.8509C21.201 19.8507 21.2035 19.8502 21.2021 19.8479L21.2018 19.8476C21.2431 19.8303 21.2661 19.7843 21.2536 19.74C21.2402 19.6921 21.1902 19.6642 21.1423 19.6777C21.1196 19.6823 20.9464 19.7834 20.7311 19.919C20.5934 20.0057 20.4372 20.1047 20.2948 20.198C20.1018 20.3242 19.9363 20.4373 19.877 20.4678C19.5327 20.6587 19.2073 20.8063 18.8903 20.9397C18.6847 21.0263 18.4816 21.104 18.2785 21.1833C18.1242 21.2435 17.9723 21.3066 17.8153 21.368C17.6617 21.428 17.5082 21.4894 17.3475 21.5508C17.3027 21.5634 17.2768 21.6099 17.2893 21.6545C17.3019 21.6992 17.3484 21.7252 17.393 21.7126C17.6802 21.6573 17.9523 21.6086 18.22 21.5401C18.4033 21.4932 18.5825 21.4375 18.7618 21.3745C18.9802 21.2977 19.1972 21.2068 19.4189 21.1028C19.6238 21.0066 19.8315 20.8958 20.0477 20.7715C20.1031 20.7377 20.2502 20.6315 20.4196 20.4956C20.6364 20.3216 20.8926 20.1023 21.057 19.9662C21.1221 19.9123 21.1706 19.871 21.1962 19.8526L21.198 19.8509ZM21.2016 19.8475C21.2015 19.8476 21.2013 19.8476 21.2012 19.8476L21.2007 19.8481C21.1976 19.8494 21.1945 19.8504 21.1913 19.8513C21.1924 19.8509 21.1954 19.8511 21.198 19.8509C21.199 19.8499 21.1999 19.8487 21.2007 19.8481L21.2018 19.8476L21.2016 19.8475Z" fill="#760B0B"/>
</g>
</g>
<path fill-rule="evenodd" clip-rule="evenodd" d="M13.2244 15.7226C12.9544 15.9901 12.6204 16.3013 12.3189 16.6842C12.1427 16.9079 11.9777 17.1559 11.8425 17.4337C11.4882 18.1637 11.2927 18.782 11.2301 19.3095C11.1685 19.8297 11.2358 20.2631 11.4048 20.6295C11.5797 21.0067 11.8635 21.3132 12.2326 21.5686C12.6847 21.8816 13.2663 22.1178 13.9289 22.3173C15.1236 22.6749 16.4299 22.6765 17.7002 22.4561C18.3267 22.3474 18.9448 22.1853 19.5354 21.9851C20.1538 21.7755 20.7419 21.5237 21.2809 21.2527C21.4355 21.1746 21.8575 20.9952 22.2402 20.7844C22.4773 20.6537 22.6994 20.5108 22.8372 20.3728C22.9593 20.2503 23.0128 20.0868 23.0256 19.9096C23.0482 19.598 22.9447 19.2437 22.9163 19.0283C22.9099 18.9802 22.9069 18.9398 22.9122 18.9098C22.9147 18.8955 22.9163 18.8836 22.9278 18.8816C22.9515 18.8774 22.9676 18.8547 22.9635 18.831C22.9593 18.8072 22.9367 18.7913 22.913 18.7953C22.8738 18.802 22.8476 18.8259 22.8331 18.8664C22.8195 18.905 22.8184 18.9646 22.827 19.0392C22.8511 19.2498 22.9472 19.5972 22.9191 19.9009C22.9053 20.0502 22.861 20.1887 22.7559 20.2902C22.6222 20.4194 22.4072 20.5506 22.1792 20.6714C21.7946 20.875 21.3717 21.0473 21.2165 21.1228C20.6806 21.3846 20.0955 21.6245 19.4825 21.8271C18.8985 22.0202 18.2888 22.1789 17.6706 22.285C16.4267 22.4984 15.1482 22.5012 13.9787 22.1511C13.3343 21.9592 12.7685 21.7324 12.328 21.4302C11.9835 21.1937 11.7162 20.9112 11.5517 20.561C11.3904 20.2194 11.327 19.814 11.3799 19.3265C11.4359 18.8111 11.6208 18.2058 11.9586 17.4893C12.0862 17.218 12.2432 16.9753 12.4114 16.7559C12.7047 16.3733 13.0313 16.0611 13.295 15.7928C13.3145 15.7734 13.3143 15.7419 13.2948 15.7224C13.2755 15.7031 13.2439 15.7031 13.2244 15.7226Z" fill="#760B0B"/>
<path fill-rule="evenodd" clip-rule="evenodd" d="M11.038 14.5741C11.5341 12.2322 12.5074 10.6938 13.6021 7.71352C13.8957 6.91421 14.3982 6.2651 14.0915 4.24222C13.7224 1.8071 15.3264 0.0442963 17.3002 0.0442963C19.2741 0.0442963 19.9079 1.87151 20.7585 4.18293C21.6257 6.53932 21.7458 7.05863 22.5018 9.33471C23.2095 11.4655 23.6278 15.7975 23.82 17.4398C24.0692 19.5685 18.7654 19.7189 17.0018 19.7904C15.8468 19.8373 13.0787 19.1244 11.9363 17.9354C11.026 16.9884 10.6597 16.36 11.038 14.5741Z" fill="#F56237"/>
<mask id="mask2_38_151" style="mask-type:luminance" maskUnits="userSpaceOnUse" x="15" y="6" width="3" height="14">
<path d="M15.0526 6.65961H17.3302V19.7636H15.0526V6.65961Z" fill="white"/>
</mask>
<g mask="url(#mask2_38_151)">
<mask id="mask3_38_151" style="mask-type:luminance" maskUnits="userSpaceOnUse" x="10" y="0" width="14" height="20">
<path fill-rule="evenodd" clip-rule="evenodd" d="M11.038 14.5741C11.5341 12.2322 12.5074 10.6938 13.6021 7.71352C13.8957 6.91421 14.3982 6.2651 14.0915 4.24222C13.7224 1.8071 15.3264 0.0442963 17.3002 0.0442963C19.2741 0.0442963 19.9079 1.87151 20.7585 4.18293C21.6257 6.53932 21.7458 7.05863 22.5018 9.33471C23.2095 11.4655 23.6278 15.7975 23.82 17.4398C24.0692 19.5685 18.7654 19.7189 17.0018 19.7904C15.8468 19.8373 13.0787 19.1244 11.9363 17.9354C11.026 16.9884 10.6597 16.36 11.038 14.5741Z" fill="white"/>
</mask>
<g mask="url(#mask3_38_151)">
<path fill-rule="evenodd" clip-rule="evenodd" d="M17.2292 6.84821C17.2445 6.82109 17.2498 6.78831 17.2417 6.75589C17.225 6.68801 17.1562 6.64669 17.0885 6.66351C17.0948 6.66211 17.1119 6.6601 17.1119 6.6601C17.1119 6.6601 17.02 6.69422 17.0013 6.72841C16.9945 6.74102 16.9867 6.76192 16.9825 6.7913C16.9771 6.82902 16.9773 6.90391 16.9817 6.998C16.9945 7.271 17.0419 7.72839 17.0422 7.80353L17.042 7.89573C17.0397 8.1786 17.021 8.4619 16.9952 8.74489C16.9561 9.17371 16.8996 9.60192 16.8499 10.0267C16.736 11.0621 16.5837 12.0923 16.4112 13.1194C16.3078 13.7359 16.1959 14.3512 16.0798 14.9655C16.0023 15.3755 15.9248 15.7853 15.843 16.1942C15.71 16.9029 15.5883 17.6011 15.4338 18.2941C15.3313 18.7538 15.2154 19.2108 15.0677 19.6661C15.0543 19.7038 15.0741 19.7453 15.1117 19.7587C15.1495 19.7721 15.1909 19.7523 15.2044 19.7146C15.3788 19.2625 15.5231 18.8076 15.6497 18.3477C15.8388 17.6606 15.9886 16.9646 16.1535 16.2597C16.2441 15.851 16.3335 15.4418 16.4165 15.0313C16.541 14.4155 16.6549 13.7972 16.7583 13.1774C16.9308 12.1436 17.0712 11.1047 17.1789 10.0618C17.2202 9.6333 17.269 9.2015 17.2987 8.76902C17.3185 8.47732 17.3296 8.18561 17.3247 7.89469L17.3222 7.79823C17.3196 7.712 17.2427 7.1284 17.2341 6.88581C17.2338 6.87381 17.231 6.85991 17.2292 6.84821ZM17.2285 6.8423C17.2339 6.83529 17.2431 6.82432 17.2342 6.82341C17.2275 6.82262 17.2269 6.8306 17.2285 6.8423Z" fill="#F43A04"/>
</g>
</g>
<mask id="mask4_38_151" style="mask-type:luminance" maskUnits="userSpaceOnUse" x="18" y="8" width="5" height="11">
<path d="M18.2194 8.81241H22.0102V18.4688H18.2194V8.81241Z" fill="white"/>
</mask>
<g mask="url(#mask4_38_151)">
<mask id="mask5_38_151" style="mask-type:luminance" maskUnits="userSpaceOnUse" x="10" y="0" width="14" height="20">
<path fill-rule="evenodd" clip-rule="evenodd" d="M11.038 14.5741C11.5341 12.2322 12.5074 10.6938 13.6021 7.71352C13.8957 6.91421 14.3982 6.2651 14.0915 4.24222C13.7224 1.8071 15.3264 0.0442963 17.3002 0.0442963C19.2741 0.0442963 19.9079 1.87151 20.7585 4.18293C21.6257 6.53932 21.7458 7.05863 22.5018 9.33471C23.2095 11.4655 23.6278 15.7975 23.82 17.4398C24.0692 19.5685 18.7654 19.7189 17.0018 19.7904C15.8468 19.8373 13.0787 19.1244 11.9363 17.9354C11.026 16.9884 10.6597 16.36 11.038 14.5741Z" fill="white"/>
</mask>
<g mask="url(#mask5_38_151)">
<path fill-rule="evenodd" clip-rule="evenodd" d="M21.3392 8.90442C21.3349 8.8692 21.3099 8.83812 21.2736 8.82782C21.2729 8.8277 21.1472 8.83099 21.1589 8.93422C21.1598 8.94202 21.1617 8.95859 21.1647 8.98279C21.1742 9.0642 21.1934 9.23421 21.2204 9.4659C21.2865 10.0348 21.3898 10.9747 21.4812 11.8814C21.5335 12.3996 21.584 12.9066 21.6126 13.3272C21.642 13.7601 21.6545 14.0963 21.6207 14.2445C21.4232 15.1316 21.1466 15.6775 20.7385 16.1502C20.4789 16.4509 20.1669 16.7221 19.7895 17.0322C19.3646 17.3815 18.8626 17.7808 18.257 18.3106C18.2206 18.3403 18.2152 18.3938 18.2448 18.4301C18.2745 18.4665 18.3281 18.4719 18.3645 18.4423C19.0035 17.9559 19.5356 17.5993 19.9774 17.2734C20.3895 16.9693 20.7257 16.6941 21.0043 16.3848C21.4578 15.8814 21.7586 15.2862 21.9778 14.325C22.0172 14.1471 22.01 13.7269 21.9634 13.1918C21.9219 12.7149 21.855 12.1425 21.775 11.5739C21.6369 10.5925 21.4664 9.623 21.3867 9.16852C21.3661 9.05122 21.3509 8.96859 21.3438 8.92892C21.3416 8.9171 21.3402 8.90911 21.3396 8.9054L21.3392 8.90442Z" fill="#FE3A00"/>
</g>
</g>
<mask id="mask6_38_151" style="mask-type:luminance" maskUnits="userSpaceOnUse" x="12" y="9" width="3" height="9">
<path d="M12.931 9.04642H14.3662V17.3456H12.931V9.04642Z" fill="white"/>
</mask>
<g mask="url(#mask6_38_151)">
<mask id="mask7_38_151" style="mask-type:luminance" maskUnits="userSpaceOnUse" x="10" y="0" width="14" height="20">
<path fill-rule="evenodd" clip-rule="evenodd" d="M11.038 14.5741C11.5341 12.2322 12.5074 10.6938 13.6021 7.71352C13.8957 6.91421 14.3982 6.2651 14.0915 4.24222C13.7224 1.8071 15.3264 0.0442963 17.3002 0.0442963C19.2741 0.0442963 19.9079 1.87151 20.7585 4.18293C21.6257 6.53932 21.7458 7.05863 22.5018 9.33471C23.2095 11.4655 23.6278 15.7975 23.82 17.4398C24.0692 19.5685 18.7654 19.7189 17.0018 19.7904C15.8468 19.8373 13.0787 19.1244 11.9363 17.9354C11.026 16.9884 10.6597 16.36 11.038 14.5741Z" fill="white"/>
</mask>
<g mask="url(#mask7_38_151)">
<path fill-rule="evenodd" clip-rule="evenodd" d="M13.8176 9.16451C13.8712 9.57132 13.9108 10.1662 13.9424 10.8034C13.9605 11.1643 13.9749 11.5382 13.9863 11.8993C14.0095 12.6316 14.0164 13.3091 13.9679 13.7053C13.9281 14.0596 13.854 14.4236 13.7677 14.7782C13.7088 15.0209 13.6431 15.2588 13.5766 15.4862C13.483 15.8068 13.388 16.1054 13.2969 16.363C13.1476 16.7846 13.0175 17.0944 12.9518 17.2066C12.9266 17.2454 12.9375 17.2976 12.9765 17.3228C13.0153 17.3481 13.0674 17.3372 13.0927 17.2982C13.1717 17.1884 13.3417 16.8823 13.5334 16.458C13.6484 16.2037 13.7723 15.9079 13.8863 15.5861C13.9676 15.3564 14.0429 15.1136 14.1092 14.8654C14.2076 14.4975 14.2833 14.117 14.3284 13.7476C14.3607 13.4678 14.3716 13.0526 14.3599 12.5767C14.3512 12.2163 14.3317 11.8207 14.3002 11.4232C14.269 11.0318 14.2262 10.6392 14.1796 10.276C14.1226 9.83122 14.057 9.43233 13.9955 9.13471C13.9872 9.08559 13.9407 9.05232 13.8916 9.06061C13.8425 9.0689 13.8094 9.11551 13.8176 9.16451Z" fill="#FE3A00"/>
</g>
</g>
<mask id="mask8_38_151" style="mask-type:luminance" maskUnits="userSpaceOnUse" x="17" y="5" width="3" height="5">
<path d="M17.4862 5.70801H19.639V9.56121H17.4862V5.70801Z" fill="white"/>
</mask>
<g mask="url(#mask8_38_151)">
<mask id="mask9_38_151" style="mask-type:luminance" maskUnits="userSpaceOnUse" x="10" y="0" width="14" height="20">
<path fill-rule="evenodd" clip-rule="evenodd" d="M11.038 14.5741C11.5341 12.2322 12.5074 10.6938 13.6021 7.71352C13.8957 6.91421 14.3982 6.2651 14.0915 4.24222C13.7224 1.8071 15.3264 0.0442963 17.3002 0.0442963C19.2741 0.0442963 19.9079 1.87151 20.7585 4.18293C21.6257 6.53932 21.7458 7.05863 22.5018 9.33471C23.2095 11.4655 23.6278 15.7975 23.82 17.4398C24.0692 19.5685 18.7654 19.7189 17.0018 19.7904C15.8468 19.8373 13.0787 19.1244 11.9363 17.9354C11.026 16.9884 10.6597 16.36 11.038 14.5741Z" fill="white"/>
</mask>
<g mask="url(#mask9_38_151)">
<path fill-rule="evenodd" clip-rule="evenodd" d="M19.629 5.8286C19.6324 5.82281 19.6349 5.81702 19.6298 5.81641C19.6318 5.80209 19.6306 5.78692 19.6253 5.77229C19.6193 5.75121 19.6067 5.74189 19.6006 5.73549C19.5763 5.70941 19.5474 5.71081 19.5226 5.71361C19.503 5.7158 19.4771 5.72939 19.4571 5.76559C19.454 5.7712 19.4487 5.79801 19.4467 5.8091C19.4376 5.85852 19.4186 5.90599 19.3978 5.9537C19.3635 6.0328 19.3198 6.10879 19.2824 6.18192C19.2286 6.28929 19.1688 6.39319 19.108 6.49782C19.0164 6.6557 18.9205 6.8111 18.8222 6.96289C18.6777 7.20262 18.5261 7.4343 18.3801 7.66812C18.2313 7.90669 18.0829 8.14441 17.9483 8.39029C17.894 8.48962 17.8434 8.59041 17.7952 8.69309C17.6832 8.9316 17.5865 9.17529 17.4974 9.42909C17.4782 9.47132 17.497 9.52129 17.5392 9.5403C17.5815 9.5595 17.6313 9.54079 17.6505 9.4985C17.7314 9.35639 17.8168 9.2213 17.9032 9.08522C17.9902 8.9483 18.0802 8.81582 18.1682 8.6809C18.2387 8.57262 18.3074 8.4636 18.3766 8.3547C18.481 8.1906 18.5851 8.02631 18.6883 7.8608C18.8358 7.62412 18.9791 7.3836 19.12 7.1379C19.1935 7.00049 19.2676 6.86192 19.3337 6.7192C19.4006 6.57472 19.4599 6.42792 19.512 6.27911C19.5398 6.19691 19.5739 6.11092 19.5972 6.02281C19.6144 5.95809 19.6273 5.89332 19.629 5.8286ZM19.4766 5.86681C19.4995 5.89252 19.5264 5.89551 19.5443 5.89332C19.5189 5.89441 19.4942 5.8846 19.4766 5.86681ZM19.6165 5.85151C19.6098 5.8623 19.6008 5.87162 19.5899 5.87869C19.5998 5.87302 19.6095 5.86461 19.6165 5.85151ZM19.6298 5.81641L19.629 5.81629C19.6262 5.81629 19.6273 5.8205 19.6282 5.82409C19.6273 5.82769 19.6262 5.83122 19.625 5.83482C19.6262 5.83299 19.6276 5.83079 19.629 5.8286V5.82781C19.629 5.82702 19.6285 5.82561 19.6282 5.82409L19.6298 5.81641Z" fill="#F43A04"/>
</g>
</g>
<path fill-rule="evenodd" clip-rule="evenodd" d="M10.9946 14.5649C10.8244 15.3685 10.8044 15.9402 10.9146 16.4116C11.0523 17.0004 11.3928 17.4341 11.9043 17.9663C12.4501 18.5342 13.3636 18.9953 14.2979 19.3172C15.3326 19.6737 16.3925 19.8595 17.0035 19.8347C18.1419 19.7886 20.751 19.7088 22.3988 19.089C23.3311 18.7384 23.9551 18.2119 23.8641 17.4347C23.7468 16.433 23.5456 14.4314 23.2459 12.5383C23.0537 11.324 22.8208 10.1543 22.5439 9.32063C22.0687 7.89031 21.8448 7.1537 21.5286 6.21892C21.3417 5.66591 21.1226 5.04361 20.8001 4.1677C20.332 2.89532 19.9282 1.76963 19.3332 1.01181C18.8365 0.379031 18.2074 0 17.3002 0C16.2399 0 15.2849 0.501698 14.6768 1.34063C14.1386 2.08333 13.8721 3.09081 14.0476 4.24881C14.162 5.00333 14.1634 5.5653 14.1046 6.01502C14.0068 6.764 13.7428 7.2019 13.5605 7.69823C12.822 9.70881 12.1387 11.063 11.6199 12.4506C11.369 13.1217 11.1565 13.8007 10.9946 14.5649ZM11.0813 14.5833C11.2422 13.8237 11.4535 13.1489 11.703 12.4817C12.2218 11.0941 12.9051 9.73952 13.6438 7.72883C13.8282 7.22701 14.0937 6.78381 14.1926 6.0266C14.2522 5.57042 14.2514 5.00053 14.1353 4.23552C13.9639 3.10373 14.2225 2.11861 14.7487 1.39273C15.3401 0.576712 16.2689 0.0886031 17.3002 0.0886031C18.1763 0.0886031 18.7837 0.455325 19.2635 1.06653C19.8538 1.81831 20.2524 2.93603 20.717 4.19823C21.0389 5.07341 21.258 5.69491 21.4447 6.24731C21.7608 7.18191 21.9846 7.9184 22.4598 9.34873C22.7354 10.1786 22.9669 11.3432 23.1582 12.5522C23.4577 14.4438 23.6588 16.4441 23.776 17.445C23.8625 18.1844 23.2546 18.6725 22.3676 19.006C20.7282 19.6226 18.1324 19.7002 16.9999 19.7461C16.3962 19.7706 15.3492 19.5856 14.3267 19.2334C13.4065 18.9164 12.5057 18.4641 11.9682 17.9049C11.4698 17.3862 11.1351 16.9651 11.001 16.3913C10.893 15.9297 10.9147 15.3702 11.0813 14.5833Z" fill="#F43A04"/>
<path fill-rule="evenodd" clip-rule="evenodd" d="M14.6693 4.03333C14.672 4.02773 14.6748 4.02054 14.6777 4.0117C15.2058 2.4609 16.0789 1.48993 17.087 1.82721C17.7564 2.05122 18.4322 3.02421 19.2981 4.16331C19.3013 4.16752 19.3044 4.17124 19.3075 4.17471C19.2412 5.68243 18.2281 6.88131 16.9901 6.88131C15.7134 6.88131 14.6762 5.60662 14.6693 4.03333Z" fill="#F74B19"/>
<path fill-rule="evenodd" clip-rule="evenodd" d="M14.5897 3.83869C14.5924 3.83303 14.5952 3.8259 14.5983 3.817C15.1262 2.2662 15.9994 1.29522 17.0074 1.63251C17.6768 1.85652 18.3528 2.82951 19.2186 3.96861C19.2219 3.97282 19.225 3.9766 19.2279 3.98013C19.1616 5.48772 18.1487 6.68661 16.9106 6.68661C15.6339 6.68661 14.5966 5.41192 14.5897 3.83869Z" fill="#F4C586"/>
<mask id="mask10_38_151" style="mask-type:luminance" maskUnits="userSpaceOnUse" x="14" y="4" width="3" height="2">
<path d="M14.8966 4.61601H16.0978V5.14641H14.8966V4.61601Z" fill="white"/>
</mask>
<g mask="url(#mask10_38_151)">
<mask id="mask11_38_151" style="mask-type:luminance" maskUnits="userSpaceOnUse" x="14" y="1" width="6" height="6">
<path fill-rule="evenodd" clip-rule="evenodd" d="M14.5897 3.83869C14.5924 3.83303 14.5952 3.8259 14.5983 3.817C15.1262 2.2662 15.9994 1.29522 17.0074 1.63251C17.6768 1.85652 18.3528 2.82951 19.2186 3.96861C19.2219 3.97282 19.225 3.9766 19.2279 3.98013C19.1616 5.48772 18.1487 6.68661 16.9106 6.68661C15.6339 6.68661 14.5966 5.41192 14.5897 3.83869Z" fill="white"/>
</mask>
<g mask="url(#mask11_38_151)">
<path fill-rule="evenodd" clip-rule="evenodd" d="M15.4933 4.62973C15.8188 4.62973 16.0831 4.74301 16.0831 4.88262C16.0831 5.02211 15.8188 5.13533 15.4933 5.13533C15.1679 5.13533 14.9036 5.02211 14.9036 4.88262C14.9036 4.74301 15.1679 4.62973 15.4933 4.62973Z" fill="#FF4203"/>
</g>
</g>
<mask id="mask12_38_151" style="mask-type:luminance" maskUnits="userSpaceOnUse" x="17" y="4" width="2" height="2">
<path d="M17.4862 4.55362H18.6718V5.06842H17.4862V4.55362Z" fill="white"/>
</mask>
<g mask="url(#mask12_38_151)">
<mask id="mask13_38_151" style="mask-type:luminance" maskUnits="userSpaceOnUse" x="14" y="1" width="6" height="6">
<path fill-rule="evenodd" clip-rule="evenodd" d="M14.5897 3.83869C14.5924 3.83303 14.5952 3.8259 14.5983 3.817C15.1262 2.2662 15.9994 1.29522 17.0074 1.63251C17.6768 1.85652 18.3528 2.82951 19.2186 3.96861C19.2219 3.97282 19.225 3.9766 19.2279 3.98013C19.1616 5.48772 18.1487 6.68661 16.9106 6.68661C15.6339 6.68661 14.5966 5.41192 14.5897 3.83869Z" fill="white"/>
</mask>
<g mask="url(#mask13_38_151)">
<path fill-rule="evenodd" clip-rule="evenodd" d="M18.0802 4.55659C18.4057 4.55659 18.6699 4.66982 18.6699 4.8093C18.6699 4.94891 18.4057 5.06219 18.0802 5.06219C17.7548 5.06219 17.4906 4.94891 17.4906 4.8093C17.4906 4.66982 17.7548 4.55659 18.0802 4.55659Z" fill="#FF4203"/>
</g>
</g>
<mask id="mask14_38_151" style="mask-type:luminance" maskUnits="userSpaceOnUse" x="16" y="5" width="2" height="2">
<path d="M16.285 5.56761H17.3614V6.00441H16.285V5.56761Z" fill="white"/>
</mask>
<g mask="url(#mask14_38_151)">
<mask id="mask15_38_151" style="mask-type:luminance" maskUnits="userSpaceOnUse" x="14" y="1" width="6" height="6">
<path fill-rule="evenodd" clip-rule="evenodd" d="M14.5897 3.83869C14.5924 3.83303 14.5952 3.8259 14.5983 3.817C15.1262 2.2662 15.9994 1.29522 17.0074 1.63251C17.6768 1.85652 18.3528 2.82951 19.2186 3.96861C19.2219 3.97282 19.225 3.9766 19.2279 3.98013C19.1616 5.48772 18.1487 6.68661 16.9106 6.68661C15.6339 6.68661 14.5966 5.41192 14.5897 3.83869Z" fill="white"/>
</mask>
<g mask="url(#mask15_38_151)">
<path fill-rule="evenodd" clip-rule="evenodd" d="M16.3416 5.80113C16.5271 5.93513 16.6783 5.99643 16.8271 5.9943C16.9744 5.99211 17.1241 5.92782 17.307 5.78711C17.3589 5.7472 17.3687 5.67243 17.3286 5.62033C17.2885 5.56841 17.2138 5.5586 17.1619 5.59863C17.0313 5.69912 16.9288 5.75482 16.8237 5.7564C16.7173 5.75792 16.6135 5.70393 16.4809 5.60832C16.4277 5.56981 16.3533 5.58181 16.315 5.63501C16.2764 5.68821 16.2884 5.76262 16.3416 5.80113Z" fill="#FF4203"/>
</g>
</g>
<mask id="mask16_38_151" style="mask-type:luminance" maskUnits="userSpaceOnUse" x="14" y="1" width="6" height="4">
<path d="M14.5846 1.55841H19.2334V4.19481H14.5846V1.55841Z" fill="white"/>
</mask>
<g mask="url(#mask16_38_151)">
<mask id="mask17_38_151" style="mask-type:luminance" maskUnits="userSpaceOnUse" x="14" y="1" width="6" height="6">
<path fill-rule="evenodd" clip-rule="evenodd" d="M14.5896 3.83859C14.5923 3.83292 14.5951 3.82579 14.5982 3.81689C15.1261 2.26609 15.9993 1.29512 17.0073 1.63241C17.6767 1.85641 18.3527 2.8294 19.2185 3.96851C19.2218 3.97271 19.2249 3.97649 19.2278 3.98002C19.1615 5.48762 18.1486 6.6865 16.9105 6.6865C15.6338 6.6865 14.5965 5.41181 14.5896 3.83859Z" fill="white"/>
</mask>
<g mask="url(#mask17_38_151)">
<path fill-rule="evenodd" clip-rule="evenodd" d="M14.6257 4.08683C14.7889 3.78111 14.9235 3.47392 15.067 3.19659C15.1321 3.07082 15.1987 2.95193 15.2718 2.8431C15.3664 2.70129 15.4537 2.56211 15.5554 2.43402C15.6177 2.3559 15.6859 2.28241 15.767 2.21672C15.8426 2.15432 15.9228 2.09783 16.006 2.04622C16.0891 1.99472 16.1757 1.94872 16.2651 1.9085C16.3743 1.85871 16.4905 1.81331 16.6094 1.789C16.7142 1.76761 16.8212 1.76292 16.927 1.79211C17.0187 1.81691 17.1002 1.86322 17.1758 1.91892C17.3081 2.01611 17.4235 2.14122 17.536 2.25511C17.6036 2.32281 17.6678 2.39332 17.7312 2.46479C17.8842 2.63713 18.0296 2.81622 18.1808 2.99062L18.7675 3.60981C18.88 3.73181 18.9829 3.8978 19.1099 4.02522C19.1726 4.08811 19.2395 4.14332 19.3161 4.18092C19.3567 4.2034 19.4079 4.1886 19.4303 4.14783C19.4526 4.1073 19.438 4.05612 19.3973 4.03381C19.3414 3.9992 19.2946 3.9513 19.2517 3.89811C19.1397 3.75923 19.0586 3.583 18.9614 3.45022L18.4311 2.7821C18.3071 2.62652 18.1892 2.4665 18.0639 2.31221C17.9777 2.20599 17.8873 2.10301 17.7923 2.00411C17.6677 1.87589 17.5387 1.73623 17.3913 1.62703C17.2796 1.54421 17.1577 1.47852 17.0222 1.44172C16.8913 1.4068 16.7591 1.40259 16.6289 1.4202C16.4515 1.4444 16.2773 1.5096 16.116 1.5848C16.013 1.6333 15.9132 1.68821 15.818 1.75012C15.7227 1.81209 15.6317 1.88053 15.5458 1.9553C15.4483 2.0414 15.3659 2.13531 15.2935 2.23671C15.1931 2.37741 15.1108 2.53061 15.0204 2.68642C14.9495 2.80952 14.8854 2.94261 14.826 3.0838C14.7046 3.37142 14.5993 3.69013 14.463 4.00871C14.4414 4.05362 14.4603 4.10761 14.5053 4.12912C14.5502 4.15069 14.6042 4.1318 14.6257 4.08683Z" fill="#F1B15C"/>
</g>
</g>
<path fill-rule="evenodd" clip-rule="evenodd" d="M14.5735 3.83101C14.5724 3.83351 14.5718 3.83619 14.5718 3.83881C14.5751 4.57682 14.8039 5.24951 15.1776 5.75712C15.6058 6.3392 16.224 6.70452 16.9106 6.70452C17.5747 6.70452 18.1746 6.3629 18.6007 5.81392C18.9748 5.33221 19.2147 4.69059 19.2459 3.98092C19.246 3.97622 19.2445 3.97171 19.2414 3.96812L19.2329 3.95782C18.7005 3.25759 18.24 2.62 17.8085 2.1804C17.5355 1.90209 17.2737 1.70271 17.0132 1.61569C16.5251 1.45231 16.068 1.59101 15.6657 1.95249C15.2298 2.34401 14.8581 2.99812 14.5813 3.81121L14.5735 3.83101ZM14.6077 3.84192L14.6152 3.82272C14.8897 3.0164 15.2574 2.36741 15.6895 1.97912C16.0816 1.6269 16.5263 1.49052 17.0018 1.64951C17.2578 1.73513 17.5146 1.93189 17.7831 2.2055C18.2135 2.64431 18.673 3.2805 19.2044 3.97951L19.2098 3.9861C19.1777 4.68511 18.9411 5.31709 18.5724 5.7921C18.1534 6.33182 17.5636 6.66863 16.9106 6.66863C16.2352 6.66863 15.6276 6.30842 15.2064 5.73592C14.8375 5.23471 14.6116 4.57061 14.6077 3.84192Z" fill="#F6B052"/>
<path fill-rule="evenodd" clip-rule="evenodd" d="M14.7541 3.437C14.7526 3.43712 14.7218 3.43962 14.7128 3.44291C14.6953 3.449 14.6881 3.46143 14.6855 3.47021C14.6831 3.4777 14.6821 3.49001 14.6885 3.5047C14.6958 3.52091 14.7234 3.55351 14.7278 3.56131C14.7353 3.57453 14.7395 3.5891 14.7413 3.6039C14.7434 3.62011 14.7427 3.63663 14.7402 3.6529C14.7362 3.68001 14.7251 3.7036 14.7095 3.72371C14.6927 3.74522 14.6708 3.76313 14.6463 3.778C14.6415 3.78093 14.6011 3.79202 14.5827 3.7958C14.568 3.7947 14.5532 3.80201 14.5457 3.81591C14.5387 3.82882 14.5399 3.8401 14.5437 3.84942C14.5471 3.8582 14.554 3.86862 14.5704 3.873C14.5736 3.8738 14.5828 3.8752 14.5958 3.8727C14.62 3.86801 14.6799 3.84881 14.6867 3.84473C14.7197 3.8248 14.7487 3.80043 14.7711 3.7716C14.7947 3.74101 14.8112 3.70561 14.8175 3.6646C14.8209 3.6412 14.8217 3.61731 14.8187 3.59391C14.8154 3.56911 14.8081 3.5451 14.7956 3.5231C14.7945 3.52091 14.7909 3.51573 14.7864 3.50951C14.8005 3.50573 14.814 3.5011 14.827 3.4955C14.8457 3.48751 14.8636 3.4774 14.881 3.46442C14.9256 3.43121 14.9522 3.38593 14.9654 3.3359C14.9834 3.26582 14.9739 3.18612 14.9501 3.12073C14.9427 3.1005 14.9204 3.09002 14.9001 3.09733C14.8799 3.1047 14.8694 3.12713 14.8767 3.14742C14.8925 3.1905 14.9009 3.24151 14.8948 3.28941C14.8894 3.33291 14.8718 3.37393 14.8345 3.4019C14.8221 3.41091 14.8095 3.41811 14.7962 3.42383C14.7828 3.42962 14.7689 3.43383 14.7541 3.437ZM14.6183 3.82773C14.6197 3.83553 14.6187 3.84381 14.6151 3.85143C14.6193 3.84272 14.6198 3.8348 14.6183 3.82773Z" fill="#A80000"/>
<path fill-rule="evenodd" clip-rule="evenodd" d="M14.9453 3.08989C14.9413 3.08989 14.923 3.09001 14.9169 3.09062C14.9095 3.09141 14.9038 3.0936 14.9003 3.09531C14.8845 3.10311 14.8792 3.1156 14.8779 3.12742C14.8772 3.13571 14.877 3.15119 14.8954 3.16472C14.9079 3.1741 14.9243 3.17471 14.9371 3.16789C14.9481 3.16722 14.9636 3.16612 14.9698 3.1638C14.9836 3.15899 14.9968 3.15259 15.0095 3.1451C15.0218 3.13791 15.0335 3.12962 15.0442 3.1209C15.0747 3.09671 15.1015 3.06551 15.1229 3.03072C15.1441 2.99629 15.1598 2.95851 15.1687 2.92121C15.1743 2.8972 15.1767 2.87332 15.1764 2.84949C15.1758 2.81542 15.1701 2.7816 15.1619 2.74772C15.1603 2.74132 15.1538 2.72402 15.1492 2.7122C15.1566 2.71012 15.1661 2.70799 15.1733 2.7072C15.1963 2.7044 15.2196 2.703 15.2333 2.69922C15.2706 2.68892 15.3065 2.67021 15.3375 2.64541C15.3687 2.62061 15.3949 2.58971 15.4132 2.55571C15.4272 2.52969 15.4377 2.50099 15.4439 2.47131C15.4502 2.44139 15.452 2.41062 15.4488 2.38082C15.448 2.37351 15.4441 2.3587 15.4394 2.342C15.453 2.3456 15.4668 2.34761 15.4807 2.34791C15.5038 2.3484 15.5271 2.34432 15.5491 2.33499C15.6091 2.30922 15.6654 2.2481 15.7032 2.17619C15.7405 2.10532 15.7595 2.02482 15.7508 1.96151C15.7478 1.9403 15.728 1.92531 15.7066 1.9283C15.6854 1.9314 15.6704 1.95109 15.6734 1.97242C15.6804 2.0219 15.6634 2.08442 15.6342 2.13981C15.6054 2.1949 15.5643 2.24359 15.5183 2.26321C15.5068 2.26821 15.4946 2.27022 15.4826 2.26991C15.4695 2.26961 15.4564 2.26662 15.4441 2.26162C15.4406 2.26041 15.428 2.25431 15.4171 2.25139C15.4062 2.2484 15.3959 2.2481 15.3887 2.24962C15.3754 2.2523 15.3661 2.25949 15.3601 2.26912C15.3545 2.27802 15.3505 2.29392 15.353 2.31391C15.3561 2.33859 15.37 2.37649 15.3712 2.38892C15.3736 2.4108 15.3722 2.43341 15.3675 2.45541C15.363 2.47771 15.3552 2.49922 15.3445 2.51872C15.3311 2.5437 15.3118 2.56619 15.2889 2.58441C15.2661 2.60269 15.2399 2.61652 15.2126 2.62402C15.1906 2.63011 15.1422 2.62932 15.1127 2.64102C15.096 2.64772 15.0832 2.65772 15.0751 2.67009C15.0686 2.6802 15.0651 2.69361 15.0672 2.70952C15.0694 2.72792 15.0831 2.754 15.0861 2.76619C15.0918 2.78971 15.0962 2.81329 15.0978 2.83681C15.0992 2.85881 15.0981 2.88099 15.0928 2.9033C15.0859 2.93279 15.0733 2.96259 15.0564 2.98989C15.0397 3.0167 15.0191 3.0412 14.9956 3.06009C14.9876 3.06649 14.979 3.07252 14.97 3.07782C14.962 3.08251 14.9538 3.0866 14.9453 3.08989ZM14.9452 3.105L14.9458 3.10561L14.9455 3.10512L14.9452 3.105ZM14.9436 3.1036L14.9444 3.10421L14.9438 3.10372L14.9436 3.1036Z" fill="#A80000"/>
<path fill-rule="evenodd" clip-rule="evenodd" d="M16.1131 1.73921C16.1315 1.745 16.156 1.75731 16.1781 1.76809C16.2073 1.78229 16.2335 1.7943 16.2448 1.79649C16.307 1.80849 16.3574 1.79539 16.399 1.76809C16.4564 1.73031 16.4968 1.66279 16.5277 1.59521C16.5368 1.57571 16.5282 1.5525 16.5085 1.5436C16.489 1.53452 16.4658 1.54329 16.4569 1.56279C16.4362 1.60819 16.4114 1.65469 16.3769 1.6865C16.3471 1.7141 16.3093 1.7294 16.2594 1.71989C16.2541 1.71879 16.2437 1.71319 16.2309 1.70691C16.2022 1.69302 16.1653 1.67461 16.1379 1.66541C16.1206 1.65962 16.1054 1.65761 16.095 1.65859C16.0844 1.6595 16.0758 1.6631 16.0693 1.66779C16.0602 1.67449 16.049 1.68942 16.0405 1.71112C16.0326 1.73141 16.0249 1.75901 16.0175 1.78339C16.0131 1.79789 16.0093 1.81099 16.0048 1.8177C15.9739 1.86242 15.9335 1.8885 15.8891 1.90362C15.8396 1.9205 15.7853 1.92421 15.7321 1.9244C15.7106 1.9244 15.6931 1.94183 15.6931 1.9634C15.6931 1.98473 15.7106 2.0024 15.7321 2.0024C15.807 2.00221 15.8836 1.99441 15.9501 1.96309C15.9953 1.94152 16.0362 1.90959 16.0689 1.862C16.0746 1.85389 16.0805 1.84079 16.0861 1.82483C16.0951 1.79862 16.1036 1.762 16.1131 1.73921Z" fill="#A80000"/>
<path fill-rule="evenodd" clip-rule="evenodd" d="M16.948 1.67541C16.9519 1.68041 16.9556 1.6862 16.9592 1.69223C16.9772 1.72239 16.9923 1.75871 17.0046 1.77681C17.0509 1.84451 17.1024 1.89083 17.1601 1.9124C17.2213 1.93531 17.2904 1.9319 17.3703 1.89271C17.3896 1.88321 17.3977 1.85981 17.3882 1.84043C17.3787 1.82111 17.3553 1.81313 17.336 1.8227C17.2795 1.8503 17.2308 1.8556 17.1874 1.83939C17.1428 1.8227 17.1048 1.7851 17.069 1.73281C17.055 1.7124 17.0378 1.6681 17.0165 1.63702C17.0012 1.6146 16.9829 1.59802 16.9647 1.59101C16.9555 1.5876 16.9431 1.5865 16.9293 1.59229C16.913 1.59912 16.8832 1.6302 16.8759 1.63611C16.8586 1.65012 16.8391 1.66231 16.8187 1.672C16.7982 1.68151 16.7767 1.68882 16.755 1.6929C16.7271 1.69802 16.6992 1.69522 16.6728 1.68693C16.645 1.67821 16.6191 1.66353 16.5967 1.645C16.589 1.63873 16.5817 1.63202 16.575 1.62489C16.5683 1.61801 16.5622 1.61051 16.5567 1.60271C16.5549 1.60009 16.5508 1.59412 16.5477 1.58931C16.5458 1.57791 16.5391 1.56761 16.5283 1.56152C16.5035 1.54732 16.4875 1.55963 16.4809 1.56542C16.4731 1.57231 16.4649 1.58382 16.468 1.60223C16.4686 1.6057 16.4698 1.6107 16.4728 1.61642C16.4769 1.62471 16.4879 1.64049 16.4929 1.6475C16.5006 1.65859 16.5092 1.66883 16.5184 1.67852C16.5273 1.68803 16.5369 1.69692 16.5471 1.70521C16.5772 1.73001 16.6121 1.74969 16.6494 1.76139C16.6879 1.77352 16.7288 1.77712 16.7694 1.7695C16.7976 1.7642 16.8255 1.755 16.8519 1.7425C16.8781 1.73019 16.9029 1.71459 16.9251 1.69662C16.9279 1.6943 16.9391 1.68382 16.948 1.67541ZM16.4936 1.63111C16.4959 1.63221 16.4981 1.633 16.5003 1.6333C16.4979 1.63282 16.4957 1.63202 16.4936 1.63111ZM16.4923 1.63062L16.4931 1.63093L16.4918 1.63032L16.4923 1.63062Z" fill="#A80000"/>
<path fill-rule="evenodd" clip-rule="evenodd" d="M17.3343 1.87182C17.3326 1.87871 17.331 1.88693 17.3313 1.89114C17.3323 1.90022 17.3338 1.90911 17.3362 1.91783C17.3393 1.92971 17.3433 1.94141 17.3482 1.95262C17.3591 1.97883 17.3731 2.00424 17.3894 2.02831C17.4054 2.05183 17.4234 2.07413 17.4424 2.09443C17.4625 2.11581 17.4875 2.13483 17.5149 2.14921C17.5432 2.16383 17.5741 2.17352 17.6048 2.17541C17.6148 2.17602 17.6313 2.17303 17.6489 2.1684C17.6572 2.16621 17.6698 2.16371 17.677 2.16231C17.6811 2.16853 17.6833 2.17773 17.6861 2.18693C17.6956 2.21831 17.701 2.25463 17.7095 2.27541C17.7343 2.33641 17.7701 2.39253 17.8166 2.43403C17.8662 2.47851 17.9277 2.50673 18.001 2.50831C18.0226 2.5088 18.0403 2.49174 18.0408 2.47023C18.0413 2.44872 18.0243 2.4308 18.0027 2.43031C17.9494 2.42922 17.9048 2.40831 17.8687 2.37602C17.8307 2.34201 17.802 2.29582 17.7817 2.24592C17.7725 2.22313 17.7673 2.18041 17.7552 2.14793C17.7463 2.12441 17.7336 2.10521 17.7182 2.09382C17.7084 2.08663 17.6934 2.08193 17.6744 2.08352C17.6603 2.08474 17.6421 2.08961 17.6258 2.09382C17.6198 2.0954 17.6106 2.09723 17.6088 2.09753C17.589 2.09613 17.5692 2.08961 17.551 2.0801C17.5313 2.06981 17.5135 2.05622 17.4992 2.04092C17.483 2.02374 17.4677 2.00473 17.4541 1.98462C17.4407 1.96481 17.4291 1.94403 17.4201 1.92252C17.4173 1.91582 17.4148 1.90911 17.4128 1.90211C17.4113 1.89772 17.4103 1.89303 17.4096 1.88852C17.4113 1.88151 17.4146 1.86774 17.4142 1.86292C17.4132 1.85464 17.4103 1.84781 17.406 1.8422C17.3998 1.83373 17.3906 1.8266 17.3752 1.82551C17.3536 1.82411 17.3351 1.84044 17.3335 1.86183C17.3333 1.8653 17.3335 1.86871 17.3343 1.87182ZM17.351 1.89711C17.3552 1.90022 17.3606 1.90241 17.3675 1.9032C17.3614 1.90241 17.3558 1.90022 17.351 1.89711Z" fill="#A80000"/>
<path fill-rule="evenodd" clip-rule="evenodd" d="M17.9852 2.45821C17.9692 2.47551 17.96 2.4991 17.9567 2.52481C17.9528 2.55461 17.957 2.58752 17.9625 2.61189C17.9778 2.68002 18.0281 2.75662 18.094 2.79641C18.1428 2.82609 18.1993 2.8362 18.2567 2.8136C18.2768 2.80561 18.2866 2.78301 18.2787 2.76302C18.2707 2.74291 18.2481 2.7331 18.2281 2.74102C18.1859 2.75772 18.145 2.74132 18.1122 2.71372C18.0754 2.68252 18.048 2.63651 18.0386 2.59489C18.0353 2.58039 18.0325 2.5618 18.0333 2.54389C18.0338 2.5317 18.035 2.51939 18.0423 2.51141C18.057 2.49562 18.0562 2.47101 18.0405 2.45632C18.0247 2.44169 18.0001 2.44249 17.9852 2.45821Z" fill="#A80000"/>
<path fill-rule="evenodd" clip-rule="evenodd" d="M18.3019 2.81329C18.3088 2.80409 18.3116 2.79172 18.3082 2.77972C18.3026 2.759 18.2812 2.74681 18.2603 2.75242C18.2428 2.75729 18.2243 2.77569 18.2236 2.8097C18.2232 2.8426 18.2389 2.9008 18.2417 2.9114C18.2559 2.96302 18.2907 3.04321 18.3408 3.09031C18.3834 3.13041 18.436 3.14869 18.496 3.1234C18.5158 3.11499 18.525 3.09202 18.5166 3.07222C18.5083 3.05241 18.4854 3.04309 18.4656 3.0515C18.4377 3.06332 18.414 3.05211 18.3943 3.03352C18.3545 2.99611 18.3283 2.93169 18.3171 2.89062C18.3154 2.88459 18.3079 2.85833 18.304 2.83389C18.3029 2.82731 18.3023 2.81859 18.3019 2.81329Z" fill="#A80000"/>
<path fill-rule="evenodd" clip-rule="evenodd" d="M18.4738 3.08581C18.4636 3.1047 18.4599 3.12621 18.4607 3.14821C18.4616 3.1746 18.4694 3.20171 18.4777 3.22462C18.4972 3.27813 18.5399 3.34869 18.5948 3.38769C18.6393 3.41902 18.6909 3.43132 18.7457 3.40872C18.7655 3.40043 18.775 3.37752 18.7667 3.35771C18.7585 3.33791 18.7355 3.3284 18.7157 3.33663C18.68 3.3515 18.6479 3.33382 18.6214 3.30841C18.5884 3.27721 18.5636 3.23273 18.551 3.198C18.546 3.18453 18.5412 3.16893 18.5393 3.15333C18.5381 3.14242 18.5379 3.13133 18.5427 3.12213C18.5527 3.10299 18.5454 3.07941 18.5264 3.06942C18.5073 3.05942 18.4838 3.0668 18.4738 3.08581Z" fill="#A80000"/>
<path fill-rule="evenodd" clip-rule="evenodd" d="M18.8032 3.42061C18.8077 3.41391 18.81 3.4058 18.8097 3.39721C18.8086 3.37582 18.7904 3.35912 18.7689 3.36022C18.7525 3.36101 18.7411 3.36851 18.7333 3.38033C18.7291 3.38673 18.7258 3.39514 18.7249 3.40483C18.7241 3.41342 18.7252 3.42353 18.7256 3.42853C18.7272 3.44693 18.73 3.46521 18.7339 3.48344C18.7377 3.50111 18.7423 3.51872 18.7476 3.53572C18.7657 3.59471 18.8024 3.66491 18.8537 3.70391C18.8946 3.73511 18.9442 3.74864 19.0016 3.72914C19.022 3.72231 19.033 3.70013 19.0261 3.67971C19.0191 3.65942 18.9969 3.64833 18.9766 3.6554C18.9387 3.66814 18.9078 3.65181 18.8838 3.62633C18.8543 3.59501 18.8337 3.55071 18.8222 3.51281C18.8175 3.49794 18.8135 3.4827 18.8102 3.46723C18.8071 3.45224 18.8046 3.43712 18.8033 3.42213L18.8032 3.42061ZM18.7743 3.43791L18.7726 3.43804C18.7732 3.43804 18.7738 3.43804 18.7743 3.43791Z" fill="#A80000"/>
<path fill-rule="evenodd" clip-rule="evenodd" d="M19.0406 3.7337C19.0426 3.72773 19.0432 3.7212 19.0421 3.71462C19.0385 3.69342 19.0184 3.6791 18.9972 3.68251C18.9855 3.68452 18.9702 3.69189 18.9644 3.7131C18.9616 3.7234 18.9635 3.75192 18.964 3.75503C18.966 3.76971 18.9697 3.78421 18.9747 3.79872C18.9814 3.81822 18.9903 3.83711 18.9994 3.8549C19.027 3.90901 19.0721 3.97141 19.1281 4.0042C19.1716 4.02979 19.2212 4.03881 19.2752 4.01852C19.2953 4.0109 19.3054 3.98842 19.2978 3.96812C19.2902 3.94801 19.2677 3.9379 19.2476 3.94552C19.2098 3.95971 19.1763 3.94613 19.148 3.9234C19.1139 3.89573 19.087 3.85502 19.0689 3.8195C19.0625 3.80713 19.0563 3.79421 19.0512 3.7808C19.0466 3.7688 19.0429 3.75661 19.0412 3.74442C19.0412 3.74363 19.0407 3.73772 19.0406 3.7337Z" fill="#A80000"/>
<path fill-rule="evenodd" clip-rule="evenodd" d="M11.3745 23.4254L12.1584 24.0887L11.3866 24.8917L11.3946 25.8661L10.4175 25.9L9.83845 26.5024L9.1774 25.943L7.98552 25.9843L7.97681 24.9269L7.36743 24.4113L7.96742 23.787L7.95938 22.8126L8.93651 22.7787L9.68738 21.9976L10.5446 22.723L11.3685 22.6944L11.3745 23.4254Z" fill="#FDA381"/>
<path fill-rule="evenodd" clip-rule="evenodd" d="M11.4533 23.3884L11.4476 22.6937C11.4474 22.6725 11.4387 22.652 11.4232 22.6373C11.4078 22.6225 11.3871 22.6147 11.3658 22.6154L10.5724 22.6429L9.73856 21.9372C9.70669 21.9102 9.65934 21.9127 9.63045 21.9428L8.90182 22.7008L7.95668 22.7336C7.9139 22.7351 7.88002 22.7704 7.88039 22.8133L7.88813 23.7554L7.3105 24.3564C7.29533 24.3722 7.28741 24.3934 7.28856 24.4153C7.28966 24.4371 7.29978 24.4575 7.31641 24.4716L7.89812 24.9638L7.90653 25.985C7.90671 26.0063 7.91549 26.0266 7.93091 26.0414C7.94626 26.0561 7.96698 26.064 7.98831 26.0633L9.14966 26.023L9.78743 26.5628C9.81924 26.5897 9.86659 26.5873 9.89547 26.5572L10.4523 25.9779L11.3974 25.945C11.4402 25.9436 11.4741 25.9082 11.4738 25.8654L11.466 24.9232L12.2154 24.1435C12.2306 24.1278 12.2385 24.1065 12.2374 24.0847C12.2363 24.0629 12.2262 24.0424 12.2095 24.0284L11.4533 23.3884ZM11.2955 23.426C11.2957 23.449 11.3059 23.4708 11.3235 23.4857L12.0431 24.0947L11.3296 24.8369C11.3153 24.8518 11.3074 24.8717 11.3076 24.8923L11.3149 25.7897L10.4148 25.8209C10.3942 25.8216 10.3748 25.8304 10.3605 25.8452L9.83289 26.3941L9.22851 25.8826C9.21352 25.8699 9.19432 25.8633 9.1747 25.8639L8.06399 25.9024L8.05589 24.9263C8.05571 24.9033 8.04553 24.8814 8.02792 24.8666L7.48289 24.4053L8.02444 23.8418C8.03877 23.8269 8.04669 23.807 8.0465 23.7863L8.03913 22.889L8.9393 22.8578C8.9599 22.857 8.97934 22.8484 8.99359 22.8335L9.69304 22.1059L10.4936 22.7834C10.5086 22.796 10.5278 22.8027 10.5474 22.802L11.2901 22.7762L11.2955 23.426Z" fill="#F98E66"/>
<path fill-rule="evenodd" clip-rule="evenodd" d="M11.1053 23.5616L11.0943 22.9893C11.094 22.9719 11.0868 22.9555 11.0742 22.9435C11.0617 22.9315 11.0449 22.9249 11.0276 22.9254L10.373 22.9418L9.67828 22.354C9.65207 22.3317 9.61307 22.3338 9.58925 22.3585L8.99535 22.9764L8.21633 22.996C8.18049 22.9969 8.15216 23.0265 8.15283 23.0624L8.16758 23.8376L7.69689 24.3273C7.6844 24.3403 7.67788 24.3578 7.6788 24.3758C7.67971 24.3938 7.68806 24.4106 7.70177 24.4222L8.18659 24.8325L8.20261 25.6735C8.20292 25.6908 8.21017 25.7073 8.22272 25.7193C8.23522 25.7314 8.25203 25.7378 8.2694 25.7374L9.22746 25.7133L9.75884 26.163C9.78504 26.1852 9.82404 26.1832 9.84787 26.1585L10.3016 25.6863L11.0806 25.6668C11.1165 25.6659 11.1448 25.6362 11.1441 25.6004L11.1293 24.8252L11.7402 24.1897C11.7527 24.1767 11.7592 24.1592 11.7583 24.1412C11.7573 24.1232 11.7491 24.1065 11.7353 24.0948L11.1053 23.5616ZM10.9756 23.5935C10.9759 23.6123 10.9843 23.6299 10.9986 23.642L11.5982 24.1494L11.0167 24.7543C11.0048 24.7668 10.9982 24.7835 10.9985 24.8007L11.0126 25.5382L10.2716 25.5568C10.2544 25.5572 10.2382 25.5644 10.2262 25.5768L9.79631 26.0241L9.29266 25.5978C9.28048 25.5875 9.26494 25.5821 9.24897 25.5825L8.33162 25.6055L8.31626 24.8005C8.3159 24.7818 8.30749 24.7642 8.29323 24.752L7.83894 24.3676L8.28019 23.9085C8.29219 23.896 8.29871 23.8793 8.29835 23.862L8.28433 23.1246L9.02539 23.106C9.04252 23.1056 9.05879 23.0984 9.07073 23.0861L9.6408 22.4929L10.3077 23.0573C10.3199 23.0677 10.3355 23.0731 10.3515 23.0727L10.9653 23.0573L10.9756 23.5935Z" fill="#57636D"/>
<path fill-rule="evenodd" clip-rule="evenodd" d="M10.8449 23.7428L10.8308 23.2892C10.8298 23.2544 10.801 23.2269 10.7662 23.2274L10.2449 23.235L9.68465 22.7609C9.65893 22.7392 9.62079 22.7411 9.59751 22.7654L9.13036 23.2514L8.51044 23.2604C8.49332 23.2606 8.47705 23.2678 8.46529 23.2801C8.45347 23.2924 8.44713 23.309 8.44762 23.3261L8.46675 23.9418L8.09735 24.3261C8.08516 24.3388 8.07876 24.356 8.07968 24.3735C8.08059 24.3911 8.08869 24.4075 8.10216 24.4189L8.49174 24.7487L8.51251 25.4175C8.51361 25.4523 8.54237 25.4798 8.57717 25.4793L9.34194 25.4681L9.76984 25.8302C9.79549 25.852 9.83364 25.85 9.85698 25.8258L10.213 25.4554L10.833 25.4463C10.85 25.4461 10.8663 25.439 10.8781 25.4267C10.8899 25.4143 10.8962 25.3977 10.8957 25.3806L10.8766 24.7649L11.3571 24.2651C11.3693 24.2524 11.3757 24.2352 11.3747 24.2176C11.3739 24.2 11.3657 24.1836 11.3523 24.1723L10.8449 23.7428ZM10.7183 23.7751C10.7189 23.7932 10.7271 23.8102 10.7409 23.8218L11.2181 24.2257L10.7661 24.6959C10.7542 24.7083 10.7478 24.725 10.7484 24.7421L10.7663 25.3198L10.1845 25.3283C10.1675 25.3285 10.1512 25.3356 10.1395 25.3479L9.80652 25.6943L9.40604 25.3554C9.39428 25.3454 9.37935 25.3401 9.36393 25.3403L8.63799 25.3509L8.6183 24.7163C8.61775 24.6983 8.60953 24.6813 8.59576 24.6696L8.23635 24.3655L8.57723 24.0108C8.58911 23.9985 8.59551 23.9818 8.59502 23.9646L8.57705 23.387L9.15882 23.3784C9.17588 23.3782 9.19209 23.3712 9.20391 23.3589L9.64796 22.8969L10.1808 23.3478C10.1926 23.3578 10.2075 23.3631 10.2229 23.3629L10.7054 23.3558L10.7183 23.7751Z" fill="#FB7949"/>
</svg>
